<svg id="Layer_1" data-name="Layer 1" xmlns="http://www.w3.org/2000/svg" viewBox="0 0 1600 606.82"><defs><style>.cls-1{fill:#161515;}</style></defs><path class="cls-1" d="M454.49,409.33v42h-28.3q-17.07,0-26.85-4.79T381.24,431L380,429.31q-35,24.56-82,24.55-41.21,0-73.46-19.14a132.23,132.23,0,0,1-50.15-52.86q-17.91-33.71-17.9-76.16t17.9-76.16a132.23,132.23,0,0,1,50.15-52.86q32.25-19.14,73.46-19.15t73.46,19.15a132.44,132.44,0,0,1,50.15,52.86q17.88,33.71,17.9,76.16a166.86,166.86,0,0,1-7.91,51.82,151.29,151.29,0,0,1-22.48,43.91q7.9,7.9,20,7.9Zm-102-15.4-6.24-8.32q-5.41-7.49-10.82-10.82A23.37,23.37,0,0,0,323,371.46h-25.8V329.84h31.21q15.39,0,24.35,4.79t16.86,15.6l8.73,11.24q12.07-24.14,12.07-55.77,0-30.37-11.65-54.73T346.07,213.1Q325,199.57,298,199.57T249.93,213.1q-21,13.53-32.67,37.87T205.6,305.7q0,30.39,11.66,54.73t32.67,37.87q21,13.54,48.07,13.53Q329.22,411.83,352.52,393.93Z"/><path class="cls-1" d="M671.94,238.28V451.37H632.41l-5-27.06q-24.13,29.57-65.76,29.55-37.46,0-60.76-23.3t-23.31-74.92V238.28h44.95V351.07q0,31.2,12.49,47.44t37,16.23q25.8,0,40.37-18.94T627,344V238.28Z"/><path class="cls-1" d="M755.89,160.65a27.66,27.66,0,0,1,0,38.71,28.71,28.71,0,0,1-39.13,0,27.66,27.66,0,0,1,0-38.71,28.73,28.73,0,0,1,39.13,0Zm-42,77.63H758.8V451.37H713.85Z"/><path class="cls-1" d="M975.13,259.09Q999.06,282.4,999.06,334V451.37H953.7V336.5q0-30.37-12.9-46.2t-37.88-15.82q-26.64,0-41.83,18.53T845.9,344V451.37H801V238.28h39.12l5,27.88q24.13-30.38,68.26-30.38Q951.19,235.78,975.13,259.09Z"/><path class="cls-1" d="M1048.3,277.82h-37V238.28h37V178.76h45.36v59.52h51.19v39.54h-51.19V388.94q0,12.48,5,17.69t17.06,5.2h34.13v39.54h-43.29q-30.37,0-44.32-14.15t-13.94-43.7Z"/><path class="cls-1" d="M1170.24,287.6a93.65,93.65,0,0,1,36.62-38.29q23.51-13.53,53.9-13.53,30.79,0,54.31,12.48a92.93,92.93,0,0,1,37,35.38q13.53,22.89,14,53.69a120.83,120.83,0,0,1-1.25,17.06H1204.16v2.5q1.65,27.9,17.48,44.12t42,16.23q20.8,0,35-9.78t18.73-27.68h45a86.22,86.22,0,0,1-31.42,53.27q-25.59,20.83-63.89,20.81-33.3,0-58.06-13.52a94.54,94.54,0,0,1-38.29-38.08q-13.53-24.56-13.52-57Q1157.13,312.36,1170.24,287.6Zm150,33.91q-2.92-23.29-18.52-36.41T1262.43,272q-22.07,0-38.09,13.53t-18.52,36Z"/><path class="cls-1" d="M1398.56,160h45V451.37h-45Z"/></svg>