<?xml version="1.0" encoding="utf-8"?>
<!-- Generator: Adobe Illustrator 26.0.1, SVG Export Plug-In . SVG Version: 6.00 Build 0)  -->
<svg version="1.1" id="Layer_1" xmlns="http://www.w3.org/2000/svg" xmlns:xlink="http://www.w3.org/1999/xlink" x="0px" y="0px"
	 viewBox="0 0 395.3 393.1" style="enable-background:new 0 0 395.3 393.1;" xml:space="preserve">
<path d="M395.3,334v55.8h-37.5c-15.1,0-27-2.1-35.6-6.4s-16.6-11.1-24-20.7l-1.7-2.2c-30.9,21.7-67.2,32.6-108.8,32.6
	c-36.4,0-68.9-8.5-97.4-25.4c-28.5-16.9-50.7-40.3-66.5-70.2C7.9,267.7,0,234.1,0,196.5s7.9-71.2,23.7-101
	c15.8-29.8,38-53.2,66.5-70.1S151.3,0,187.7,0c36.4,0,68.9,8.5,97.4,25.4c28.5,16.9,50.7,40.3,66.5,70.1
	c15.8,29.8,23.7,63.5,23.8,101c0.1,23.3-3.4,46.5-10.5,68.7c-6.7,20.9-16.7,40.6-29.8,58.3c7,7,15.8,10.5,26.5,10.5L395.3,334z
	 M260,313.6l-8.3-11c-4.8-6.6-9.6-11.4-14.4-14.4c-5-3-10.7-4.5-16.6-4.4h-34.2v-55.3H228c13.6,0,24.4,2.1,32.3,6.4
	s15.4,11.1,22.4,20.7l11.6,14.9c10.7-21.3,16-46,16-74c0-26.9-5.1-51.1-15.5-72.6c-10.3-21.5-24.8-38.3-43.4-50.2
	c-18.6-12-39.8-17.9-63.8-17.9s-45.2,6-63.8,17.9c-18.6,12-33,28.7-43.3,50.2c-10.3,21.5-15.5,45.7-15.4,72.6
	c0,26.9,5.2,51.1,15.5,72.6s24.8,38.3,43.3,50.2c18.6,12,39.8,18,63.8,17.9C215.3,337.3,239.4,329.4,260,313.6z"/>
</svg>
