<?xml version="1.0"?>
<svg xmlns="http://www.w3.org/2000/svg" xmlns:xlink="http://www.w3.org/1999/xlink" version="1.1" id="Capa_1" x="0px" y="0px" viewBox="0 0 512 512" style="enable-background:new 0 0 512 512;" xml:space="preserve" width="512px" height="512px" class=""><g><g>
	<g>
		<path d="M201.822,271.319H155.12h-51.523c13.573,18.158,21.048,41.943,21.048,67.077c0,25.123-7.476,48.919-21.048,67.066h98.225    c-13.573-18.148-21.048-41.943-21.048-67.066C180.774,313.262,188.249,289.477,201.822,271.319z" data-original="#000000" class="active-path" data-old_color="#9A4E0F" fill="#A55513"/>
	</g>
</g><g>
	<g>
		<path d="M496.844,289.375c-8.803-11.642-20.119-18.056-31.853-18.056H361.701h-46.692c13.573,18.158,21.048,41.943,21.048,67.077    c0,25.123-7.476,48.919-21.048,67.066h149.983c11.734,0,23.05-6.414,31.853-18.056c9.773-12.909,15.156-30.321,15.156-49.01    C512,319.696,506.618,302.294,496.844,289.375z" data-original="#000000" class="active-path" data-old_color="#9A4E0F" fill="#A55513"/>
	</g>
</g><g>
	<g>
		<path d="M393.554,124.594c-8.803-11.642-20.119-18.056-31.853-18.056H211.718c13.573,18.148,21.048,41.943,21.048,67.066    c0,25.133-7.476,48.919-21.048,67.077h41.872h4.82h103.291c11.734,0,23.05-6.414,31.853-18.056    c9.773-12.919,15.156-30.321,15.156-49.021C408.709,154.915,403.327,137.503,393.554,124.594z" data-original="#000000" class="active-path" data-old_color="#9A4E0F" fill="#A55513"/>
	</g>
</g><g>
	<g>
		<path d="M290.263,289.375c-8.803-11.642-20.119-18.056-31.853-18.056s-23.04,6.414-31.853,18.056    c-9.763,12.919-15.145,30.321-15.145,49.021c0,18.689,5.382,36.102,15.145,49.01c8.813,11.642,20.119,18.056,31.853,18.056    s23.05-6.414,31.853-18.056c9.773-12.909,15.156-30.321,15.156-49.01C305.419,319.696,300.037,302.294,290.263,289.375z" data-original="#000000" class="active-path" data-old_color="#9A4E0F" fill="#A55513"/>
	</g>
</g><g>
	<g>
		<path d="M186.973,124.594c-8.803-11.642-20.119-18.056-31.853-18.056s-23.04,6.414-31.853,18.056    c-9.763,12.909-15.145,30.321-15.145,49.01c0,18.699,5.382,36.102,15.145,49.021c8.814,11.642,20.119,18.056,31.853,18.056    s23.05-6.414,31.853-18.056c9.773-12.919,15.156-30.321,15.156-49.021C202.128,154.915,196.746,137.503,186.973,124.594z" data-original="#000000" class="active-path" data-old_color="#9A4E0F" fill="#A55513"/>
	</g>
</g><g>
	<g>
		<path d="M78.862,289.375c-8.814-11.642-20.119-18.056-31.853-18.056s-23.05,6.414-31.853,18.056    C5.382,302.294,0,319.696,0,338.396c0,18.689,5.382,36.102,15.156,49.01c8.803,11.642,20.119,18.056,31.853,18.056    s23.04-6.414,31.853-18.056c9.763-12.909,15.145-30.321,15.145-49.01C94.007,319.696,88.625,302.294,78.862,289.375z" data-original="#000000" class="active-path" data-old_color="#9A4E0F" fill="#A55513"/>
	</g>
</g></g> </svg>
