<?xml version="1.0" encoding="UTF-8"?>
<svg id="Layer_1" data-name="Layer 1" xmlns="http://www.w3.org/2000/svg" viewBox="0 0 72 72">
  <defs>
    <style>
      .cls-1 {
        fill: #fff;
        stroke-width: 0px;
      }
    </style>
  </defs>
  <path class="cls-1" d="m36,2c18.75,0,34,15.25,34,34s-15.25,34-34,34S2,54.75,2,36,17.25,2,36,2m0-2C16.12,0,0,16.12,0,36s16.12,36,36,36,36-16.12,36-36S55.88,0,36,0h0Z"/>
  <path class="cls-1" d="m48.83,34.25c0-.25.25-.42.5-.42h2.54v-2.58h-2.54c-.25,0-.46-.17-.5-.42,0-.13-.04-.25-.08-.42-.04-.25.08-.5.29-.58l2.38-1-1-2.42-2.38,1c-.21.08-.5,0-.63-.21-.08-.13-.17-.21-.21-.33-.13-.21-.13-.5.04-.67l1.83-1.83-1.83-1.83-1.83,1.83c-.17.17-.46.21-.67.08-.13-.08-.21-.17-.33-.21-.21-.13-.29-.42-.21-.63l1-2.42-2.42-1-1,2.42c-.08.21-.33.38-.58.29-.13,0-.25-.04-.38-.08-.25-.04-.42-.25-.42-.5v-2.63h-2.58v2.63c0,.25-.17.46-.42.5-.13,0-.25.04-.38.08-.25.04-.5-.08-.58-.29l-1-2.42-2.42,1,1,2.42c.08.25,0,.5-.21.63-.13.08-.21.13-.33.21-.21.13-.46.13-.67-.08l-1.83-1.83-1.83,1.83,1.83,1.83c.17.17.21.46.04.67-.08.13-.17.21-.21.33-.13.21-.42.29-.63.21l-2.38-1-1,2.42,2.38,1c.25.08.38.33.29.58,0,.13-.04.25-.08.42-.04.25-.25.42-.5.42h-2.54v2.58h2.54c.25,0,.46.17.5.42,0,.13.04.29.08.42.04.25-.08.5-.33.58l-2.33.96,1,2.42,2.29-.96c.25-.08.5,0,.63.21.08.13.17.25.25.38.13.21.13.5-.08.67l-1.75,1.75,1.83,1.83,1.75-1.75c.17-.17.46-.21.67-.08.13.08.25.17.38.25.21.13.29.42.21.63l-.96,2.29,2.42,1,.96-2.29c.08-.25.33-.38.58-.33.13,0,.29.04.42.08.25.04.42.25.42.5v2.5h2.58v-2.5c0-.25.17-.46.42-.5.13,0,.29-.04.42-.08.25-.04.5.08.58.33l.96,2.29,2.42-1-.96-2.29c-.08-.25,0-.5.21-.63.13-.08.25-.17.38-.25.21-.13.5-.13.67.08l1.75,1.75,1.83-1.83-1.75-1.75c-.17-.17-.21-.46-.08-.67.08-.13.17-.25.25-.38.13-.21.42-.29.63-.21l2.29.96,1-2.42-2.33-.96c-.21-.08-.38-.33-.33-.58,0-.13.04-.29.08-.42Zm-9.71,1.33c-1.67,0-3-1.33-3-3s1.33-3,3-3,3,1.33,3,3-1.33,3-3,3Z"/>
  <path class="cls-1" d="m26.2,41.8c-.07-.18.07-.37.25-.43l1.82-.69-.7-1.85-1.82.69c-.18.07-.37,0-.47-.16-.03-.09-.1-.17-.17-.28-.1-.17-.08-.38.05-.5l1.43-1.36-1.37-1.46-1.43,1.36c-.13.12-.36.13-.5.02-.09-.07-.18-.1-.24-.18-.15-.12-.22-.32-.15-.49l.82-1.81-1.81-.82-.82,1.81c-.07.16-.27.27-.46.24-.11-.03-.19-.06-.3-.06-.18-.03-.32-.22-.32-.39l.07-2-2-.07-.07,2c0,.17-.14.36-.34.37-.09.03-.19.04-.29.04-.19.04-.37-.07-.43-.25l-.71-1.88-1.85.7.71,1.88c.07.18,0,.37-.16.47-.09.03-.17.1-.25.16-.17.1-.38.08-.5-.05l-1.37-1.46-1.46,1.37,1.37,1.46c.13.16.13.36.02.5-.07.09-.12.15-.18.24-.12.15-.29.21-.5.12l-1.81-.82-.82,1.81,1.81.82c.16.07.27.27.21.47-.03.11-.06.19-.06.3-.03.18-.22.32-.39.32l-1.97-.08-.07,2,1.97.08c.2,0,.36.14.37.34.03.09.04.19.05.32.04.19-.07.37-.25.43l-1.82.69.7,1.85,1.82-.69c.18-.07.37,0,.47.16.03.09.11.2.17.28.1.17.08.38-.08.51l-1.41,1.32,1.37,1.46,1.38-1.31c.16-.13.36-.13.5-.02.09.07.19.13.28.2.15.12.22.32.12.5l-.78,1.73,1.81.82.78-1.73c.07-.16.27-.27.46-.24.11.03.22.05.34.08.18.03.32.22.32.39l-.07,1.9,2,.07.07-1.9c0-.2.14-.36.33-.4.09-.03.22-.05.32-.05.19-.04.37.07.43.25l.67,1.79,1.85-.7-.67-1.79c-.07-.18,0-.37.16-.47.09-.03.2-.11.28-.17.17-.1.38-.08.51.08l1.31,1.38,1.46-1.37-1.31-1.38c-.13-.16-.13-.36-.02-.5.07-.09.13-.19.2-.28.12-.15.32-.22.5-.12l1.73.78.82-1.81-1.73-.78c-.16-.07-.27-.27-.24-.46.03-.11.05-.22.08-.34.03-.18.22-.32.39-.32l1.9.07.07-2-1.93-.06c-.17,0-.36-.14-.4-.33-.03-.09-.05-.22-.05-.32Zm-6.6,3.58c-1.2.45-2.51-.15-2.96-1.34s.15-2.51,1.34-2.96,2.51.15,2.96,1.34-.15,2.51-1.34,2.96Z"/>
  <path class="cls-1" d="m63.09,36.83c-.03-.12.08-.23.2-.25l1.23-.26-.27-1.25-1.23.26c-.12.03-.24-.03-.29-.15-.01-.06-.05-.12-.08-.19-.05-.12-.01-.25.08-.31l1.05-.73-.73-1.07-1.05.73c-.09.06-.24.05-.32-.04-.05-.05-.1-.08-.14-.14-.08-.09-.11-.23-.05-.33l.7-1.08-1.08-.7-.7,1.08c-.06.1-.2.15-.32.11-.07-.03-.12-.06-.18-.07-.11-.04-.18-.17-.17-.28l.24-1.28-1.28-.24-.24,1.28c-.02.11-.12.22-.25.2-.06.01-.13,0-.19,0-.13,0-.23-.08-.25-.2l-.27-1.27-1.25.27.27,1.27c.03.12-.03.24-.15.29-.06.01-.12.05-.17.08-.12.05-.25.01-.31-.08l-.73-1.07-1.07.73.73,1.07c.07.11.05.24-.04.32-.05.05-.09.08-.14.14-.09.08-.21.11-.33.03l-1.08-.7-.7,1.08,1.08.7c.1.06.15.2.09.32-.03.07-.06.12-.07.18-.04.11-.17.18-.28.17l-1.26-.24-.24,1.28,1.26.24c.13.01.22.12.2.25.01.06,0,.13,0,.21,0,.13-.08.23-.2.25l-1.23.26.27,1.25,1.23-.26c.12-.03.24.03.29.15.01.06.05.14.08.19.05.12.01.25-.1.32l-1.03.71.73,1.07,1.01-.7c.11-.07.24-.05.32.04.05.05.11.1.16.16.08.09.11.23.03.33l-.67,1.03,1.08.7.67-1.03c.06-.1.2-.15.32-.11.07.03.14.06.21.08.11.04.18.17.17.28l-.23,1.21,1.28.24.23-1.21c.01-.13.12-.22.25-.22.06-.01.15,0,.21,0,.13,0,.23.08.25.2l.26,1.21,1.25-.27-.26-1.21c-.03-.12.03-.24.15-.29.06-.01.14-.05.19-.08.12-.05.25-.01.32.1l.7,1.01,1.07-.73-.7-1.01c-.07-.11-.05-.24.04-.32.05-.05.1-.11.16-.16.09-.08.23-.11.33-.03l1.03.67.7-1.08-1.03-.67c-.1-.06-.15-.2-.11-.32.03-.07.06-.14.08-.21.04-.11.17-.18.28-.17l1.21.23.24-1.28-1.23-.23c-.11-.02-.22-.12-.22-.25-.01-.06,0-.15,0-.21Zm-4.58,1.64c-.81.17-1.59-.34-1.77-1.15s.34-1.59,1.15-1.77,1.59.34,1.77,1.15-.34,1.59-1.15,1.77Z"/>
</svg>