<?xml version="1.0" encoding="iso-8859-1"?>
<svg xmlns="http://www.w3.org/2000/svg" xmlns:xlink="http://www.w3.org/1999/xlink" version="1.1" viewBox="0 0 295.5 295.5" enable-background="new 0 0 295.5 295.5" width="512px" height="512px">
  <g>
    <g>
      <path d="m180.604,209.985v-176.819c0-18.316-14.682-33.166-33.001-33.166-18.316,0-32.999,14.85-32.999,33.166v176.819c-10,8.987-15.958,21.962-15.958,36.39 0,27.13 22.076,49.125 49.208,49.125 27.131,0 49-21.995 49-49.125 0-14.428-6.25-27.402-16.25-36.39zm-33.001-193.985c9.374,0 17.001,7.701 17.001,17.166v15.334h-17v16h17v17h-17v16h17v17h-17v16h17v17h-34v-114.334c0-9.465 7.626-17.166 16.999-17.166z" fill="#ea1c30"/>
    </g>
  </g>
</svg>
