<?xml version="1.0" encoding="UTF-8"?>
<svg id="Layer_1" xmlns="http://www.w3.org/2000/svg" version="1.1" viewBox="0 0 80 80">
  <!-- Generator: Adobe Illustrator 29.0.0, SVG Export Plug-In . SVG Version: 2.1.0 Build 186)  -->
  <defs>
    <style>
      .st0 {
        fill: #5286ef;
      }
    </style>
  </defs>
  <path class="st0" d="M63.3,43.9c0-.6.6-1,1.2-1h6.1v-6.2h-6.1c-.6,0-1.1-.4-1.2-1,0-.3-.1-.6-.2-1-.1-.6.2-1.2.7-1.4l5.7-2.4-2.4-5.8-5.7,2.4c-.5.2-1.2,0-1.5-.5-.2-.3-.4-.5-.5-.8-.3-.5-.3-1.2.1-1.6l4.4-4.4-4.4-4.4-4.4,4.4c-.4.4-1.1.5-1.6.2-.3-.2-.5-.4-.8-.5-.5-.3-.7-1-.5-1.5l2.4-5.8-5.8-2.4-2.4,5.8c-.2.5-.8.9-1.4.7-.3,0-.6-.1-.9-.2-.6-.1-1-.6-1-1.2v-6.3h-6.2v6.3c0,.6-.4,1.1-1,1.2-.3,0-.6.1-.9.2-.6.1-1.2-.2-1.4-.7l-2.4-5.8-5.8,2.4,2.4,5.8c.2.6,0,1.2-.5,1.5-.3.2-.5.3-.8.5-.5.3-1.1.3-1.6-.2l-4.4-4.4-4.4,4.4,4.4,4.4c.4.4.5,1.1.1,1.6-.2.3-.4.5-.5.8-.3.5-1,.7-1.5.5l-5.7-2.4-2.4,5.8,5.7,2.4c.6.2.9.8.7,1.4,0,.3-.1.6-.2,1-.1.6-.6,1-1.2,1h-6.1v6.2h6.1c.6,0,1.1.4,1.2,1,0,.3.1.7.2,1,.1.6-.2,1.2-.8,1.4l-5.6,2.3,2.4,5.8,5.5-2.3c.6-.2,1.2,0,1.5.5.2.3.4.6.6.9.3.5.3,1.2-.2,1.6l-4.2,4.2,4.4,4.4,4.2-4.2c.4-.4,1.1-.5,1.6-.2.3.2.6.4.9.6.5.3.7,1,.5,1.5l-2.3,5.5,5.8,2.4,2.3-5.5c.2-.6.8-.9,1.4-.8.3,0,.7.1,1,.2.6.1,1,.6,1,1.2v6h6.2v-6c0-.6.4-1.1,1-1.2.3,0,.7-.1,1-.2.6-.1,1.2.2,1.4.8l2.3,5.5,5.8-2.4-2.3-5.5c-.2-.6,0-1.2.5-1.5.3-.2.6-.4.9-.6.5-.3,1.2-.3,1.6.2l4.2,4.2,4.4-4.4-4.2-4.2c-.4-.4-.5-1.1-.2-1.6.2-.3.4-.6.6-.9.3-.5,1-.7,1.5-.5l5.5,2.3,2.4-5.8-5.6-2.3c-.5-.2-.9-.8-.8-1.4,0-.3.1-.7.2-1ZM40,47.1c-4,0-7.2-3.2-7.2-7.2s3.2-7.2,7.2-7.2,7.2,3.2,7.2,7.2-3.2,7.2-7.2,7.2Z"/>
</svg>