<svg enable-background="new 0 0 512 512" height="512" viewBox="0 0 512 512" width="512" xmlns="http://www.w3.org/2000/svg"><g xmlns="http://www.w3.org/2000/svg"><path d="m512 207c0 97.57-9.03 167.31-9.12 168.01-.47 3.55-3.38 6.28-6.96 6.5-.22.02-9 .57-24.83 1.35-24.06 1.18-64.39 2.88-115.59 3.95-25.28 21.54-61.37 55.23-93.61 96.18-1.42 1.8-3.59 2.86-5.89 2.86s-4.47-1.06-5.89-2.86c-32.24-40.95-68.33-74.64-93.61-96.18-84.87-1.78-139.87-5.26-140.42-5.3-3.58-.22-6.49-2.95-6.96-6.5-.09-.7-9.12-70.44-9.12-168.01s9.03-167.31 9.12-168.01c.47-3.55 3.38-6.28 6.96-6.5.99-.07 100.51-6.34 239.92-6.34 98.69 0 177.39 3.14 215.29 5.01 15.64.76 24.34 1.31 24.63 1.33 3.58.22 6.49 2.95 6.96 6.5.09.7 9.12 70.44 9.12 168.01z" fill="#78c374"/><g fill="#fff"><path d="m85.167 112.856c.161 0 .324-.005.486-.016.51-.033 51.905-3.277 128.139-4.228 4.142-.052 7.458-3.451 7.406-7.593-.051-4.11-3.399-7.406-7.498-7.406-.032 0-.063 0-.096 0-76.651.957-128.396 4.225-128.91 4.257-4.133.265-7.27 3.831-7.005 7.964.255 3.971 3.555 7.022 7.478 7.022z"/><path d="m256 108.348c99.009 0 169.645 4.447 170.347 4.492.163.01.325.016.486.016 3.923 0 7.223-3.051 7.477-7.021.265-4.133-2.872-7.699-7.005-7.964-.707-.045-71.782-4.522-171.305-4.522-4.142 0-7.5 3.358-7.5 7.5s3.358 7.499 7.5 7.499z"/><path d="m85.167 163.856c.161 0 .324-.005.487-.016.701-.045 71.297-4.492 170.346-4.492 27.151 0 54.635.332 81.687.988 4.141.098 7.579-3.175 7.679-7.316.101-4.141-3.175-7.579-7.316-7.679-27.173-.659-54.778-.992-82.05-.992-99.523 0-170.599 4.478-171.305 4.522-4.133.265-7.27 3.831-7.005 7.964.254 3.971 3.554 7.021 7.477 7.021z"/><path d="m85.167 214.856c.161 0 .324-.005.486-.016.702-.045 71.297-4.492 170.347-4.492 99.009 0 169.645 4.447 170.347 4.492 4.127.258 7.699-2.872 7.964-7.006.264-4.133-2.872-7.699-7.005-7.964-.707-.045-71.781-4.522-171.305-4.522s-170.599 4.478-171.305 4.522c-4.133.265-7.27 3.831-7.005 7.964.253 3.971 3.553 7.022 7.476 7.022z"/><path d="m256 246.348c-99.523 0-170.599 4.478-171.305 4.522-4.133.265-7.27 3.831-7.005 7.964.254 3.971 3.554 7.021 7.477 7.021.161 0 .323-.005.486-.016.702-.045 71.337-4.492 170.347-4.492 54.447 0 99.966 1.343 128.564 2.47 4.141.17 7.626-3.06 7.79-7.199s-3.06-7.626-7.199-7.79c-28.733-1.13-74.464-2.48-129.155-2.48z"/><path d="m161.846 298.656c-47.245 1.32-76.857 3.196-77.151 3.215-4.134.265-7.27 3.83-7.005 7.964.254 3.971 3.554 7.021 7.477 7.021.161 0 .323-.005.486-.016.291-.019 29.664-1.878 76.612-3.19 4.141-.116 7.403-3.566 7.288-7.707-.116-4.14-3.564-7.402-7.707-7.287z"/><path d="m427.305 301.871c-.707-.045-71.782-4.522-171.305-4.522-14.048 0-28.312.089-42.395.265-4.142.052-7.458 3.452-7.406 7.593s3.464 7.482 7.593 7.406c14.021-.175 28.221-.264 42.208-.264 99.009 0 169.645 4.447 170.347 4.492.163.01.325.016.486.016 3.923 0 7.223-3.051 7.477-7.021.265-4.135-2.872-7.701-7.005-7.965z"/></g><g fill="#549750"><path d="m512 207c0 97.57-9.03 167.31-9.12 168.01-.47 3.55-3.38 6.28-6.96 6.5-.22.02-9 .57-24.83 1.35 20.44-168.96 3.77-322.42.2-351.7 15.64.76 24.34 1.31 24.63 1.33 3.58.22 6.49 2.95 6.96 6.5.09.7 9.12 70.44 9.12 168.01z"/><path d="m355.5 386.81c-25.28 21.54-61.37 55.23-93.61 96.18-1.42 1.8-3.59 2.86-5.89 2.86 0 0 20.3-52.98 54.74-98.89 0 0 20.09.37 44.76-.15z"/></g></g></svg>