<?xml version="1.0" encoding="UTF-8"?>
<svg id="Layer_1" data-name="Layer 1" xmlns="http://www.w3.org/2000/svg" viewBox="0 0 1200 477.24">
  <defs>
    <style>
      .cls-1 {
        font-size: 41.4px;
        letter-spacing: .1em;
        stroke-width: .36px;
      }

      .cls-1, .cls-2, .cls-3, .cls-4, .cls-5, .cls-6, .cls-7 {
        fill: #333;
      }

      .cls-1, .cls-3, .cls-8, .cls-9, .cls-10, .cls-11, .cls-12, .cls-13, .cls-14, .cls-4, .cls-5, .cls-6, .cls-15 {
        stroke-miterlimit: 10;
      }

      .cls-1, .cls-12 {
        font-family: HelveticaNeue-Bold, 'Helvetica Neue';
        font-weight: 700;
      }

      .cls-1, .cls-6 {
        stroke: #333;
      }

      .cls-16 {
        fill: #dbedfe;
      }

      .cls-17, .cls-8 {
        fill: #4e98e4;
      }

      .cls-3, .cls-9, .cls-13 {
        stroke-width: .2px;
      }

      .cls-3, .cls-9, .cls-13, .cls-4, .cls-5 {
        stroke: #374d5d;
      }

      .cls-18 {
        letter-spacing: -.02em;
      }

      .cls-19 {
        letter-spacing: -.04em;
      }

      .cls-8, .cls-10 {
        stroke: #4e98e4;
      }

      .cls-8, .cls-14 {
        stroke-width: 7.19px;
      }

      .cls-9, .cls-13 {
        font-family: HelveticaNeue-Medium, 'Helvetica Neue';
        font-weight: 500;
      }

      .cls-10 {
        stroke-linecap: round;
        stroke-width: 4px;
      }

      .cls-10, .cls-14 {
        fill: none;
      }

      .cls-11 {
        fill: #eee;
        stroke: #eee;
        stroke-width: 7.19px;
      }

      .cls-12 {
        font-size: 19.11px;
        letter-spacing: .2em;
        stroke: #fff;
        stroke-width: .39px;
      }

      .cls-12, .cls-15 {
        fill: #fff;
      }

      .cls-20 {
        letter-spacing: 0em;
      }

      .cls-13 {
        letter-spacing: 0em;
      }

      .cls-21 {
        font-family: Helvetica, Helvetica;
      }

      .cls-22 {
        letter-spacing: 0em;
      }

      .cls-22, .cls-4, .cls-5, .cls-23 {
        font-family: HelveticaNeue, 'Helvetica Neue';
      }

      .cls-14 {
        stroke: #dbedfe;
      }

      .cls-4 {
        stroke-width: .35px;
      }

      .cls-4, .cls-5 {
        font-size: 20.7px;
      }

      .cls-5 {
        stroke-width: .35px;
      }

      .cls-6 {
        stroke-width: .36px;
      }

      .cls-15 {
        stroke: #efefef;
        stroke-width: .33px;
      }

      .cls-7 {
        font-size: 22.29px;
      }
    </style>
  </defs>
  <path class="cls-11" d="m225.43,157.67v299.19c0,.91-.82,1.66-1.83,1.66H23.46c-1.01,0-1.83-.74-1.83-1.66V157.67h203.79Z"/>
  <path class="cls-14" d="m225.43,151.3v-1.5c0-.88-.82-1.59-1.83-1.59H23.46c-1.01,0-1.83.71-1.83,1.59v1.5h203.79Z"/>
  <path class="cls-11" d="m458.6,157.67v299.19c0,.91-.82,1.66-1.83,1.66h-200.14c-1.01,0-1.83-.74-1.83-1.66V157.67h203.79Z"/>
  <path class="cls-14" d="m458.6,151.3v-1.5c0-.88-.82-1.59-1.83-1.59h-200.14c-1.01,0-1.83.71-1.83,1.59v1.5h203.79Z"/>
  <path class="cls-11" d="m693.34,157.67v299.19c0,.91-.82,1.66-1.83,1.66h-200.14c-1.01,0-1.83-.74-1.83-1.66V157.67h203.79Z"/>
  <path class="cls-8" d="m693.34,151.3v-1.5c0-.88-.82-1.59-1.83-1.59h-200.14c-1.01,0-1.83.71-1.83,1.59v1.5h203.79Z"/>
  <path class="cls-11" d="m926.58,157.67v299.19c0,.91-.82,1.66-1.83,1.66h-200.14c-1.01,0-1.83-.74-1.83-1.66V157.67h203.79Z"/>
  <path class="cls-14" d="m926.58,151.3v-1.5c0-.88-.82-1.59-1.83-1.59h-200.14c-1.01,0-1.83.71-1.83,1.59v1.5h203.79Z"/>
  <path class="cls-11" d="m1160.45,157.67v299.19c0,.91-.82,1.66-1.83,1.66h-200.14c-1.01,0-1.83-.74-1.83-1.66V157.67h203.79Z"/>
  <path class="cls-14" d="m1160.45,151.3v-1.5c0-.88-.82-1.59-1.83-1.59h-200.14c-1.01,0-1.83.71-1.83,1.59v1.5h203.79Z"/>
  <path class="cls-16" d="m256.1,64.27l-37.77,57.07c-.43.65-1.45.35-1.45-.44v-8.51c0-.44-.35-.79-.79-.79H8.21c-.63,0-1.01-.71-.66-1.23l31.06-46.08c.18-.27.18-.62,0-.89L7.56,17.3c-.35-.53.02-1.23.66-1.23h207.87c.44,0,.79-.35.79-.79V6.76c0-.78,1.02-1.09,1.45-.44l37.77,57.07c.18.27.18.61,0,.87Z"/>
  <g>
    <path class="cls-6" d="m133.88,356.28l-6.28,5.76c-.2.18-.4.36-.61.55-.81,4.45-4.71,7.84-9.4,7.84-5.26,0-9.55-4.28-9.55-9.55,0-4.85,3.64-8.87,8.33-9.47.09-.1.18-.2.27-.3l2.49-2.8.06.02c1.1-1.2,2.36-2.58,3.34-3.65-1.56-.48-3.22-.73-4.94-.73-9.33,0-16.92,7.59-16.92,16.92s7.59,16.92,16.92,16.92,16.92-7.59,16.92-16.92c0-1.6-.22-3.14-.64-4.61Z"/>
    <path class="cls-6" d="m146.25,344.95c-1.89,1.72-3.77,3.45-5.64,5.16,1.54,3.28,2.4,6.93,2.4,10.78,0,14.02-11.4,25.42-25.42,25.42s-25.42-11.41-25.42-25.42,11.4-25.42,25.42-25.42c3.97,0,7.73.91,11.08,2.54,1.7-1.86,3.43-3.74,5.14-5.62-4.79-2.73-10.32-4.3-16.22-4.3-18.08,0-32.8,14.71-32.8,32.8s14.71,32.8,32.8,32.8,32.8-14.71,32.8-32.8c0-5.78-1.5-11.22-4.14-15.94Z"/>
    <path class="cls-6" d="m169.59,324.47c-.14-.38-.35-.7-.61-.96-.69-.69-1.6-.79-2.48-.79-1.27,0-2.55,0-3.82-.02-1.97-.01-4.01-.03-6.01,0-.13,0-.22,0-.28-.01l-.11-.26-.26-.11c0-.05-.02-.14-.01-.28.02-2.01,0-4.04,0-6.01,0-1.27-.02-2.55-.02-3.82,0-.88-.1-1.79-.79-2.48-.26-.26-.58-.46-.96-.61-1.63-.62-2.72.49-3.25,1.02-.89.91-1.79,1.81-2.68,2.71-2.05,2.06-4.16,4.19-6.2,6.33-.66.7-1.13,1.85-1.16,2.86-.05,1.56-.03,3.13-.02,4.66.01,1.39.02,2.82-.01,4.23-.01.46-.24,1.05-.54,1.38-3.48,3.86-7.06,7.75-10.52,11.52l-2.85,3.1c-1.53,1.67-5.14,5.61-6.36,6.94h-.01s-.42.46-.42.46c-.27.3-.57.63-.88.98-.97,1.07-2.07,2.27-3.1,3.58-.74.95-.34,2.35.47,3.16.03.03.06.06.09.08.77.7,2.05,1.1,3.02.33,1.34-1.05,2.57-2.17,3.65-3.16.32-.29.62-.57.91-.83l10.5-9.62c3.77-3.46,7.66-7.04,11.52-10.52.33-.3.92-.53,1.38-.54,1.4-.03,2.84-.02,4.23-.01,1.52.01,3.1.02,4.66-.02,1.01-.03,2.16-.5,2.86-1.16,2.15-2.04,4.27-4.15,6.33-6.2.9-.89,1.8-1.79,2.71-2.68.53-.52,1.63-1.61,1.01-3.25Z"/>
  </g>
  <text class="cls-1" transform="translate(117.61 74.93)"><tspan x="0" y="0">1</tspan></text>
  <path class="cls-16" d="m489.26,64.27l-37.77,57.07c-.43.65-1.45.35-1.45-.44v-8.51c0-.44-.35-.79-.79-.79h-207.87c-.63,0-1.01-.71-.66-1.23l31.06-46.08c.18-.27.18-.62,0-.89l-31.06-46.08c-.35-.53.02-1.23.66-1.23h207.87c.44,0,.79-.35.79-.79V6.76c0-.78,1.02-1.09,1.45-.44l37.77,57.07c.18.27.18.61,0,.87Z"/>
  <g>
    <path class="cls-2" d="m82.29,192.11c-.71-.51-1.61-.77-2.71-.77-.45,0-.88.04-1.31.13-.43.09-.81.24-1.15.45-.33.21-.6.49-.8.84s-.3.78-.3,1.3c0,.49.15.89.43,1.19.29.3.68.55,1.16.75.48.19,1.03.35,1.64.48.61.13,1.23.26,1.86.41.63.15,1.25.32,1.86.52.61.2,1.16.47,1.64.81s.87.77,1.16,1.29c.29.52.43,1.17.43,1.96,0,.85-.19,1.57-.57,2.17-.38.6-.87,1.09-1.46,1.47-.59.38-1.26.65-2,.82-.74.17-1.47.26-2.2.26-.89,0-1.74-.11-2.53-.33-.79-.22-1.49-.56-2.1-1.01-.6-.45-1.08-1.03-1.43-1.74-.35-.71-.52-1.54-.52-2.51h2.01c0,.67.13,1.25.39,1.73.26.48.6.88,1.03,1.19.42.31.92.54,1.48.69.56.15,1.14.22,1.74.22.48,0,.95-.04,1.44-.13.48-.09.92-.24,1.3-.46.39-.21.7-.51.94-.88.24-.37.36-.85.36-1.43,0-.55-.15-1-.43-1.34s-.68-.62-1.16-.84-1.03-.39-1.64-.52-1.23-.27-1.86-.41c-.63-.14-1.25-.3-1.86-.49-.61-.19-1.16-.43-1.64-.74s-.87-.7-1.16-1.18c-.29-.48-.43-1.09-.43-1.82,0-.8.16-1.5.49-2.08.33-.59.76-1.07,1.3-1.45s1.16-.66,1.85-.85c.69-.19,1.4-.28,2.13-.28.82,0,1.57.1,2.27.29.7.19,1.31.5,1.84.91.53.42.94.94,1.25,1.57.3.63.47,1.39.5,2.26h-2.01c-.12-1.14-.53-1.97-1.24-2.49Z"/>
    <path class="cls-2" d="m93.38,194.33v1.67h-2.3v7.15c0,.22.02.4.06.54s.11.24.21.31c.1.07.25.12.43.15.19.02.43.03.72.03h.87v1.67h-1.45c-.49,0-.91-.03-1.26-.1-.35-.07-.63-.19-.85-.37-.22-.18-.38-.43-.48-.76-.1-.33-.16-.76-.16-1.29v-7.33h-1.96v-1.67h1.96v-3.46h1.89v3.46h2.3Z"/>
    <path class="cls-2" d="m103.63,205.12c-.86.65-1.95.98-3.25.98-.92,0-1.72-.15-2.4-.45-.68-.3-1.24-.71-1.71-1.25-.46-.54-.81-1.17-1.04-1.92s-.36-1.55-.39-2.43c0-.88.13-1.68.4-2.41s.64-1.36,1.13-1.89c.48-.54,1.06-.95,1.72-1.25.66-.3,1.39-.45,2.17-.45,1.03,0,1.88.21,2.55.64.68.42,1.22.96,1.63,1.62.41.65.69,1.37.85,2.14.16.77.22,1.51.19,2.21h-8.63c-.02.51.04.98.18,1.44.13.45.35.85.65,1.2.3.35.68.63,1.14.84.46.21,1,.31,1.63.31.8,0,1.46-.19,1.97-.56s.85-.94,1.01-1.69h1.87c-.25,1.29-.81,2.27-1.67,2.92Zm-.46-7.4c-.17-.4-.4-.75-.69-1.04s-.63-.52-1.03-.69c-.39-.17-.83-.26-1.3-.26s-.93.09-1.33.26c-.39.17-.73.41-1.01.7-.28.3-.51.64-.67,1.04s-.26.81-.29,1.26h6.62c-.03-.45-.13-.87-.3-1.27Z"/>
    <path class="cls-2" d="m109.45,189.94v15.92h-1.89v-15.92h1.89Z"/>
    <path class="cls-2" d="m119.85,209.54c-.5.47-1.17.7-2.02.7-.34,0-.66-.03-.96-.09v-1.63c.07.01.14.03.19.03s.11.01.17.01h.4c.42,0,.7-.12.85-.35.15-.23.22-.64.22-1.24v-12.66h1.89v12.97c0,1.03-.25,1.77-.75,2.24Zm-1.15-17.29v-2.32h1.89v2.32h-1.89Z"/>
    <path class="cls-2" d="m131.69,205.12c-.86.65-1.95.98-3.25.98-.92,0-1.72-.15-2.4-.45-.68-.3-1.24-.71-1.71-1.25-.46-.54-.81-1.17-1.04-1.92s-.36-1.55-.39-2.43c0-.88.13-1.68.4-2.41s.64-1.36,1.13-1.89c.48-.54,1.06-.95,1.72-1.25.66-.3,1.39-.45,2.17-.45,1.03,0,1.88.21,2.55.64.68.42,1.22.96,1.63,1.62.41.65.69,1.37.85,2.14.16.77.22,1.51.19,2.21h-8.63c-.02.51.04.98.18,1.44.13.45.35.85.65,1.2.3.35.68.63,1.14.84.46.21,1,.31,1.63.31.8,0,1.46-.19,1.97-.56s.85-.94,1.01-1.69h1.87c-.25,1.29-.81,2.27-1.67,2.92Zm-.46-7.4c-.17-.4-.4-.75-.69-1.04s-.63-.52-1.03-.69c-.39-.17-.83-.26-1.3-.26s-.93.09-1.33.26c-.39.17-.73.41-1.01.7-.28.3-.51.64-.67,1.04s-.26.81-.29,1.26h6.62c-.03-.45-.13-.87-.3-1.27Z"/>
    <path class="cls-2" d="m141.52,196h-6.51v-1.67h8.96v1.29l-7.04,8.56h7.36v1.67h-9.72v-1.45l6.95-8.4Z"/>
    <path class="cls-2" d="m154.36,205.12c-.86.65-1.95.98-3.25.98-.92,0-1.72-.15-2.4-.45-.68-.3-1.24-.71-1.71-1.25-.46-.54-.81-1.17-1.04-1.92s-.36-1.55-.39-2.43c0-.88.13-1.68.4-2.41s.64-1.36,1.13-1.89c.48-.54,1.06-.95,1.72-1.25.66-.3,1.39-.45,2.17-.45,1.03,0,1.88.21,2.55.64.68.42,1.22.96,1.63,1.62.41.65.69,1.37.85,2.14.16.77.22,1.51.19,2.21h-8.63c-.02.51.04.98.18,1.44.13.45.35.85.65,1.2.3.35.68.63,1.14.84.46.21,1,.31,1.63.31.8,0,1.46-.19,1.97-.56s.85-.94,1.01-1.69h1.87c-.25,1.29-.81,2.27-1.67,2.92Zm-.46-7.4c-.17-.4-.4-.75-.69-1.04s-.63-.52-1.03-.69c-.39-.17-.83-.26-1.3-.26s-.93.09-1.33.26c-.39.17-.73.41-1.01.7-.28.3-.51.64-.67,1.04s-.26.81-.29,1.26h6.62c-.03-.45-.13-.87-.3-1.27Z"/>
    <path class="cls-2" d="m160.18,189.94v15.92h-1.89v-15.92h1.89Z"/>
    <path class="cls-2" d="m161.96,196v-1.67h1.94v-1.72c0-.94.27-1.65.81-2.13.54-.48,1.33-.72,2.37-.72.18,0,.38.02.61.04.23.03.43.07.61.13v1.65c-.16-.06-.34-.1-.54-.12-.19-.02-.37-.03-.53-.03-.46,0-.82.09-1.07.27-.25.18-.38.52-.38,1.02v1.6h2.23v1.67h-2.23v9.85h-1.9v-9.85h-1.94Z"/>
    <path class="cls-2" d="m89.55,230.59c-.86.65-1.95.98-3.25.98-.92,0-1.72-.15-2.4-.45-.68-.3-1.24-.71-1.71-1.25-.46-.54-.81-1.17-1.04-1.92s-.36-1.55-.39-2.43c0-.88.13-1.68.4-2.41s.64-1.36,1.13-1.89c.48-.54,1.06-.95,1.72-1.25.66-.3,1.39-.45,2.17-.45,1.03,0,1.88.21,2.55.64.68.42,1.22.96,1.63,1.62.41.65.69,1.37.85,2.14.16.77.22,1.51.19,2.21h-8.63c-.02.51.04.98.18,1.44.13.45.35.85.65,1.2.3.35.68.63,1.14.84.46.21,1,.31,1.63.31.8,0,1.46-.19,1.97-.56s.85-.94,1.01-1.69h1.87c-.25,1.29-.81,2.27-1.67,2.92Zm-.46-7.4c-.17-.4-.4-.75-.69-1.04s-.63-.52-1.03-.69c-.39-.17-.83-.26-1.3-.26s-.93.09-1.33.26c-.39.17-.73.41-1.01.7-.28.3-.51.64-.67,1.04s-.26.81-.29,1.26h6.62c-.03-.45-.13-.87-.3-1.27Z"/>
    <path class="cls-2" d="m101.52,230.59c-.86.65-1.95.98-3.25.98-.92,0-1.72-.15-2.4-.45-.68-.3-1.24-.71-1.71-1.25-.46-.54-.81-1.17-1.04-1.92s-.36-1.55-.39-2.43c0-.88.13-1.68.4-2.41s.64-1.36,1.13-1.89c.48-.54,1.06-.95,1.72-1.25.66-.3,1.39-.45,2.17-.45,1.03,0,1.88.21,2.55.64.68.42,1.22.96,1.63,1.62.41.65.69,1.37.85,2.14.16.77.22,1.51.19,2.21h-8.63c-.02.51.04.98.18,1.44.13.45.35.85.65,1.2.3.35.68.63,1.14.84.46.21,1,.31,1.63.31.8,0,1.46-.19,1.97-.56s.85-.94,1.01-1.69h1.87c-.25,1.29-.81,2.27-1.67,2.92Zm-.46-7.4c-.17-.4-.4-.75-.69-1.04s-.63-.52-1.03-.69c-.39-.17-.83-.26-1.3-.26s-.93.09-1.33.26c-.39.17-.73.41-1.01.7-.28.3-.51.64-.67,1.04s-.26.81-.29,1.26h6.62c-.03-.45-.13-.87-.3-1.27Z"/>
    <path class="cls-2" d="m107.12,219.8v1.83h.04c.79-1.4,2.04-2.1,3.74-2.1.76,0,1.39.1,1.89.31.5.21.91.5,1.23.87s.53.81.66,1.33c.13.51.19,1.08.19,1.71v7.58h-1.9v-7.8c0-.71-.21-1.28-.62-1.69-.42-.42-.99-.62-1.72-.62-.58,0-1.08.09-1.5.27-.42.18-.78.43-1.06.76-.28.33-.49.71-.64,1.15-.14.44-.21.92-.21,1.44v6.51h-1.89v-11.52h1.78Z"/>
    <path class="cls-3" d="m134.69,231.33h-2.41v-1.56h-.04c-.34.67-.84,1.15-1.49,1.44-.65.29-1.34.43-2.07.43-.91,0-1.7-.16-2.37-.48s-1.24-.75-1.68-1.3c-.45-.55-.78-1.2-1-1.95-.22-.75-.33-1.56-.33-2.42,0-1.04.14-1.94.42-2.7s.66-1.38,1.13-1.87c.47-.49,1-.85,1.6-1.08.6-.23,1.21-.35,1.84-.35.36,0,.72.03,1.09.1.37.07.73.18,1.07.32.34.15.66.34.95.57.29.23.53.5.72.81h.04v-5.88h2.54v15.92Zm-8.87-5.64c0,.49.06.97.19,1.45.13.48.32.9.58,1.27.26.37.59.67.99.89.4.22.88.33,1.43.33s1.05-.12,1.46-.36c.41-.24.74-.55,1-.94.26-.39.45-.82.58-1.3.13-.48.19-.98.19-1.48,0-1.28-.29-2.27-.86-2.99-.57-.71-1.35-1.07-2.33-1.07-.59,0-1.1.12-1.5.37-.41.25-.74.56-1,.96-.26.39-.45.84-.56,1.34s-.17,1.01-.17,1.53Z"/>
    <path class="cls-3" d="m142.74,231.64c-.92,0-1.74-.15-2.46-.46-.72-.3-1.33-.72-1.83-1.26s-.88-1.17-1.14-1.92c-.26-.74-.39-1.56-.39-2.45s.13-1.69.39-2.43c.26-.74.64-1.38,1.14-1.92s1.11-.95,1.83-1.26c.72-.3,1.54-.46,2.46-.46s1.74.15,2.46.46,1.33.72,1.83,1.26.88,1.17,1.14,1.92c.26.74.39,1.55.39,2.43s-.13,1.71-.39,2.45c-.26.74-.64,1.38-1.14,1.92s-1.11.96-1.83,1.26c-.72.3-1.54.46-2.46.46Zm0-2.01c.56,0,1.05-.12,1.47-.36.42-.24.76-.55,1.03-.94.27-.39.46-.82.59-1.3.13-.48.19-.98.19-1.48s-.06-.98-.19-1.47-.32-.93-.59-1.3c-.27-.38-.61-.69-1.03-.92-.42-.24-.91-.36-1.47-.36s-1.06.12-1.47.36-.76.55-1.03.92-.46.81-.59,1.3c-.13.49-.19.98-.19,1.47s.06,1,.19,1.48c.13.48.32.92.59,1.3.27.39.61.7,1.03.94.42.24.91.36,1.47.36Z"/>
    <path class="cls-3" d="m152.66,226.22c0,.45.06.88.19,1.29.13.42.32.78.57,1.09.25.31.57.56.96.75.39.19.85.28,1.38.28.74,0,1.34-.16,1.79-.48.45-.32.79-.8,1.01-1.44h2.41c-.13.62-.36,1.18-.69,1.67-.33.49-.72.9-1.18,1.24-.46.33-.98.59-1.55.76-.57.17-1.17.26-1.79.26-.91,0-1.71-.15-2.41-.45-.7-.3-1.29-.71-1.77-1.25-.48-.54-.85-1.17-1.09-1.92s-.37-1.56-.37-2.45c0-.82.13-1.59.39-2.33.26-.74.63-1.38,1.11-1.94.48-.56,1.07-1,1.75-1.33.68-.33,1.46-.49,2.32-.49.91,0,1.72.19,2.44.57.72.38,1.32.88,1.79,1.5.48.62.82,1.34,1.04,2.15s.27,1.65.17,2.51h-8.47Zm5.93-1.67c-.03-.4-.12-.79-.26-1.16-.14-.37-.33-.69-.58-.97s-.54-.5-.89-.67c-.35-.17-.74-.26-1.17-.26s-.85.08-1.21.23c-.36.16-.68.37-.94.65-.26.27-.47.6-.62.97-.16.37-.24.77-.26,1.2h5.93Z"/>
    <path class="cls-3" d="m163.13,215.41h2.54v15.92h-2.54v-15.92Z"/>
  </g>
  <text class="cls-7" transform="translate(271.86 205.85)"><tspan class="cls-23" x="0" y="0">Balanceer</tspan><tspan class="cls-21" x="99.88" y="0"> </tspan><tspan class="cls-9" x="106.07" y="0">vraag</tspan><tspan class="cls-13" x="163.49" y="0"> </tspan><tspan class="cls-23" x="30.55" y="25.47">en </tspan><tspan class="cls-9" x="61.1" y="25.47">aanbod</tspan></text>
  <rect class="cls-15" x="279.07" y="302.06" width="153.31" height="48.12" rx="3" ry="3"/>
  <text class="cls-5" transform="translate(329.28 331.67)"><tspan class="cls-19" x="0" y="0">V</tspan><tspan class="cls-20" x="11.88" y="0">raag</tspan></text>
  <rect class="cls-15" x="279.07" y="375.7" width="153.31" height="48.12" rx="3" ry="3"/>
  <text class="cls-5" transform="translate(319.49 405.31)"><tspan x="0" y="0">Aanbod</tspan></text>
  <path class="cls-17" d="m288.37,324.58c-5.74.16-11.29,1.04-16.82,2.58-2.39.67-1.84,4.14.36,4.61,2.44.52,4.84.73,7.21.67-8.09,8.66-12.29,20.4-11.87,32.47.43,12.33,5.91,32.16,19.59,35.77,1.31.35,1.68-1.49.68-2.09-11-6.68-15.78-22.69-15.77-34.87,0-10.93,4.1-21.41,11.73-28.97-.41,1.69-.73,3.4-.93,5.13-.34,2.96,4.01,3.86,4.6.87.87-4.4,1.88-8.56,3.57-12.73.69-1.71-.48-3.49-2.35-3.44Z"/>
  <path class="cls-17" d="m422.89,400.71c5.74-.16,11.29-1.04,16.82-2.58,2.39-.67,1.84-4.14-.36-4.61-2.44-.52-4.84-.73-7.21-.67,8.09-8.66,12.29-20.4,11.87-32.47-.43-12.33-5.91-32.16-19.59-35.77-1.31-.35-1.68,1.49-.68,2.09,11,6.68,15.78,22.69,15.77,34.87,0,10.93-4.1,21.41-11.73,28.97.41-1.69.73-3.4.93-5.13.34-2.96-4.01-3.86-4.6-.87-.87,4.4-1.88,8.56-3.57,12.73-.69,1.71.48,3.49,2.35,3.44Z"/>
  <path class="cls-17" d="m724,64.27l-37.77,57.07c-.43.65-1.45.35-1.45-.44v-8.51c0-.44-.35-.79-.79-.79h-207.87c-.63,0-1.01-.71-.66-1.23l31.06-46.08c.18-.27.18-.62,0-.89l-31.06-46.08c-.35-.53.02-1.23.66-1.23h207.87c.44,0,.79-.35.79-.79V6.76c0-.78,1.02-1.09,1.45-.44l37.77,57.07c.18.27.18.61,0,.87Z"/>
  <text class="cls-7" transform="translate(508.72 194.57)"><tspan class="cls-23"><tspan x="0" y="0">Maak aannames</tspan></tspan><tspan class="cls-23" x="1.87" y="25.47">over</tspan><tspan class="cls-21" x="45.2" y="25.47"> </tspan><tspan class="cls-9" x="51.4" y="25.47">flexibiliteit,</tspan><tspan class="cls-9"><tspan x="34.06" y="50.95">emissies </tspan></tspan><tspan class="cls-23" x="32.01" y="76.42">en </tspan><tspan class="cls-9" x="62.57" y="76.42">kosten</tspan></text>
  <path class="cls-16" d="m957.25,64.27l-37.77,57.07c-.43.65-1.45.35-1.45-.44v-8.51c0-.44-.35-.79-.79-.79h-207.87c-.63,0-1.01-.71-.66-1.23l31.06-46.08c.18-.27.18-.62,0-.89l-31.06-46.08c-.35-.53.02-1.23.66-1.23h207.87c.44,0,.79-.35.79-.79V6.76c0-.78,1.02-1.09,1.45-.44l37.77,57.07c.18.27.18.61,0,.87Z"/>
  <text class="cls-7" transform="translate(778.86 205.58)"><tspan class="cls-23"><tspan x="0" y="0">Bekijk de</tspan></tspan><tspan class="cls-9"><tspan class="cls-18" x="-5.17" y="25.47">r</tspan><tspan x="2.27" y="25.47">esultaten</tspan></tspan><tspan class="cls-9"><tspan x="7.22" y="50.95">en data</tspan></tspan></text>
  <path class="cls-16" d="m1191.12,64.27l-37.77,57.07c-.43.65-1.45.35-1.45-.44v-8.51c0-.44-.35-.79-.79-.79h-207.87c-.63,0-1.01-.71-.66-1.23l31.06-46.08c.18-.27.18-.62,0-.89l-31.06-46.08c-.35-.53.02-1.23.66-1.23h207.87c.44,0,.79-.35.79-.79V6.76c0-.78,1.02-1.09,1.45-.44l37.77,57.07c.18.27.18.61,0,.87Z"/>
  <text class="cls-7" transform="translate(978.68 205.83)"><tspan class="cls-23"><tspan x="0" y="0">Sla het scenario</tspan></tspan><tspan class="cls-23" x="7.81" y="25.47">op en </tspan><tspan class="cls-9" x="70.58" y="25.47">deel </tspan><tspan class="cls-22" x="120.55" y="25.47">het</tspan><tspan class="cls-23"><tspan x="17.31" y="50.95">met ande</tspan><tspan class="cls-18" x="111.06" y="50.95">r</tspan><tspan x="118.08" y="50.95">en</tspan></tspan></text>
  <g>
    <path class="cls-2" d="m1093.48,343.24l-21.34-17.78c-.76-.63-1.88-.53-2.51.23-.27.32-.41.72-.41,1.14v9.23c-17.85,4.02-28.45,15.12-28.45,29.89,0,.98.8,1.78,1.78,1.78.77,0,1.44-.49,1.69-1.22,3.02-9.06,14.96-12.61,24.99-12.98v8.86c0,.98.8,1.78,1.78,1.78.42,0,.82-.15,1.14-.41l21.34-17.78c.75-.63.86-1.75.22-2.51-.07-.08-.14-.16-.22-.22h0Z"/>
    <path class="cls-2" d="m1087.01,367.73c-1.96,0-3.56,1.59-3.56,3.56h0v10.67h-53.35v-46.24h14.23c1.96,0,3.56-1.59,3.56-3.56s-1.59-3.56-3.56-3.56h-17.78c-1.96,0-3.56,1.59-3.56,3.56h0v53.35c0,1.96,1.59,3.56,3.56,3.56h60.47c1.96,0,3.56-1.59,3.56-3.56h0v-14.23c0-1.96-1.59-3.56-3.56-3.56h0Z"/>
  </g>
  <rect class="cls-15" x="514.78" y="301.77" width="153.31" height="48.12" rx="3" ry="3"/>
  <text class="cls-5" transform="translate(542.58 331.38)"><tspan x="0" y="0">Flexibiliteit</tspan></text>
  <rect class="cls-15" x="746.29" y="332.85" width="154.25" height="48.41" rx="3" ry="3"/>
  <text class="cls-4" transform="translate(774.15 362.64)"><tspan x="0" y="0">Resultaten</tspan></text>
  <rect class="cls-15" x="514.53" y="408.86" width="153.31" height="48.12" rx="3" ry="3"/>
  <text class="cls-5" transform="translate(558.6 438.47)"><tspan x="0" y="0">Kosten</tspan></text>
  <rect class="cls-15" x="514.04" y="355.32" width="153.31" height="48.12" rx="3" ry="3"/>
  <text class="cls-5" transform="translate(549.87 384.92)"><tspan x="0" y="0">Emissies</tspan></text>
  <path class="cls-17" d="m662.12,374.15c.4-1.69.92-6.89.52-8.65-.67-2.91-4.02-3.85-4.6-.86-.85,4.4-1.85,8.56-3.53,12.74-.69,1.71.49,3.49,2.36,3.43,5.74-.18,11.29-1.07,16.81-2.63,2.39-.67,1.82-4.15-.37-4.61-2.44-.52-8.08.51-10.46.58"/>
  <text class="cls-1" transform="translate(345.19 74.93)"><tspan x="0" y="0">2</tspan></text>
  <text class="cls-12" transform="translate(535.16 68.4)"><tspan x="0" y="0">OPTIONEEL</tspan></text>
  <text class="cls-1" transform="translate(813.18 74.93)"><tspan x="0" y="0">3</tspan></text>
  <text class="cls-1" transform="translate(1047.04 74.93)"><tspan x="0" y="0">4</tspan></text>
  <path class="cls-10" d="m669.69,324.58s32.16,23.8-11.22,51.13"/>
  <path class="cls-17" d="m661.74,440.86c.4-1.69.92-6.89.52-8.65-.67-2.91-4.02-3.85-4.6-.86-.85,4.4-1.85,8.56-3.53,12.74-.69,1.71.49,3.49,2.36,3.43,5.74-.18,11.29-1.07,16.81-2.63,2.39-.67,1.82-4.15-.37-4.61-2.44-.52-8.08.51-10.46.58"/>
  <path class="cls-10" d="m669.3,391.28s32.16,23.8-11.22,51.13"/>
  <path class="cls-16" d="m124.41,131.2l8.03,13.9c.39.67-.1,1.51-.87,1.51h-16.06c-.77,0-1.26-.84-.87-1.51l8.03-13.9c.39-.67,1.35-.67,1.74,0Z"/>
  <path class="cls-16" d="m357.57,131.2l8.03,13.9c.39.67-.1,1.51-.87,1.51h-16.06c-.77,0-1.26-.84-.87-1.51l8.03-13.9c.39-.67,1.35-.67,1.74,0Z"/>
  <path class="cls-17" d="m592.31,131.2l8.03,13.9c.39.67-.1,1.51-.87,1.51h-16.06c-.77,0-1.26-.84-.87-1.51l8.03-13.9c.39-.67,1.35-.67,1.74,0Z"/>
  <path class="cls-16" d="m825.56,131.2l8.03,13.9c.39.67-.1,1.51-.87,1.51h-16.06c-.77,0-1.26-.84-.87-1.51l8.03-13.9c.39-.67,1.35-.67,1.74,0Z"/>
  <path class="cls-16" d="m1059.42,131.2l8.03,13.9c.39.67-.1,1.51-.87,1.51h-16.06c-.77,0-1.26-.84-.87-1.51l8.03-13.9c.39-.67,1.35-.67,1.74,0Z"/>
  <path class="cls-17" d="m495.52,324.3c-1.41,1.01-4.68,5.06-5.53,6.66-1.4,2.63.5,5.54,2.9,3.67,3.53-2.76,7.02-5.24,11.04-7.28,1.64-.84,1.92-2.95.48-4.13-4.45-3.64-9.21-6.61-14.4-9.07-2.24-1.06-4.1,1.93-2.75,3.72,1.5,2,6.42,4.93,8.26,6.43"/>
  <line class="cls-10" x1="454.87" y1="324.58" x2="499.08" y2="324.58"/>
  <path class="cls-17" d="m459.91,435.9c1.41-1.01,4.68-5.06,5.53-6.66,1.4-2.63-.5-5.54-2.9-3.67-3.53,2.76-7.02,5.24-11.04,7.28-1.64.84-1.92,2.95-.48,4.13,4.45,3.64,9.21,6.61,14.4,9.07,2.24,1.06,4.1-1.93,2.75-3.72-1.5-2-6.42-4.93-8.26-6.43"/>
  <line class="cls-10" x1="500.56" y1="435.63" x2="456.35" y2="435.63"/>
</svg>