<svg id="Layer_1" data-name="Layer 1" xmlns="http://www.w3.org/2000/svg" viewBox="0 0 1200 477.24"><defs><style>.cls-1{fill:#f5f8fb;stroke:#f5f8fb;}.cls-1,.cls-10,.cls-11,.cls-14,.cls-16,.cls-17,.cls-18,.cls-19,.cls-2,.cls-20,.cls-21,.cls-3,.cls-5,.cls-6,.cls-8{stroke-miterlimit:10;}.cls-1,.cls-2,.cls-3{stroke-width:14.4px;}.cls-19,.cls-2,.cls-4{fill:#9bbfdf;}.cls-19,.cls-2{stroke:#9bbfdf;}.cls-18,.cls-21,.cls-3{fill:none;}.cls-20,.cls-3{stroke:#70a2cf;}.cls-12,.cls-5{fill:#b2c7d9;}.cls-18,.cls-21,.cls-5{stroke:#b2c7d9;}.cls-5{stroke-width:0.71px;}.cls-15,.cls-6{opacity:0.7;}.cls-16,.cls-6{font-size:41.61px;letter-spacing:4px;}.cls-16,.cls-17,.cls-6{fill:#f7f7f7;stroke:#f7f7f7;stroke-width:0.79px;font-weight:700;}.cls-11,.cls-14,.cls-16,.cls-17,.cls-6,.cls-7{font-family:Helvetica Neue;}.cls-7{font-size:22.41px;}.cls-11,.cls-14,.cls-7{fill:#374d5d;}.cls-11,.cls-14,.cls-8{stroke:#374d5d;}.cls-8{stroke-width:0.39px;}.cls-9{font-family:Helvetica;}.cls-10{fill:#fff;stroke:#efefef;stroke-width:0.65px;}.cls-11,.cls-14{font-size:20.81px;}.cls-11{stroke-width:0.71px;}.cls-13,.cls-20{fill:#70a2cf;}.cls-14{stroke-width:0.71px;}.cls-17{font-size:19.21px;letter-spacing:3px;}.cls-18,.cls-21{stroke-linecap:round;stroke-dasharray:4.8 8;}.cls-18{stroke-width:3.2px;}.cls-19,.cls-20{stroke-width:0.23px;}.cls-21{stroke-width:3.48px;}</style></defs><title>flex1200</title><path class="cls-1" d="M224.15,158.1V458.85a1.76,1.76,0,0,1-1.83,1.66H21.13a1.76,1.76,0,0,1-1.83-1.66V158.1H224.15Z"/><path class="cls-2" d="M224.15,151.7v-1.51a1.73,1.73,0,0,0-1.83-1.6H21.13a1.73,1.73,0,0,0-1.83,1.6v1.51H224.15Z"/><path class="cls-1" d="M458.53,158.1V458.85a1.76,1.76,0,0,1-1.83,1.66H255.51a1.76,1.76,0,0,1-1.83-1.66V158.1H458.53Z"/><path class="cls-2" d="M458.53,151.7v-1.51a1.73,1.73,0,0,0-1.83-1.6H255.51a1.73,1.73,0,0,0-1.83,1.6v1.51H458.53Z"/><path class="cls-1" d="M694.49,158.1V458.85a1.76,1.76,0,0,1-1.83,1.66H491.47a1.76,1.76,0,0,1-1.83-1.66V158.1H694.49Z"/><path class="cls-3" d="M694.49,151.7v-1.51a1.73,1.73,0,0,0-1.83-1.6H491.47a1.73,1.73,0,0,0-1.83,1.6v1.51H694.49Z"/><path class="cls-1" d="M929,158.1V458.85a1.76,1.76,0,0,1-1.83,1.66H725.93a1.76,1.76,0,0,1-1.83-1.66V158.1H929Z"/><path class="cls-2" d="M929,151.7v-1.51a1.73,1.73,0,0,0-1.83-1.6H725.93a1.73,1.73,0,0,0-1.83,1.6v1.51H929Z"/><path class="cls-1" d="M1164,158.1V458.85a1.76,1.76,0,0,1-1.83,1.66H961a1.76,1.76,0,0,1-1.83-1.66V158.1H1164Z"/><path class="cls-2" d="M1164,151.7v-1.51a1.73,1.73,0,0,0-1.83-1.6H961a1.73,1.73,0,0,0-1.83,1.6v1.51H1164Z"/><path class="cls-4" d="M255,64.21l-38,57.36a0.8,0.8,0,0,1-1.46-.44v-8.56a0.8,0.8,0,0,0-.8-0.8H5.8a0.8,0.8,0,0,1-.66-1.24L36.36,64.22a0.8,0.8,0,0,0,0-.89L5.14,17a0.8,0.8,0,0,1,.66-1.24h209a0.8,0.8,0,0,0,.8-0.8V6.41A0.8,0.8,0,0,1,217,6l38,57.36A0.8,0.8,0,0,1,255,64.21Z"/><path class="cls-5" d="M132.12,357.75l-6.31,5.79-0.61.56a9.6,9.6,0,1,1-10.67-11.23l0.27-.3,2.51-2.81,0.06,0,3.36-3.66A17,17,0,1,0,132.12,357.75Z"/><path class="cls-5" d="M144.56,346.36l-5.67,5.18a25.56,25.56,0,1,1-12-12.16l5.17-5.65A33,33,0,1,0,144.56,346.36Z"/><path class="cls-5" d="M168,325.77a2.71,2.71,0,0,0-.61-1,3.31,3.31,0,0,0-2.5-.79l-3.84,0c-2,0-4,0-6,0h-0.28l-0.11-.26-0.26-.11a1.76,1.76,0,0,1,0-.28c0-2,0-4.06,0-6,0-1.28,0-2.56,0-3.84a3.31,3.31,0,0,0-.79-2.5,2.71,2.71,0,0,0-1-.61,2.93,2.93,0,0,0-3.27,1l-2.69,2.72c-2.06,2.07-4.18,4.21-6.23,6.37a4.67,4.67,0,0,0-1.16,2.87c0,1.57,0,3.15,0,4.68s0,2.84,0,4.25a2.41,2.41,0,0,1-.54,1.39c-3.5,3.88-7.09,7.79-10.57,11.58l-2.86,3.12-6.39,7h0l-0.42.47-0.89,1c-1,1.07-2.08,2.29-3.11,3.6a2.5,2.5,0,0,0,.47,3.18l0.09,0.09a2.38,2.38,0,0,0,3,.33c1.35-1.05,2.58-2.18,3.67-3.18l0.92-.84,10.55-9.67c3.78-3.48,7.7-7.07,11.58-10.57a2.41,2.41,0,0,1,1.39-.54c1.41,0,2.85,0,4.25,0s3.12,0,4.68,0a4.67,4.67,0,0,0,2.87-1.16c2.16-2,4.3-4.17,6.37-6.23L167,329A2.93,2.93,0,0,0,168,325.77Z"/><text class="cls-6" transform="translate(115.76 74.94)">1</text><path class="cls-4" d="M489.36,64.21l-38,57.36a0.8,0.8,0,0,1-1.46-.44v-8.56a0.8,0.8,0,0,0-.8-0.8h-209a0.8,0.8,0,0,1-.66-1.24l31.23-46.32a0.8,0.8,0,0,0,0-.89L239.52,17a0.8,0.8,0,0,1,.66-1.24h209a0.8,0.8,0,0,0,.8-0.8V6.41A0.8,0.8,0,0,1,451.39,6l38,57.36A0.8,0.8,0,0,1,489.36,64.21Z"/><text class="cls-7" transform="translate(70.5 206.54)">Stel jezelf <tspan x="7.43" y="25.61">een </tspan><tspan class="cls-8" x="50.18" y="25.61">doel</tspan></text><text class="cls-7" transform="translate(270.82 206.54)">Balanceer<tspan class="cls-9" x="100.4" y="0"> </tspan><tspan class="cls-8" x="106.62" y="0">vraag</tspan><tspan class="cls-8" x="164.34" y="0"> </tspan><tspan x="30.71" y="25.61">en </tspan><tspan class="cls-8" x="61.42" y="25.61">aanbod</tspan></text><rect class="cls-10" x="278.07" y="303.25" width="154.11" height="48.37" rx="1" ry="1"/><text class="cls-11" transform="translate(328.54 333.01)">V<tspan x="11.94" y="0">raag</tspan></text><rect class="cls-10" x="278.07" y="377.27" width="154.11" height="48.37" rx="1" ry="1"/><text class="cls-11" transform="translate(318.7 407.03)">Aanbod</text><path class="cls-12" d="M287.42,325.88a69.8,69.8,0,0,0-16.9,2.59c-2.4.67-1.85,4.16,0.36,4.64a30.16,30.16,0,0,0,7.25.67,45.41,45.41,0,0,0-11.94,32.64c0.43,12.39,5.94,32.33,19.69,36,1.32,0.35,1.69-1.49.69-2.1-11.05-6.71-15.86-22.81-15.85-35.05a40.85,40.85,0,0,1,11.79-29.12,43.28,43.28,0,0,0-.93,5.16c-0.35,3,4,3.88,4.62.88a68.05,68.05,0,0,1,3.59-12.8A2.45,2.45,0,0,0,287.42,325.88Z"/><path class="cls-12" d="M422.63,402.41a69.8,69.8,0,0,0,16.9-2.59c2.4-.67,1.85-4.16-0.36-4.64a30.16,30.16,0,0,0-7.25-.67,45.41,45.41,0,0,0,11.94-32.64c-0.43-12.39-5.94-32.33-19.69-36-1.32-.35-1.69,1.49-0.69,2.1,11.05,6.71,15.86,22.81,15.85,35.05a40.85,40.85,0,0,1-11.79,29.12,43.28,43.28,0,0,0,.93-5.16c0.35-3-4-3.88-4.62-.88a68.05,68.05,0,0,1-3.59,12.8A2.45,2.45,0,0,0,422.63,402.41Z"/><path class="cls-13" d="M725.32,64.21l-38,57.36a0.8,0.8,0,0,1-1.46-.44v-8.56a0.8,0.8,0,0,0-.8-0.8h-209a0.8,0.8,0,0,1-.66-1.24l31.23-46.32a0.8,0.8,0,0,0,0-.89L475.48,17a0.8,0.8,0,0,1,.66-1.24h209a0.8,0.8,0,0,0,.8-0.8V6.41A0.8,0.8,0,0,1,687.35,6l38,57.36A0.8,0.8,0,0,1,725.32,64.21Z"/><text class="cls-7" transform="translate(509.67 206.54)">Maak aannames<tspan x="5" y="25.61">over</tspan><tspan class="cls-9" x="48.56" y="25.61"> </tspan><tspan class="cls-8" x="54.78" y="25.61">flexibiliteit</tspan><tspan x="32.17" y="51.21">en </tspan><tspan class="cls-8" x="62.89" y="51.21">kosten</tspan></text><path class="cls-4" d="M959.78,64.21l-38,57.36a0.8,0.8,0,0,1-1.46-.44v-8.56a0.8,0.8,0,0,0-.8-0.8h-209a0.8,0.8,0,0,1-.66-1.24l31.23-46.32a0.8,0.8,0,0,0,0-.89L709.94,17a0.8,0.8,0,0,1,.66-1.24h209a0.8,0.8,0,0,0,.8-0.8V6.41A0.8,0.8,0,0,1,921.81,6l38,57.36A0.8,0.8,0,0,1,959.78,64.21Z"/><text class="cls-7" transform="translate(780.46 206.26)">Bekijk de<tspan class="cls-8"><tspan x="-5.2" y="25.61">r</tspan><tspan x="2.29" y="25.61">esultaten</tspan></tspan></text><path class="cls-4" d="M1194.87,64.21l-38,57.36a0.8,0.8,0,0,1-1.46-.44v-8.56a0.8,0.8,0,0,0-.8-0.8h-209a0.8,0.8,0,0,1-.66-1.24l31.23-46.32a0.8,0.8,0,0,0,0-.89L945,17a0.8,0.8,0,0,1,.66-1.24h209a0.8,0.8,0,0,0,.8-0.8V6.41A0.8,0.8,0,0,1,1156.9,6l38,57.36A0.8,0.8,0,0,1,1194.87,64.21Z"/><text class="cls-7" transform="translate(981.32 206.52)">Sla het scenario<tspan x="7.85" y="25.61">op en </tspan><tspan class="cls-8" x="70.95" y="25.61">deel </tspan><tspan x="121.18" y="25.61">het</tspan><tspan x="17.4" y="51.21">met ande</tspan><tspan x="111.64" y="51.21">r</tspan><tspan x="118.69" y="51.21">en</tspan></text><path class="cls-12" d="M1096.73,344.64l-21.45-17.88a1.79,1.79,0,0,0-2.93,1.37v9.28c-17.94,4-28.6,15.2-28.6,30.05a1.79,1.79,0,0,0,3.48.57c3-9.11,15-12.67,25.12-13v8.91a1.79,1.79,0,0,0,2.93,1.37l21.45-17.88a1.79,1.79,0,0,0,0-2.75h0Z"/><path class="cls-12" d="M1090.22,369.26a3.57,3.57,0,0,0-3.58,3.57h0v10.73H1033V337.08h14.3a3.58,3.58,0,1,0,0-7.15h-17.88a3.57,3.57,0,0,0-3.58,3.57h0v53.63a3.57,3.57,0,0,0,3.57,3.58h60.78a3.57,3.57,0,0,0,3.58-3.57h0v-14.3a3.57,3.57,0,0,0-3.57-3.58h0Z"/><rect class="cls-10" x="515.01" y="302.95" width="154.11" height="48.37" rx="1" ry="1"/><text class="cls-11" transform="translate(542.96 332.71)">Flexibiliteit</text><rect class="cls-10" x="747.72" y="334.2" width="155.05" height="48.67" rx="1" ry="1"/><text class="cls-14" transform="translate(775.73 364.14)">Resultaten</text><rect class="cls-10" x="515.01" y="376.97" width="154.11" height="48.37" rx="1" ry="1"/><text class="cls-11" transform="translate(559.31 406.73)">Kosten</text><path class="cls-12" d="M659.8,325.92c-1.32-.35-1.69,1.5-0.69,2.11a23.94,23.94,0,0,1,4.48,3.54,1.25,1.25,0,0,0,1.65.14q0.39-.3.78-0.56a1.28,1.28,0,0,0,.09-2.08A17.7,17.7,0,0,0,659.8,325.92Z"/><path class="cls-12" d="M663.11,395.74c0.4-1.7.93-6.93,0.52-8.7-0.68-2.92-4-3.87-4.62-.86A68.05,68.05,0,0,1,655.46,399a2.45,2.45,0,0,0,2.37,3.45,69.8,69.8,0,0,0,16.9-2.64c2.4-.68,1.83-4.17-0.37-4.64-2.46-.52-8.12.51-10.51,0.58"/><g class="cls-15"><text class="cls-16" transform="translate(344.54 74.94)">2</text></g><text class="cls-17" transform="translate(535.49 68.37)">OPTIONEEL</text><g class="cls-15"><text class="cls-16" transform="translate(814.96 74.94)">3</text></g><g class="cls-15"><text class="cls-16" transform="translate(1050.04 74.94)">4</text></g><path class="cls-18" d="M670.72,335.53s32.33,30-11.28,64.38"/><path class="cls-19" d="M122.59,127.46l8.08,14a1,1,0,0,1-.87,1.51H113.64a1,1,0,0,1-.87-1.51l8.08-14A1,1,0,0,1,122.59,127.46Z"/><path class="cls-19" d="M357,127.46l8.08,14a1,1,0,0,1-.87,1.51H348a1,1,0,0,1-.87-1.51l8.08-14A1,1,0,0,1,357,127.46Z"/><path class="cls-20" d="M592.93,127.46l8.08,14a1,1,0,0,1-.87,1.51H584a1,1,0,0,1-.87-1.51l8.08-14A1,1,0,0,1,592.93,127.46Z"/><path class="cls-19" d="M827.4,127.46l8.08,14a1,1,0,0,1-.87,1.51H818.45a1,1,0,0,1-.87-1.51l8.08-14A1,1,0,0,1,827.4,127.46Z"/><path class="cls-19" d="M1062.48,127.46l8.08,14a1,1,0,0,1-.87,1.51h-16.16a1,1,0,0,1-.87-1.51l8.08-14A1,1,0,0,1,1062.48,127.46Z"/><path class="cls-12" d="M495.64,325.6a31.23,31.23,0,0,0-5.55,6.69c-1.41,2.65.51,5.57,2.92,3.69a68.05,68.05,0,0,1,11.09-7.32,2.45,2.45,0,0,0,.48-4.16,69.8,69.8,0,0,0-14.47-9.11c-2.26-1.07-4.12,1.94-2.77,3.74,1.51,2,6.45,5,8.3,6.47"/><line class="cls-21" x1="454.78" y1="325.88" x2="499.23" y2="325.88"/><path class="cls-12" d="M461.46,400.18a31.23,31.23,0,0,0,5.55-6.69c1.41-2.65-.51-5.57-2.92-3.69A68.05,68.05,0,0,1,453,397.11a2.45,2.45,0,0,0-.48,4.16A69.8,69.8,0,0,0,467,410.38c2.26,1.07,4.12-1.94,2.77-3.74-1.51-2-6.45-5-8.3-6.47"/><line class="cls-21" x1="502.32" y1="399.9" x2="457.88" y2="399.9"/></svg>