<?xml version="1.0" encoding="UTF-8"?>
<svg id="Layer_1" data-name="Layer 1" xmlns="http://www.w3.org/2000/svg" viewBox="0 0 1200.01 477.24">
  <defs>
    <style>
      .cls-1 {
        stroke-width: .36px;
      }

      .cls-1, .cls-2 {
        font-size: 20.72px;
      }

      .cls-1, .cls-2, .cls-3, .cls-4, .cls-5, .cls-6, .cls-7, .cls-8, .cls-9, .cls-10, .cls-11, .cls-12, .cls-13, .cls-14, .cls-15, .cls-16 {
        stroke-miterlimit: 10;
      }

      .cls-1, .cls-2, .cls-3, .cls-5, .cls-6, .cls-11, .cls-12, .cls-13 {
        stroke: #374d5d;
      }

      .cls-1, .cls-2, .cls-4, .cls-17, .cls-5, .cls-15, .cls-18 {
        fill: #333;
      }

      .cls-1, .cls-2, .cls-19 {
        font-family: HelveticaNeue, 'Helvetica Neue';
      }

      .cls-2 {
        stroke-width: .36px;
      }

      .cls-3, .cls-20 {
        letter-spacing: -.02em;
      }

      .cls-3, .cls-5, .cls-6, .cls-11, .cls-12, .cls-13 {
        stroke-width: .2px;
      }

      .cls-3, .cls-6, .cls-11, .cls-12, .cls-13 {
        font-family: HelveticaNeue-Medium, 'Helvetica Neue';
        font-weight: 500;
      }

      .cls-4 {
        font-size: 41.4px;
        letter-spacing: .1em;
        stroke-width: .36px;
      }

      .cls-4, .cls-10 {
        font-family: HelveticaNeue-Bold, 'Helvetica Neue';
        font-weight: 700;
      }

      .cls-4, .cls-15 {
        stroke: #333;
      }

      .cls-21 {
        fill: #dbedfe;
      }

      .cls-22, .cls-7 {
        fill: #4e98e4;
      }

      .cls-6 {
        letter-spacing: -.09em;
      }

      .cls-7, .cls-8 {
        stroke: #4e98e4;
      }

      .cls-7, .cls-9, .cls-14 {
        stroke-width: 7.19px;
      }

      .cls-8 {
        stroke-linecap: round;
        stroke-width: 4px;
      }

      .cls-8, .cls-14 {
        fill: none;
      }

      .cls-9 {
        fill: #eee;
        stroke: #eee;
      }

      .cls-10 {
        font-size: 19.11px;
        letter-spacing: .2em;
        stroke: #fff;
        stroke-width: .39px;
      }

      .cls-10, .cls-16 {
        fill: #fff;
      }

      .cls-23 {
        font-family: Helvetica, Helvetica;
      }

      .cls-12 {
        letter-spacing: 0em;
      }

      .cls-13 {
        letter-spacing: 0em;
      }

      .cls-14 {
        stroke: #dbedfe;
      }

      .cls-15 {
        stroke-width: .36px;
      }

      .cls-18 {
        font-size: 22.31px;
      }

      .cls-16 {
        stroke: #efefef;
        stroke-width: .33px;
      }
    </style>
  </defs>
  <path class="cls-9" d="m225.62,156.92v299.45c0,.92-.82,1.66-1.83,1.66H23.48c-1.01,0-1.83-.74-1.83-1.66V156.92h203.97Z"/>
  <path class="cls-14" d="m225.62,150.55v-1.5c0-.88-.82-1.59-1.83-1.59H23.48c-1.01,0-1.83.71-1.83,1.59v1.5h203.97Z"/>
  <path class="cls-9" d="m458.99,156.92v299.45c0,.92-.82,1.66-1.83,1.66h-200.31c-1.01,0-1.83-.74-1.83-1.66V156.92h203.97Z"/>
  <path class="cls-14" d="m458.99,150.55v-1.5c0-.88-.82-1.59-1.83-1.59h-200.31c-1.01,0-1.83.71-1.83,1.59v1.5h203.97Z"/>
  <path class="cls-9" d="m693.93,156.92v299.45c0,.92-.82,1.66-1.83,1.66h-200.31c-1.01,0-1.83-.74-1.83-1.66V156.92h203.97Z"/>
  <path class="cls-7" d="m693.93,150.55v-1.5c0-.88-.82-1.59-1.83-1.59h-200.31c-1.01,0-1.83.71-1.83,1.59v1.5h203.97Z"/>
  <path class="cls-9" d="m927.38,156.92v299.45c0,.92-.82,1.66-1.83,1.66h-200.31c-1.01,0-1.83-.74-1.83-1.66V156.92h203.97Z"/>
  <path class="cls-14" d="m927.38,150.55v-1.5c0-.88-.82-1.59-1.83-1.59h-200.31c-1.01,0-1.83.71-1.83,1.59v1.5h203.97Z"/>
  <path class="cls-9" d="m1161.45,456.37c0,.92-.82,1.66-1.83,1.66h-200.31c-1.01,0-1.83-.74-1.83-1.66V156.92h203.97v299.45"/>
  <path class="cls-14" d="m1161.45,150.55v-1.5c0-.88-.82-1.59-1.83-1.59h-200.31c-1.01,0-1.83.71-1.83,1.59v1.5h203.97Z"/>
  <path class="cls-21" d="m256.31,63.43l-37.8,57.11c-.43.66-1.45.35-1.45-.44v-8.52c0-.44-.35-.79-.79-.79H8.22c-.63,0-1.01-.71-.66-1.24l31.09-46.12c.18-.27.18-.62,0-.89L7.56,16.43c-.35-.53.02-1.24.66-1.24h208.05c.44,0,.79-.35.79-.79V5.88c0-.79,1.02-1.09,1.45-.44l37.8,57.11c.18.27.18.61,0,.88Z"/>
  <g>
    <path class="cls-15" d="m134,355.7l-6.29,5.76c-.2.18-.4.36-.61.55-.81,4.46-4.72,7.85-9.4,7.85-5.27,0-9.56-4.29-9.56-9.56,0-4.86,3.64-8.88,8.34-9.48.09-.1.18-.2.27-.3l2.5-2.8.06.02c1.1-1.2,2.37-2.58,3.34-3.65-1.56-.48-3.22-.73-4.94-.73-9.34,0-16.94,7.6-16.94,16.94s7.6,16.94,16.94,16.94,16.94-7.6,16.94-16.94c0-1.6-.22-3.14-.64-4.61Z"/>
    <path class="cls-15" d="m146.38,344.36c-1.89,1.72-3.78,3.45-5.64,5.16,1.54,3.28,2.4,6.94,2.4,10.79,0,14.03-11.41,25.44-25.44,25.44s-25.44-11.42-25.44-25.44,11.41-25.44,25.44-25.44c3.97,0,7.74.92,11.09,2.55,1.7-1.86,3.43-3.74,5.14-5.63-4.79-2.74-10.33-4.3-16.23-4.3-18.1,0-32.83,14.73-32.83,32.83s14.73,32.83,32.83,32.83,32.83-14.73,32.83-32.83c0-5.79-1.5-11.23-4.14-15.95Z"/>
    <path class="cls-15" d="m169.73,323.86c-.14-.38-.35-.7-.61-.96-.69-.69-1.6-.79-2.48-.79-1.28,0-2.55,0-3.83-.02-1.97-.01-4.01-.03-6.02,0-.14,0-.22,0-.28-.01l-.11-.26-.26-.11c0-.05-.02-.14-.01-.28.02-2.01,0-4.05,0-6.02,0-1.27-.02-2.55-.02-3.83,0-.88-.1-1.79-.79-2.48-.26-.26-.58-.46-.96-.61-1.64-.62-2.73.49-3.25,1.02-.89.91-1.79,1.81-2.68,2.71-2.05,2.06-4.16,4.19-6.2,6.34-.66.7-1.13,1.85-1.16,2.86-.05,1.56-.03,3.14-.02,4.66.01,1.39.02,2.82-.01,4.23-.01.46-.24,1.05-.54,1.38-3.48,3.86-7.06,7.76-10.53,11.53l-2.85,3.11c-1.53,1.67-5.15,5.62-6.37,6.94h-.01s-.42.46-.42.46c-.27.31-.57.63-.88.98-.97,1.07-2.08,2.28-3.1,3.59-.74.95-.34,2.35.47,3.17.03.03.06.06.09.09.77.7,2.05,1.1,3.03.33,1.34-1.05,2.57-2.17,3.66-3.17.32-.29.62-.57.92-.83l10.51-9.63c3.77-3.46,7.67-7.04,11.53-10.53.33-.3.92-.53,1.38-.54,1.4-.03,2.84-.02,4.23-.01,1.53.01,3.1.02,4.66-.02,1.01-.03,2.16-.5,2.86-1.16,2.15-2.04,4.28-4.15,6.34-6.2.9-.9,1.8-1.79,2.71-2.68.53-.52,1.63-1.61,1.01-3.25Z"/>
  </g>
  <text class="cls-4" transform="translate(117.72 74.11)"><tspan x="0" y="0">1</tspan></text>
  <path class="cls-21" d="m489.68,63.43l-37.8,57.11c-.43.66-1.45.35-1.45-.44v-8.52c0-.44-.35-.79-.79-.79h-208.05c-.63,0-1.01-.71-.66-1.24l31.09-46.12c.18-.27.18-.62,0-.89l-31.09-46.12c-.35-.53.02-1.24.66-1.24h208.05c.44,0,.79-.35.79-.79V5.88c0-.79,1.02-1.09,1.45-.44l37.8,57.11c.18.27.18.61,0,.88Z"/>
  <g>
    <path class="cls-17" d="m84.87,205.14l-3.64-13.39h-.04l-3.68,13.39h-2.21l-4.08-15.93h2.16l3.12,13.25h.04l3.57-13.25h2.3l3.52,13.25h.04l3.23-13.25h2.12l-4.26,15.93h-2.21Z"/>
    <path class="cls-17" d="m94.93,189.21v6.09h.04c.15-.36.36-.66.62-.9.27-.25.57-.45.9-.6.33-.16.68-.27,1.05-.35.36-.07.72-.11,1.06-.11.76,0,1.39.1,1.9.31.51.21.91.5,1.23.87.31.37.53.81.66,1.33.13.51.19,1.08.19,1.71v7.58h-1.9v-7.81c0-.71-.21-1.28-.62-1.7-.42-.42-.99-.62-1.72-.62-.58,0-1.08.09-1.51.27-.42.18-.78.43-1.06.76-.28.33-.49.71-.64,1.15-.14.44-.21.92-.21,1.44v6.51h-1.9v-15.93h1.9Z"/>
    <path class="cls-17" d="m115.65,205.1c-.33.19-.78.29-1.36.29-.49,0-.88-.14-1.17-.41-.29-.28-.44-.73-.44-1.35-.52.62-1.13,1.07-1.82,1.35-.69.27-1.44.41-2.24.41-.52,0-1.02-.06-1.48-.18-.47-.12-.87-.3-1.22-.56-.34-.25-.61-.58-.81-.99-.2-.41-.3-.9-.3-1.48,0-.65.11-1.19.33-1.61s.52-.75.88-1.02c.36-.26.78-.46,1.25-.59.47-.13.95-.25,1.44-.33.52-.1,1.02-.18,1.48-.23.47-.05.88-.13,1.24-.22s.64-.24.85-.42c.21-.19.31-.46.31-.81,0-.42-.08-.75-.23-1-.16-.25-.36-.45-.6-.58s-.52-.22-.83-.27-.61-.07-.9-.07c-.8,0-1.47.15-2.01.46s-.83.88-.87,1.73h-1.9c.03-.71.18-1.32.45-1.81.27-.49.62-.89,1.07-1.19.45-.3.96-.52,1.53-.66.57-.13,1.19-.2,1.84-.2.52,0,1.04.04,1.55.11.51.08.98.23,1.39.46.42.23.75.55,1,.97.25.42.38.96.38,1.62v5.92c0,.45.03.77.08.98.05.21.23.31.52.31.16,0,.36-.03.58-.09v1.47Zm-3.08-5.91c-.24.18-.55.31-.94.39-.39.08-.79.15-1.22.2-.42.05-.85.11-1.28.18-.43.07-.82.17-1.16.32-.34.15-.62.36-.84.63-.22.27-.32.65-.32,1.12,0,.31.06.57.19.79.13.21.29.39.49.52.2.13.44.23.7.29.27.06.55.09.85.09.62,0,1.16-.08,1.61-.25.45-.17.81-.38,1.09-.64.28-.26.49-.54.62-.84.13-.3.2-.59.2-.86v-1.93Z"/>
    <path class="cls-17" d="m122.35,193.61v1.67h-2.3v7.16c0,.22.02.4.06.54.04.13.11.24.21.31.1.07.25.12.44.14.19.02.43.03.72.03h.87v1.67h-1.45c-.49,0-.91-.03-1.26-.1-.35-.07-.63-.19-.85-.37-.22-.18-.38-.43-.48-.76-.1-.33-.16-.76-.16-1.29v-7.34h-1.96v-1.67h1.96v-3.46h1.9v3.46h2.3Z"/>
    <path class="cls-17" d="m127.34,189.21v2.48c0,.45-.05.87-.15,1.26-.1.39-.25.74-.45,1.04s-.45.54-.76.71-.67.27-1.1.27v-1.12c.25,0,.46-.06.62-.19.16-.13.3-.29.4-.5.1-.21.17-.44.21-.7.04-.26.06-.52.06-.77h-1.32v-2.48h2.48Z"/>
    <path class="cls-17" d="m130.44,202.56c.18.29.41.52.7.69s.62.29.98.37.74.11,1.13.11c.3,0,.61-.02.94-.07.33-.04.63-.13.9-.25.27-.12.5-.29.68-.52.18-.23.27-.52.27-.88,0-.49-.19-.86-.56-1.12-.37-.25-.84-.46-1.39-.61s-1.16-.3-1.82-.42c-.65-.13-1.26-.3-1.82-.54-.56-.23-1.02-.55-1.39-.97-.37-.42-.56-1-.56-1.74,0-.58.13-1.08.39-1.49s.59-.75,1-1.02c.41-.26.87-.45,1.38-.58.51-.13,1.02-.19,1.53-.19.65,0,1.26.06,1.81.17.55.11,1.04.3,1.46.58s.76.65,1.02,1.12.4,1.05.45,1.75h-1.9c-.03-.37-.13-.68-.29-.93s-.37-.44-.62-.59-.53-.26-.84-.32c-.31-.07-.61-.1-.93-.1-.28,0-.57.02-.86.07s-.55.12-.79.23c-.24.11-.43.26-.58.45-.15.19-.22.43-.22.72,0,.33.12.6.35.81.23.22.52.39.88.54.36.14.76.26,1.2.36s.89.2,1.34.3c.48.1.94.23,1.39.38.45.15.85.35,1.2.59.35.25.63.55.85.93.22.37.32.83.32,1.38,0,.7-.15,1.28-.44,1.74-.29.46-.67.83-1.14,1.12-.47.28-1,.48-1.58.59-.59.11-1.17.17-1.75.17-.64,0-1.25-.07-1.83-.2s-1.09-.35-1.54-.66-.8-.71-1.07-1.21c-.27-.5-.42-1.1-.45-1.82h1.9c.01.42.11.77.29,1.06Z"/>
    <path class="cls-17" d="m151.28,193.61v1.67h-2.3v7.16c0,.22.02.4.06.54.04.13.11.24.21.31.1.07.25.12.44.14.19.02.43.03.72.03h.87v1.67h-1.45c-.49,0-.91-.03-1.26-.1-.35-.07-.63-.19-.85-.37-.22-.18-.38-.43-.48-.76-.1-.33-.16-.76-.16-1.29v-7.34h-1.96v-1.67h1.96v-3.46h1.9v3.46h2.3Z"/>
    <path class="cls-17" d="m155.27,189.21v6.09h.04c.15-.36.36-.66.62-.9.27-.25.57-.45.9-.6.33-.16.68-.27,1.05-.35.36-.07.72-.11,1.06-.11.76,0,1.39.1,1.9.31.51.21.91.5,1.23.87.31.37.53.81.66,1.33.13.51.19,1.08.19,1.71v7.58h-1.9v-7.81c0-.71-.21-1.28-.62-1.7-.42-.42-.99-.62-1.72-.62-.58,0-1.08.09-1.51.27-.42.18-.78.43-1.06.76-.28.33-.49.71-.64,1.15-.14.44-.21.92-.21,1.44v6.51h-1.9v-15.93h1.9Z"/>
    <path class="cls-17" d="m173.95,204.41c-.86.65-1.95.98-3.26.98-.92,0-1.72-.15-2.4-.45-.68-.3-1.25-.71-1.71-1.25-.46-.54-.81-1.17-1.04-1.92-.23-.74-.36-1.55-.39-2.43,0-.88.13-1.68.4-2.41.27-.73.64-1.36,1.13-1.9.48-.54,1.06-.95,1.72-1.25.66-.3,1.39-.45,2.17-.45,1.03,0,1.88.21,2.55.64.68.42,1.22.96,1.63,1.62.41.65.69,1.37.85,2.14s.22,1.51.19,2.21h-8.63c-.02.51.04.99.18,1.44.13.45.35.86.65,1.2.3.35.68.63,1.14.84s1,.31,1.63.31c.8,0,1.46-.19,1.97-.56s.85-.94,1.02-1.7h1.87c-.25,1.29-.81,2.27-1.67,2.92Zm-.46-7.41c-.17-.4-.4-.75-.69-1.04-.29-.29-.63-.52-1.03-.69-.39-.17-.83-.26-1.31-.26s-.93.08-1.33.26c-.39.17-.73.41-1.02.7s-.51.64-.67,1.04c-.16.39-.26.81-.29,1.26h6.63c-.03-.45-.13-.87-.3-1.27Z"/>
    <path class="cls-5" d="m107.32,230.03c0,1.74-.49,3.04-1.46,3.89-.97.85-2.38,1.28-4.21,1.28-.58,0-1.16-.06-1.75-.18-.59-.12-1.12-.32-1.61-.6-.48-.28-.89-.66-1.22-1.12s-.52-1.03-.58-1.7h2.54c.07.36.2.65.38.87.18.22.39.4.64.52.25.13.52.21.81.25.3.04.61.06.94.06,1.03,0,1.78-.25,2.25-.76.48-.51.71-1.24.71-2.19v-1.76h-.04c-.36.64-.84,1.14-1.46,1.5-.62.36-1.28.54-2,.54-.92,0-1.71-.16-2.35-.48-.65-.32-1.18-.76-1.61-1.32s-.73-1.2-.93-1.93-.29-1.51-.29-2.34c0-.77.12-1.51.36-2.21s.58-1.31,1.03-1.84c.45-.53.99-.95,1.64-1.26s1.38-.47,2.2-.47c.73,0,1.4.15,2.01.46s1.08.78,1.41,1.44h.04v-1.58h2.54v10.93Zm-5.64-1.41c.57,0,1.04-.12,1.44-.35s.71-.54.96-.92c.25-.38.42-.81.54-1.29.11-.48.17-.97.17-1.46s-.06-.97-.18-1.43c-.12-.46-.3-.87-.55-1.23-.25-.36-.57-.64-.96-.85-.39-.21-.87-.31-1.42-.31s-1.04.12-1.43.36c-.39.24-.7.55-.94.93s-.41.81-.51,1.29-.16.96-.16,1.44.06.94.18,1.39c.12.45.3.86.55,1.22.25.36.56.65.94.87.38.22.84.33,1.37.33Z"/>
    <path class="cls-5" d="m115.17,230.95c-.92,0-1.74-.15-2.47-.46-.72-.3-1.33-.73-1.83-1.26-.5-.54-.88-1.17-1.14-1.92-.26-.74-.39-1.56-.39-2.45s.13-1.69.39-2.43c.26-.74.64-1.38,1.14-1.92.5-.54,1.11-.96,1.83-1.26.72-.3,1.54-.46,2.47-.46s1.74.15,2.46.46,1.33.72,1.83,1.26c.5.54.88,1.17,1.14,1.92.26.74.39,1.55.39,2.43s-.13,1.71-.39,2.45c-.26.74-.64,1.38-1.14,1.92-.5.54-1.11.96-1.83,1.26-.72.3-1.54.46-2.46.46Zm0-2.01c.56,0,1.06-.12,1.47-.36.42-.24.76-.55,1.03-.94s.46-.82.59-1.31c.13-.48.19-.98.19-1.48s-.06-.98-.19-1.47c-.13-.49-.32-.93-.59-1.31s-.61-.69-1.03-.93c-.42-.24-.91-.36-1.47-.36s-1.06.12-1.47.36c-.42.24-.76.55-1.03.93-.27.38-.46.81-.59,1.31-.13.49-.19.98-.19,1.47s.06,1,.19,1.48c.13.48.32.92.59,1.31.27.39.61.7,1.03.94.42.24.91.36,1.47.36Z"/>
    <path class="cls-5" d="m132.78,228.07c0,.31.04.54.12.67.08.13.24.2.48.2h.27c.1,0,.22-.01.36-.04v1.76c-.09.03-.2.06-.35.1-.14.04-.29.07-.44.1-.15.03-.3.05-.45.07-.15.01-.28.02-.38.02-.52,0-.95-.1-1.29-.31-.34-.21-.57-.57-.67-1.09-.51.49-1.13.85-1.86,1.07-.74.22-1.45.33-2.13.33-.52,0-1.02-.07-1.49-.21-.48-.14-.9-.35-1.26-.62-.36-.27-.65-.62-.87-1.05-.22-.42-.32-.92-.32-1.48,0-.71.13-1.29.39-1.74.26-.45.6-.79,1.03-1.05s.9-.44,1.43-.55,1.06-.2,1.6-.26c.46-.09.9-.15,1.32-.19.42-.04.78-.1,1.1-.19s.57-.23.76-.41c.19-.19.28-.46.28-.84,0-.33-.08-.59-.23-.8-.16-.21-.35-.37-.58-.48s-.49-.19-.77-.22c-.28-.04-.55-.06-.8-.06-.71,0-1.3.15-1.76.45-.46.3-.72.76-.78,1.38h-2.54c.04-.74.22-1.36.54-1.85.31-.49.71-.88,1.19-1.18.48-.3,1.03-.51,1.64-.62.61-.12,1.23-.18,1.87-.18.56,0,1.12.06,1.67.18.55.12,1.04.31,1.48.58.44.27.79.61,1.06,1.04.27.42.4.94.4,1.55v5.93Zm-2.54-3.21c-.39.25-.86.41-1.43.46-.57.05-1.13.13-1.7.23-.27.04-.53.11-.78.19-.25.08-.48.19-.67.33-.19.14-.35.33-.46.56-.11.23-.17.51-.17.84,0,.28.08.52.25.71s.36.35.59.46c.23.11.48.19.76.23.28.04.52.07.75.07.28,0,.59-.04.91-.11s.64-.2.93-.38.53-.41.73-.68c.19-.27.29-.61.29-1.01v-1.9Z"/>
    <path class="cls-5" d="m135.59,214.71h2.54v15.93h-2.54v-15.93Z"/>
    <path class="cls-17" d="m141.11,217.56c.23-.65.56-1.22.99-1.71.43-.48.96-.86,1.58-1.13.62-.27,1.32-.4,2.1-.4.7,0,1.33.1,1.91.3.57.2,1.07.49,1.48.87.42.38.74.84.97,1.39s.35,1.18.35,1.9c0,.46-.06.87-.17,1.24-.11.37-.26.7-.44.99-.18.3-.38.57-.61.83-.23.25-.47.5-.7.74-.24.22-.47.45-.7.68s-.44.48-.62.74c-.19.26-.33.54-.45.85-.11.3-.17.65-.17,1.04v.87h-1.9v-1.05c.03-.62.15-1.16.35-1.59s.45-.83.74-1.17c.29-.34.59-.66.91-.95s.62-.59.89-.92c.27-.32.49-.67.66-1.06s.23-.86.2-1.41c-.06-.82-.32-1.46-.79-1.92-.47-.46-1.1-.69-1.91-.69-.54,0-1,.1-1.38.29-.39.19-.71.45-.97.78s-.45.71-.57,1.16c-.12.45-.18.93-.18,1.45h-1.9c-.02-.76.09-1.46.32-2.12Zm5.79,10.6v2.48h-2.48v-2.48h2.48Z"/>
  </g>
  <text class="cls-18" transform="translate(268.39 205.14)"><tspan class="cls-19" x="0" y="0">Balance</tspan><tspan class="cls-23" x="80.56" y="0"> </tspan><tspan class="cls-13" x="86.75" y="0">demand</tspan><tspan class="cls-11" x="171.04" y="0"> </tspan><tspan class="cls-19" x="32.41" y="25.5">and </tspan><tspan class="cls-11" x="76.23" y="25.5">supply</tspan></text>
  <rect class="cls-16" x="279.31" y="301.44" width="153.44" height="48.16" rx="3" ry="3"/>
  <text class="cls-1" transform="translate(316.88 331.07)"><tspan x="0" y="0">Demand</tspan></text>
  <rect class="cls-16" x="279.31" y="375.14" width="153.44" height="48.16" rx="3" ry="3"/>
  <text class="cls-1" transform="translate(323.8 404.77)"><tspan x="0" y="0">Supply</tspan></text>
  <path class="cls-22" d="m288.62,323.97c-5.75.16-11.3,1.04-16.83,2.58-2.39.67-1.84,4.15.36,4.62,2.44.53,4.84.74,7.22.67-8.1,8.67-12.3,20.41-11.88,32.5.43,12.34,5.92,32.19,19.6,35.8,1.31.35,1.69-1.49.69-2.1-11.01-6.68-15.79-22.71-15.78-34.9,0-10.94,4.1-21.42,11.74-28.99-.41,1.69-.73,3.4-.93,5.14-.34,2.97,4.01,3.86,4.6.87.87-4.4,1.88-8.57,3.58-12.74.7-1.71-.48-3.49-2.35-3.44Z"/>
  <path class="cls-22" d="m423.25,400.17c5.75-.16,11.3-1.04,16.83-2.58,2.39-.67,1.84-4.15-.36-4.62-2.44-.53-4.84-.74-7.22-.67,8.1-8.67,12.3-20.41,11.88-32.5-.43-12.34-5.92-32.19-19.6-35.8-1.31-.35-1.69,1.49-.69,2.1,11.01,6.68,15.79,22.71,15.78,34.9,0,10.94-4.1,21.42-11.74,28.99.41-1.69.73-3.4.93-5.14.34-2.97-4.01-3.86-4.6-.87-.87,4.4-1.88,8.57-3.58,12.74-.7,1.71.48,3.49,2.35,3.44Z"/>
  <path class="cls-22" d="m724.62,63.43l-37.8,57.11c-.43.66-1.45.35-1.45-.44v-8.52c0-.44-.35-.79-.79-.79h-208.05c-.63,0-1.01-.71-.66-1.24l31.09-46.12c.18-.27.18-.62,0-.89l-31.09-46.12c-.35-.53.02-1.24.66-1.24h208.05c.44,0,.79-.35.79-.79V5.88c0-.79,1.02-1.09,1.45-.44l37.8,57.11c.18.27.18.61,0,.88Z"/>
  <text class="cls-18" transform="translate(497.71 199.16)"><tspan class="cls-19"><tspan x="0" y="0">Make assumptions</tspan></tspan><tspan class="cls-19" x="14.87" y="25.5">about</tspan><tspan class="cls-23" x="72.32" y="25.5"> </tspan><tspan class="cls-11" x="78.51" y="25.5">flexibilit</tspan><tspan class="cls-6" x="157.87" y="25.5">y</tspan><tspan class="cls-12" x="167.39" y="25.5">,</tspan><tspan class="cls-11"><tspan x="42.56" y="50.99">emissions</tspan></tspan><tspan class="cls-19" x="44.22" y="76.49">and </tspan><tspan class="cls-11" x="88.03" y="76.49">costs</tspan></text>
  <path class="cls-21" d="m958.07,63.43l-37.8,57.11c-.43.66-1.45.35-1.45-.44v-8.52c0-.44-.35-.79-.79-.79h-208.05c-.63,0-1.01-.71-.66-1.24l31.09-46.12c.18-.27.18-.62,0-.89l-31.09-46.12c-.35-.53.02-1.24.66-1.24h208.05c.44,0,.79-.35.79-.79V5.88c0-.79,1.02-1.09,1.45-.44l37.8,57.11c.18.27.18.61,0,.88Z"/>
  <text class="cls-18" transform="translate(774.57 204.87)"><tspan class="cls-19"><tspan x="0" y="0">Check the</tspan></tspan><tspan class="cls-11"><tspan class="cls-20" x="16.52" y="25.5">r</tspan><tspan x="23.97" y="25.5">esults</tspan></tspan><tspan class="cls-11"><tspan x="5.38" y="50.99">and data</tspan></tspan></text>
  <path class="cls-21" d="m1192.14,63.43l-37.8,57.11c-.43.66-1.45.35-1.45-.44v-8.52c0-.44-.35-.79-.79-.79h-208.05c-.63,0-1.01-.71-.66-1.24l31.09-46.12c.18-.27.18-.62,0-.89l-31.09-46.12c-.35-.53.02-1.24.66-1.24h208.05c.44,0,.79-.35.79-.79V5.88c0-.79,1.02-1.09,1.45-.44l37.8,57.11c.18.27.18.61,0,.88Z"/>
  <text class="cls-18" transform="translate(969.79 205.12)"><tspan class="cls-11" x="0" y="0">Save </tspan><tspan class="cls-19" x="57.04" y="0">the scenario</tspan><tspan class="cls-19" x="30.35" y="25.5">and </tspan><tspan class="cls-11" x="74.17" y="25.5">sha</tspan><tspan class="cls-3" x="110.95" y="25.5">r</tspan><tspan class="cls-11" x="118.4" y="25.5">e </tspan><tspan class="cls-19" x="137.01" y="25.5">it</tspan><tspan class="cls-19"><tspan x="34.52" y="50.99">with others</tspan></tspan></text>
  <g>
    <path class="cls-17" d="m1094.42,342.65l-21.36-17.8c-.76-.63-1.88-.53-2.51.23-.27.32-.41.72-.41,1.14v9.24c-17.87,4.03-28.48,15.13-28.48,29.92,0,.98.8,1.78,1.78,1.78.77,0,1.45-.49,1.69-1.22,3.02-9.07,14.97-12.62,25.01-12.99v8.87c0,.98.8,1.78,1.78,1.78.42,0,.82-.15,1.14-.41l21.36-17.8c.76-.63.86-1.76.22-2.51-.07-.08-.14-.16-.22-.22h0Z"/>
    <path class="cls-17" d="m1087.94,367.16c-1.97,0-3.56,1.59-3.56,3.56h0v10.68h-53.4v-46.28h14.24c1.97,0,3.56-1.59,3.56-3.56s-1.59-3.56-3.56-3.56h-17.8c-1.97,0-3.56,1.59-3.56,3.56h0v53.4c0,1.97,1.59,3.56,3.56,3.56h60.52c1.97,0,3.56-1.59,3.56-3.56h0v-14.24c0-1.97-1.59-3.56-3.56-3.56h0Z"/>
  </g>
  <rect class="cls-16" x="515.22" y="301.14" width="153.44" height="48.16" rx="3" ry="3"/>
  <text class="cls-1" transform="translate(548.99 330.77)"><tspan x="0" y="0">Flexibility</tspan></text>
  <rect class="cls-16" x="746.93" y="332.25" width="154.38" height="48.46" rx="3" ry="3"/>
  <text class="cls-2" transform="translate(789.79 362.07)"><tspan x="0" y="0">Results</tspan></text>
  <rect class="cls-16" x="515.22" y="408.33" width="153.44" height="48.16" rx="3" ry="3"/>
  <text class="cls-1" transform="translate(564.9 437.97)"><tspan x="0" y="0">Costs</tspan></text>
  <rect class="cls-16" x="515.22" y="354.73" width="153.44" height="48.16" rx="3" ry="3"/>
  <text class="cls-1" transform="translate(544.94 384.37)"><tspan x="0" y="0">Emissions</tspan></text>
  <text class="cls-4" transform="translate(345.5 74.11)"><tspan x="0" y="0">2</tspan></text>
  <text class="cls-10" transform="translate(543.43 67.57)"><tspan x="0" y="0">OPTIONAL</tspan></text>
  <text class="cls-4" transform="translate(813.89 74.11)"><tspan x="0" y="0">3</tspan></text>
  <text class="cls-4" transform="translate(1047.96 74.11)"><tspan x="0" y="0">4</tspan></text>
  <path class="cls-21" d="m124.51,129.42l8.04,13.92c.39.67-.1,1.51-.87,1.51h-16.07c-.77,0-1.26-.84-.87-1.51l8.04-13.92c.39-.67,1.35-.67,1.74,0Z"/>
  <path class="cls-21" d="m357.88,129.42l8.04,13.92c.39.67-.1,1.51-.87,1.51h-16.07c-.77,0-1.26-.84-.87-1.51l8.04-13.92c.39-.67,1.35-.67,1.74,0Z"/>
  <path class="cls-22" d="m592.82,129.42l8.04,13.92c.39.67-.1,1.51-.87,1.51h-16.07c-.77,0-1.26-.84-.87-1.51l8.04-13.92c.39-.67,1.35-.67,1.74,0Z"/>
  <path class="cls-21" d="m826.26,129.42l8.04,13.92c.39.67-.1,1.51-.87,1.51h-16.07c-.77,0-1.26-.84-.87-1.51l8.04-13.92c.39-.67,1.35-.67,1.74,0Z"/>
  <path class="cls-21" d="m1060.33,129.42l8.04,13.92c.39.67-.1,1.51-.87,1.51h-16.07c-.77,0-1.26-.84-.87-1.51l8.04-13.92c.39-.67,1.35-.67,1.74,0Z"/>
  <path class="cls-22" d="m495.94,323.69c-1.41,1.01-4.68,5.07-5.53,6.66-1.4,2.63.5,5.55,2.9,3.67,3.54-2.76,7.03-5.24,11.05-7.29,1.65-.84,1.92-2.95.48-4.14-4.45-3.64-9.22-6.62-14.41-9.07-2.25-1.06-4.1,1.93-2.76,3.72,1.5,2,6.43,4.93,8.27,6.44"/>
  <line class="cls-8" x1="455.26" y1="323.97" x2="499.51" y2="323.97"/>
  <path class="cls-22" d="m461.91,397.94c1.41-1.01,4.68-5.07,5.53-6.66,1.4-2.63-.5-5.55-2.9-3.67-3.54,2.76-7.03,5.24-11.05,7.29-1.65.84-1.92,2.95-.48,4.14,4.45,3.64,9.22,6.62,14.41,9.07,2.25,1.06,4.1-1.93,2.76-3.72-1.5-2-6.43-4.93-8.27-6.44"/>
  <line class="cls-8" x1="502.59" y1="397.67" x2="458.34" y2="397.67"/>
  <path class="cls-22" d="m662.69,371.7c.4-1.69.92-6.9.52-8.66-.67-2.91-4.02-3.85-4.6-.86-.85,4.4-1.85,8.57-3.54,12.75-.69,1.71.49,3.49,2.36,3.43,5.75-.18,11.29-1.07,16.82-2.63,2.39-.67,1.83-4.15-.37-4.62-2.45-.52-8.09.51-10.46.58"/>
  <path class="cls-8" d="m670.26,322.08s32.19,23.82-11.23,51.17"/>
  <path class="cls-22" d="m662.31,438.46c.4-1.69.92-6.9.52-8.66-.67-2.91-4.02-3.85-4.6-.86-.85,4.4-1.85,8.57-3.54,12.75-.69,1.71.49,3.49,2.36,3.43,5.75-.18,11.29-1.07,16.82-2.63,2.39-.67,1.83-4.15-.37-4.62-2.45-.52-8.09.51-10.46.58"/>
  <path class="cls-8" d="m669.88,388.84s32.19,23.82-11.23,51.17"/>
</svg>