<?xml version="1.0" encoding="utf-8"?>
<!-- Generator: Adobe Illustrator 25.2.3, SVG Export Plug-In . SVG Version: 6.00 Build 0)  -->
<svg version="1.1" id="Layer_1" xmlns="http://www.w3.org/2000/svg" xmlns:xlink="http://www.w3.org/1999/xlink" x="0px" y="0px"
	 viewBox="0 0 1200 477.2" style="enable-background:new 0 0 1200 477.2;" xml:space="preserve">
<style type="text/css">
	.st0{fill:#F5F8FB;stroke:#F5F8FB;stroke-width:14.4;stroke-miterlimit:10;}
	.st1{fill:#9BBFDF;stroke:#9BBFDF;stroke-width:14.4;stroke-miterlimit:10;}
	.st2{fill:none;stroke:#70A2CF;stroke-width:14.4;stroke-miterlimit:10;}
	.st3{fill:#9BBFDF;}
	.st4{fill:#B2C7D9;stroke:#B2C7D9;stroke-width:0.71;stroke-miterlimit:10;}
	.st5{opacity:0.7;fill:#F7F7F7;stroke:#F7F7F7;stroke-miterlimit:10;enable-background:new    ;}
	.st6{font-family:'Helvetica';}
	.st7{font-size:41.61px;}
	.st8{letter-spacing:1;}
	.st9{fill:#374D5D;}
	.st10{font-size:22.41px;}
	.st11{font-size:22.5146px;}
	.st12{fill:none;stroke:#374D5D;stroke-width:0.75;stroke-miterlimit:10;}
	.st13{fill:none;stroke:#374D5D;stroke-width:0.4;stroke-miterlimit:10;}
	.st14{fill:#FFFFFF;stroke:#EFEFEF;stroke-width:0.65;stroke-miterlimit:10;}
	.st15{fill:#374D5D;stroke:#374D5D;stroke-width:0.75;stroke-miterlimit:10;}
	.st16{font-size:21.2604px;}
	.st17{fill:#B2C7D9;}
	.st18{fill:#70A2CF;}
	.st19{enable-background:new    ;}
	.st20{opacity:0.7;}
	.st21{fill:#F7F7F7;stroke:#F7F7F7;stroke-miterlimit:10;}
	.st22{fill:#F7F7F7;stroke:#F7F7F7;stroke-width:0.8;stroke-miterlimit:10;}
	.st23{font-size:19.21px;}
	.st24{fill:#9BBFDF;stroke:#9BBFDF;stroke-width:0.23;stroke-miterlimit:10;}
	.st25{fill:#70A2CF;stroke:#70A2CF;stroke-width:0.23;stroke-miterlimit:10;}
	.st26{font-size:22.8957px;}
	.st27{fill:#FFFFFF;stroke:#EFEFEF;stroke-width:0.6967;stroke-miterlimit:10;}
	.st28{fill:none;stroke:#B2C7D9;stroke-width:3.48;stroke-linecap:round;stroke-miterlimit:10;stroke-dasharray:4.8,8;}
	.st29{display:none;}
	.st30{display:inline;fill:#374D5D;}
</style>
<g id="Layer_1_1_">
	<path class="st0" d="M224.1,157.6v300.8c-0.1,1-0.9,1.7-1.8,1.7H21.1c-1,0-1.8-0.7-1.8-1.7V157.6H224.1z"/>
	<path class="st1" d="M224.1,151.2v-1.5c-0.1-0.9-0.9-1.7-1.8-1.6H21.1c-0.9-0.1-1.8,0.7-1.8,1.6v1.5H224.1L224.1,151.2z"/>
	<path class="st0" d="M458.5,157.6v300.8c-0.1,1-0.9,1.7-1.8,1.6H255.5c-1,0-1.8-0.7-1.8-1.7V157.6H458.5z"/>
	<path class="st1" d="M458.5,151.2v-1.5c-0.1-0.9-0.9-1.7-1.8-1.6H255.5c-0.9-0.1-1.8,0.7-1.8,1.6v1.5H458.5L458.5,151.2z"/>
	<path class="st0" d="M694.5,157.6v300.8c-0.1,1-0.9,1.7-1.8,1.7H491.5c-1,0-1.8-0.7-1.8-1.7V157.6H694.5z"/>
	<path class="st2" d="M694.5,151.2v-1.5c-0.1-0.9-0.9-1.7-1.8-1.6H491.5c-0.9-0.1-1.8,0.7-1.8,1.6v1.5H694.5L694.5,151.2z"/>
	<path class="st0" d="M929,157.6v300.8c-0.1,1-0.9,1.7-1.8,1.7H725.9c-1,0-1.8-0.7-1.8-1.7V157.6H929z"/>
	<path class="st1" d="M929,151.2v-1.5c-0.1-0.9-0.9-1.7-1.8-1.6H725.9c-0.9-0.1-1.8,0.7-1.8,1.6v1.5H929L929,151.2z"/>
	<path class="st0" d="M1164,157.6v300.8c-0.1,1-0.9,1.7-1.8,1.7H961c-1,0-1.8-0.7-1.8-1.7V157.6H1164z"/>
	<path class="st1" d="M1164,151.2v-1.5c-0.1-0.9-0.9-1.7-1.8-1.6H961c-0.9-0.1-1.8,0.7-1.8,1.6v1.5H1164L1164,151.2z"/>
	<path class="st3" d="M255,63.7l-38,57.4c-0.2,0.4-0.7,0.5-1.1,0.2c-0.2-0.1-0.3-0.4-0.3-0.6v-8.6c0-0.4-0.4-0.8-0.8-0.8l0,0H5.8
		c-0.4,0-0.8-0.3-0.8-0.8c0-0.2,0.1-0.4,0.2-0.5l31.2-46.3c0.2-0.3,0.2-0.6,0-0.9L5.1,16.5c-0.2-0.4-0.1-0.9,0.2-1.1
		c0.1-0.1,0.3-0.1,0.4-0.1h209c0.4,0,0.8-0.4,0.8-0.8l0,0V5.9c0.1-0.4,0.4-0.8,0.9-0.7c0.2,0,0.4,0.1,0.5,0.3l38,57.4
		C255.2,63.1,255.2,63.5,255,63.7z"/>
	<path class="st4" d="M132.1,357.3l-6.3,5.7l-0.6,0.6c-0.9,5.2-5.9,8.7-11.2,7.7c-5.2-0.9-8.7-5.9-7.7-11.2c0.7-4.1,4.1-7.3,8.2-7.8
		l0.3-0.3l2.5-2.8h0.1l3.4-3.7c-9-2.7-18.5,2.3-21.2,11.3c-2.7,9,2.3,18.5,11.3,21.2s18.5-2.3,21.2-11.3
		C133,363.7,133,360.4,132.1,357.3z"/>
	<path class="st4" d="M144.6,345.9l-5.7,5.1c6,12.8,0.5,28-12.3,34s-28,0.5-34-12.3s-0.5-28,12.3-34c7-3.3,15.1-3.2,22,0.1l5.2-5.6
		c-15.8-9-36-3.5-45,12.3s-3.5,36,12.3,45s36,3.5,45-12.3C150.1,368.2,150.1,355.9,144.6,345.9z"/>
	<path class="st4" d="M168,325.3c-0.1-0.4-0.3-0.7-0.6-1c-0.7-0.6-1.6-0.9-2.5-0.8h-3.8c-2,0-4,0-6,0h-0.3l-0.1-0.3l-0.3-0.1
		c0-0.1,0-0.2,0-0.3c0-2,0-4.1,0-6c0-1.3,0-2.6,0-3.8c0.1-0.9-0.2-1.8-0.8-2.5c-0.3-0.3-0.6-0.5-1-0.6c-1.2-0.4-2.5,0-3.3,1
		l-2.7,2.7c-2.1,2.1-4.2,4.2-6.2,6.4c-0.7,0.8-1.1,1.8-1.2,2.9c0,1.6,0,3.1,0,4.7s0,2.8,0,4.2c0,0.5-0.2,1-0.5,1.4
		c-3.5,3.9-7.1,7.8-10.6,11.6l-2.9,3.1l-6.4,7l0,0l-0.4,0.5l-0.9,1c-1,1.1-2.1,2.3-3.1,3.6c-0.6,1-0.4,2.4,0.5,3.2l0.1,0.1
		c0.8,0.8,2,0.9,3,0.3c1.3-1,2.6-2.2,3.7-3.2l0.9-0.8l10.6-9.7c3.8-3.5,7.7-7.1,11.6-10.6c0.4-0.3,0.9-0.5,1.4-0.5
		c1.4,0,2.9,0,4.2,0s3.1,0,4.7,0c1.1,0,2.1-0.5,2.9-1.2c2.2-2,4.3-4.2,6.4-6.2l2.7-2.7C168.1,327.9,168.5,326.5,168,325.3z"/>
	<text transform="matrix(1 0 0 1 115.77 74.44)" class="st5 st6 st7 st8">1</text>
	<path class="st3" d="M489.4,63.7l-38,57.4c-0.2,0.4-0.7,0.5-1.1,0.2c-0.2-0.1-0.3-0.4-0.3-0.6v-8.6c0-0.4-0.4-0.8-0.8-0.8h-209
		c-0.4,0-0.8-0.4-0.8-0.8c0-0.2,0-0.3,0.1-0.4l31.2-46.3c0.2-0.3,0.2-0.6,0-0.9l-31.2-46.3c-0.2-0.4-0.1-0.9,0.2-1.1
		c0.1-0.1,0.3-0.1,0.4-0.1h209c0.4,0,0.8-0.4,0.8-0.8V5.9c0-0.4,0.4-0.8,0.8-0.8c0.3,0,0.5,0.1,0.6,0.3l38,57.4
		C489.6,63.1,489.6,63.5,489.4,63.7z"/>
	<text transform="matrix(1 0 0 1 68.8 206.04)" class="st9 st6 st10">What</text>
	<text transform="matrix(1 0 0 1 121.09 206.04)" class="st9 st6 st10">’</text>
	<text transform="matrix(1 0 0 1 125.67 206.04)" class="st9 st6 st10">s the</text>
	<g>
		<text transform="matrix(1 0 0 1 93.28 231.65)" class="st9 st6 st11">goal</text>
		<text transform="matrix(1 0 0 1 93.28 231.65)" class="st12 st6 st11">goal</text>
	</g>
	<text transform="matrix(1 0 0 1 137.71 231.65)" class="st9 st6 st10">?</text>
	<text transform="matrix(1 0 0 1 267.1 206.04)" class="st9 st6 st10">Balance</text>
	<text transform="matrix(1 0 0 1 348.01 206.04)" class="st9 st6 st10"> </text>
	<g>
		<text transform="matrix(1 0 0 1 354.23 206.04)" class="st9 st6 st11">demand</text>
		<text transform="matrix(1 0 0 1 354.23 206.04)" class="st12 st6 st11">demand</text>
	</g>
	<text transform="matrix(1 0 0 1 438.88 206.04)" class="st9 st6 st10"> </text>
	<text transform="matrix(1 0 0 1 438.88 206.04)" class="st13 st6 st10"> </text>
	<text transform="matrix(1 0 0 1 299.65 231.65)" class="st9 st6 st10">and </text>
	<g>
		<text transform="matrix(1 0 0 1 343.66 231.65)" class="st9 st6 st11">supply</text>
		<text transform="matrix(1 0 0 1 343.66 231.65)" class="st12 st6 st11">supply</text>
	</g>
	<path class="st14" d="M279.1,302.8h152.1c0.6,0,1,0.4,1,1v46.4c0,0.6-0.4,1-1,1H279.1c-0.6,0-1-0.4-1-1v-46.4
		C278.1,303.2,278.5,302.8,279.1,302.8z"/>
	<g>
		<text transform="matrix(1 0 0 1 315.8 332.52)" class="st15 st6 st16">Demand</text>
	</g>
	<path class="st14" d="M279.1,376.8h152.1c0.6,0,1,0.4,1,1v46.4c0,0.6-0.4,1-1,1H279.1c-0.6,0-1-0.4-1-1v-46.4
		C278.1,377.2,278.5,376.8,279.1,376.8z"/>
	<g>
		<text transform="matrix(1 0 0 1 322.76 406.54)" class="st15 st6 st16">Supply</text>
	</g>
	<path class="st17" d="M287.4,325.4c-5.7,0.2-11.4,1-16.9,2.6c-2.4,0.7-1.9,4.2,0.4,4.6c2.4,0.5,4.8,0.7,7.2,0.7
		c-8.2,8.9-12.4,20.6-11.9,32.6c0.4,12.4,5.9,32.3,19.7,36c1.3,0.4,1.7-1.5,0.7-2.1c-11-6.7-15.9-22.8-15.9-35
		c-0.1-10.9,4.1-21.4,11.8-29.2c-0.4,1.7-0.7,3.4-0.9,5.2c-0.4,3,4,3.9,4.6,0.9c0.8-4.4,2-8.7,3.6-12.8c0.6-1.2,0-2.7-1.2-3.2
		C288.2,325.4,287.8,325.4,287.4,325.4z"/>
	<path class="st17" d="M422.6,401.9c5.7-0.2,11.4-1,16.9-2.6c2.4-0.7,1.9-4.2-0.4-4.6c-2.4-0.5-4.8-0.7-7.2-0.7
		c8.2-8.9,12.4-20.6,11.9-32.6c-0.4-12.4-5.9-32.3-19.7-36c-1.3-0.4-1.7,1.5-0.7,2.1c11,6.7,15.9,22.8,15.9,35
		c0.1,10.9-4.1,21.4-11.8,29.1c0.4-1.7,0.7-3.4,0.9-5.2c0.4-3-4-3.9-4.6-0.9c-0.8,4.4-2,8.7-3.6,12.8c-0.6,1.2-0.1,2.7,1.1,3.3
		C421.8,401.9,422.2,401.9,422.6,401.9z"/>
	<path class="st18" d="M725.3,63.7l-38,57.4c-0.2,0.4-0.7,0.5-1.1,0.2c-0.2-0.1-0.3-0.4-0.3-0.6v-8.6c0-0.4-0.4-0.8-0.8-0.8h-209
		c-0.4,0-0.8-0.4-0.8-0.8c0-0.2,0-0.3,0.1-0.4l31.2-46.3c0.2-0.3,0.2-0.6,0-0.9l-31.1-46.3c-0.2-0.4-0.1-0.9,0.2-1.1
		c0.1-0.1,0.3-0.1,0.4-0.1h209c0.4,0,0.8-0.4,0.8-0.8V5.9c0-0.4,0.4-0.8,0.8-0.8c0.3,0,0.5,0.1,0.6,0.3l38,57.4
		C725.6,63.1,725.5,63.5,725.3,63.7z"/>
	<text transform="matrix(1 0 0 1 497.42 206.04)" class="st19"><tspan x="0" y="0" class="st9 st6 st10">Make </tspan><tspan x="61" y="0" class="st15 st6 st11">assumptions</tspan></text>
	<text transform="matrix(1 0 0 1 514.44 231.65)" class="st9 st6 st10">about</text>
	<text transform="matrix(1 0 0 1 572.13 231.65)" class="st9 st6 st10"> </text>
	<text transform="matrix(1 0 0 1 578.36 231.65)" class="st9 st6 st11">flexibility</text>
	<text transform="matrix(1 0 0 1 490.3691 257.25)" class="st9 st6 st10">emissions and </text>
	<g>
		<text transform="matrix(1 0 0 1 639.8099 257.25)" class="st9 st6 st11">costs</text>
	</g>
	<path class="st3" d="M959.8,63.7l-38,57.4c-0.2,0.4-0.7,0.5-1.1,0.2c-0.2-0.1-0.3-0.4-0.3-0.6v-8.6c0-0.4-0.4-0.8-0.8-0.8h-209
		c-0.4,0-0.8-0.4-0.8-0.8c0-0.2,0-0.3,0.1-0.4l31.2-46.3c0.2-0.3,0.2-0.6,0-0.9L710,16.5c-0.2-0.4-0.1-0.9,0.2-1.1
		c0.1-0.1,0.3-0.1,0.4-0.1h209c0.4,0,0.8-0.4,0.8-0.8V5.9c0-0.4,0.4-0.8,0.8-0.8c0.3,0,0.5,0.1,0.6,0.3l38,57.4
		C960,63.1,960,63.5,959.8,63.7z"/>
	<path class="st3" d="M1194.9,63.7l-38,57.4c-0.2,0.4-0.7,0.5-1.1,0.2c-0.2-0.1-0.3-0.4-0.3-0.6v-8.6c0-0.4-0.4-0.8-0.8-0.8l0,0
		h-209c-0.4,0-0.8-0.4-0.8-0.8c0-0.2,0.1-0.3,0.2-0.5l31.2-46.3c0.2-0.3,0.2-0.6,0-0.9L945,16.5c-0.2-0.4-0.1-0.9,0.2-1.1
		c0.1-0.1,0.3-0.1,0.4-0.1h209c0.4,0,0.8-0.4,0.8-0.8l0,0V5.9c0-0.4,0.4-0.8,0.8-0.8c0.3,0,0.5,0.1,0.6,0.3l38,57.4
		C1195.1,63.1,1195.1,63.5,1194.9,63.7z"/>
	<g>
		<text transform="matrix(1 0 0 1 971.56 212.02)" class="st9 st6 st11">Save </text>
		<text transform="matrix(1 0 0 1 971.56 212.02)" class="st12 st6 st11">Save </text>
	</g>
	<text transform="matrix(1 0 0 1 1028.85 212.02)" class="st9 st6 st10">the scenario</text>
	<text transform="matrix(1 0 0 1 1002.04 237.63)" class="st9 st6 st10">and </text>
	<g>
		<text transform="matrix(1 0 0 1 1047.8258 237.63)" class="st9 st6 st11">share</text>
		<text transform="matrix(1 0 0 1 1047.8258 237.63)" class="st12 st6 st11">share</text>
	</g>
	<text transform="matrix(1 0 0 1 1109.16 237.63)" class="st9 st6 st10">it</text>
	<text transform="matrix(1 0 0 1 1006.23 263.23)" class="st9 st6 st10">with others</text>
	<path class="st17" d="M1096.7,350.1l-21.4-17.9c-0.8-0.6-1.9-0.5-2.5,0.2c-0.3,0.3-0.4,0.7-0.4,1.1v9.3c-17.9,4-28.6,15.2-28.6,30
		c0,1,0.8,1.8,1.8,1.8c0.8,0,1.4-0.5,1.7-1.2c3-9.1,15-12.7,25.1-13v8.9c0,1,0.8,1.8,1.8,1.8c0.4,0,0.8-0.1,1.1-0.4l21.4-17.9
		c0.8-0.6,0.9-1.8,0.2-2.5C1096.9,350.3,1096.8,350.3,1096.7,350.1L1096.7,350.1L1096.7,350.1z"/>
	<path class="st17" d="M1090.2,374.8c-2,0-3.6,1.6-3.6,3.6l0,0l0,0v10.7H1033v-46.5h14.3c2,0.1,3.7-1.4,3.8-3.4
		c0.1-2-1.4-3.7-3.4-3.8c-0.1,0-0.3,0-0.4,0h-17.9c-2,0-3.6,1.6-3.6,3.6l0,0l0,0v53.6c0,2,1.6,3.6,3.6,3.6l0,0h60.8
		c2,0,3.6-1.6,3.6-3.6l0,0l0,0v-14.3C1093.8,376.4,1092.2,374.8,1090.2,374.8L1090.2,374.8L1090.2,374.8L1090.2,374.8z"/>
	<g class="st20">
		<text transform="matrix(1 0 0 1 344.54 74.44)" class="st21 st6 st7 st8">2</text>
	</g>
	<text transform="matrix(1 0 0 1 545.6216 68.8898)" class="st22 st6 st23">OPTIONAL</text>
	<g class="st20">
		<text transform="matrix(1 0 0 1 814.97 74.44)" class="st21 st6 st7 st8">3</text>
	</g>
	<g class="st20">
		<text transform="matrix(1 0 0 1 1050.05 74.44)" class="st21 st6 st7 st8">4</text>
	</g>
	<path class="st24" d="M122.6,127l8.1,14c0.3,0.5,0.1,1.1-0.4,1.4c-0.2,0.1-0.3,0.1-0.5,0.1h-16.2c-0.6,0-1-0.4-1-1
		c0-0.2,0-0.4,0.1-0.5l8.1-14c0.3-0.5,0.9-0.6,1.4-0.4C122.4,126.7,122.5,126.8,122.6,127z"/>
	<path class="st24" d="M357,127l8.1,14c0.3,0.5,0.1,1.1-0.4,1.4c-0.2,0.1-0.3,0.1-0.5,0.1H348c-0.6,0-1-0.4-1-1c0-0.2,0-0.4,0.1-0.5
		l8.1-14c0.2-0.5,0.8-0.7,1.3-0.4C356.7,126.6,356.9,126.8,357,127z"/>
	<path class="st25" d="M592.9,127l8.1,14c0.3,0.5,0.1,1.1-0.4,1.4c-0.2,0.1-0.3,0.1-0.5,0.1H584c-0.6,0-1-0.4-1-1
		c0-0.2,0-0.4,0.1-0.5l8.1-14c0.3-0.5,0.9-0.6,1.4-0.4C592.7,126.7,592.9,126.8,592.9,127z"/>
	<path class="st24" d="M827.4,127l8.1,14c0.3,0.5,0.1,1.1-0.4,1.4c-0.2,0.1-0.3,0.1-0.5,0.1h-16.2c-0.6,0-1-0.4-1-1
		c0-0.2,0-0.4,0.1-0.5l8.1-14c0.3-0.5,0.9-0.6,1.4-0.4C827.2,126.7,827.3,126.8,827.4,127z"/>
	<path class="st24" d="M1062.5,127l8.1,14c0.3,0.5,0.1,1.1-0.4,1.4c-0.2,0.1-0.3,0.1-0.5,0.1h-16.2c-0.6,0-1-0.4-1-1
		c0-0.2,0-0.4,0.1-0.5l8.1-14c0.3-0.5,0.9-0.6,1.4-0.4C1062.3,126.7,1062.4,126.8,1062.5,127z"/>
	<g>
		<text transform="matrix(1 0 0 1 780.3271 210.852)" class="st9 st6 st26">Check the</text>
	</g>
	<path class="st27" d="M916.8,397.9H748.2c-1.1,0-2.2-0.8-2.2-2v-45.6c0-1,1.1-2,2.2-2h168.6c1.3,0,2.2,1,2.2,2v45.6
		C919,397.1,917.9,397.9,916.8,397.9z"/>
	<g>
		<text transform="matrix(1 0 0 1 756.501 379.2164)" class="st15 st6 st16">Results &amp; Data</text>
	</g>
	<g>
		<g>
			<g>
				<text transform="matrix(1 0 0 1 799.2207 237.7661)" class="st9 st6 st11">results</text>
				<text transform="matrix(1 0 0 1 799.2207 237.7661)" class="st12 st6 st11">results</text>
			</g>
			<text transform="matrix(1 0 0 1 800.0207 264.7661)" class="st9 st6 st11">&amp; data</text>
			<text transform="matrix(1 0 0 1 800.0207 264.7661)" class="st12 st6 st11">&amp; data</text>
		</g>
	</g>
	<path class="st14" d="M515.8,281.6h152.1c0.6,0,1,0.4,1,1V329c0,0.6-0.4,1-1,1H515.8c-0.6,0-1-0.4-1-1v-46.4
		C514.8,282,515.3,281.6,515.8,281.6z"/>
	<g>
		<text transform="matrix(1 0 0 1 547.7582 311.3159)" class="st15 st6 st16">Flexibility</text>
	</g>
	<path class="st14" d="M515.8,403.8h152.1c0.6,0,1,0.4,1,1v46.4c0,0.6-0.4,1-1,1H515.8c-0.6,0-1-0.4-1-1v-46.4
		C514.8,404.2,515.3,403.8,515.8,403.8z"/>
	<g>
		<text transform="matrix(1 0 0 1 563.1082 433.5359)" class="st15 st6 st16">Costs</text>
	</g>
	<path class="st14" d="M515.8,342.7h152.1c0.6,0,1,0.4,1,1v46.4c0,0.6-0.4,1-1,1H515.8c-0.6,0-1-0.4-1-1v-46.4
		C514.8,343.1,515.3,342.7,515.8,342.7z"/>
	<g>
		<text transform="matrix(1 0 0 1 543.0652 372.4359)" class="st15 st6 st16">Emissions</text>
	</g>
	<path class="st17" d="M658.1,343.9c-2-2.2-4.2-4-6.7-5.5c-2.6-1.4-5.6,0.5-3.7,2.9c2.8,3.4,5.2,7.2,7.3,11.1c0.6,1.2,2,1.8,3.2,1.2
		c0.4-0.2,0.7-0.4,0.9-0.7c3.6-4.4,6.7-9.3,9.1-14.5c1.1-2.3-1.9-4.1-3.7-2.8C662.6,337.2,659.6,342.1,658.1,343.9"/>
	<line class="st28" x1="657.8" y1="322.8" x2="657.8" y2="347.5"/>
	<path class="st17" d="M658.1,404.5c-2-2.2-4.2-4-6.7-5.5c-2.6-1.4-5.6,0.5-3.7,2.9c2.8,3.4,5.2,7.2,7.3,11.1c0.6,1.2,2,1.8,3.2,1.2
		c0.4-0.2,0.7-0.4,0.9-0.7c3.6-4.4,6.7-9.3,9.1-14.5c1.1-2.3-1.9-4.1-3.7-2.8C662.6,397.8,659.6,402.7,658.1,404.5"/>
	<line class="st28" x1="657.8" y1="383.5" x2="657.8" y2="408.1"/>
	<g>
		<path class="st17" d="M487.4,328.1c-2.2,2-4,4.2-5.5,6.7c-1.4,2.6,0.5,5.6,2.9,3.7c3.4-2.8,7.2-5.2,11.1-7.3
			c1.2-0.6,1.8-2,1.2-3.2c-0.2-0.4-0.4-0.7-0.7-0.9c-4.4-3.6-9.3-6.7-14.5-9.1c-2.3-1.1-4.1,1.9-2.8,3.7
			C480.6,323.7,485.6,326.7,487.4,328.1"/>
		<line class="st28" x1="452.8" y1="328.5" x2="484.2" y2="328.5"/>
	</g>
	<g>
		<path class="st17" d="M462.8,405.3c2.2-2,4-4.2,5.5-6.7c1.4-2.6-0.5-5.6-2.9-3.7c-3.4,2.8-7.2,5.2-11.1,7.3
			c-1.2,0.6-1.8,2-1.2,3.2c0.2,0.4,0.4,0.7,0.7,0.9c4.4,3.6,9.3,6.7,14.5,9.1c2.3,1.1,4.1-1.9,2.8-3.7
			C469.6,409.7,464.6,406.7,462.8,405.3"/>
		<line class="st28" x1="497.4" y1="405" x2="466" y2="405"/>
	</g>
</g>
<g id="Layer_2_1_" class="st29">
	<rect x="93.9" y="-75.4" class="st30" width="349.9" height="369.7"/>
</g>
</svg>
