<?xml version="1.0" encoding="utf-8"?>
<!-- Generator: Adobe Illustrator 25.2.3, SVG Export Plug-In . SVG Version: 6.00 Build 0)  -->
<svg version="1.1" id="Layer_1" xmlns="http://www.w3.org/2000/svg" xmlns:xlink="http://www.w3.org/1999/xlink" x="0px" y="0px"
	 viewBox="0 0 1200 477.2" style="enable-background:new 0 0 1200 477.2;" xml:space="preserve">
<style type="text/css">
	.st0{fill:#F5F8FB;stroke:#F5F8FB;stroke-width:14.4;stroke-miterlimit:10;}
	.st1{fill:#9BBFDF;stroke:#9BBFDF;stroke-width:14.4;stroke-miterlimit:10;}
	.st2{fill:none;stroke:#70A2CF;stroke-width:14.4;stroke-miterlimit:10;}
	.st3{fill:#9BBFDF;}
	.st4{fill:#B2C7D9;stroke:#B2C7D9;stroke-width:0.71;stroke-miterlimit:10;}
	.st5{fill:#374D5D;}
	.st6{font-family:'Helvetica';}
	.st7{font-size:22.41px;}
	.st8{fill:#374D5D;stroke:#374D5D;stroke-width:0.75;stroke-miterlimit:10;}
	.st9{font-size:22.5146px;}
	.st10{fill:none;stroke:#374D5D;stroke-width:0.39;stroke-miterlimit:10;}
	.st11{fill:#FFFFFF;stroke:#EFEFEF;stroke-width:0.65;stroke-miterlimit:10;}
	.st12{font-size:21.2604px;}
	.st13{fill:#B2C7D9;}
	.st14{fill:#70A2CF;}
	.st15{enable-background:new    ;}
	.st16{fill:#9BBFDF;stroke:#9BBFDF;stroke-width:0.23;stroke-miterlimit:10;}
	.st17{fill:#70A2CF;stroke:#70A2CF;stroke-width:0.23;stroke-miterlimit:10;}
	.st18{fill:none;stroke:#B2C7D9;stroke-width:3.48;stroke-linecap:round;stroke-miterlimit:10;stroke-dasharray:4.8,8;}
	.st19{fill:#FFFFFF;stroke:#EFEFEF;stroke-width:0.7548;stroke-miterlimit:10;}
	.st20{opacity:0.7;fill:#F7F7F7;stroke:#F7F7F7;stroke-miterlimit:10;enable-background:new    ;}
	.st21{font-size:41.61px;}
	.st22{letter-spacing:1;}
	.st23{opacity:0.7;}
	.st24{fill:#F7F7F7;stroke:#F7F7F7;stroke-miterlimit:10;}
	.st25{fill:#F7F7F7;stroke:#F7F7F7;stroke-width:0.8;stroke-miterlimit:10;}
	.st26{font-size:19.21px;}
</style>
<path class="st0" d="M224.1,158.1v300.8c-0.1,1-0.9,1.7-1.8,1.7H21.1c-1,0-1.8-0.7-1.8-1.7V158.1H224.1z"/>
<path class="st1" d="M224.1,151.7v-1.5c-0.1-0.9-0.9-1.7-1.8-1.6H21.1c-0.9-0.1-1.8,0.7-1.8,1.6v1.5H224.1z"/>
<path class="st0" d="M458.5,158.1v300.8c-0.1,1-0.9,1.7-1.8,1.7H255.5c-1,0-1.8-0.7-1.8-1.7V158.1H458.5z"/>
<path class="st1" d="M458.5,151.7v-1.5c-0.1-0.9-0.9-1.7-1.8-1.6H255.5c-0.9-0.1-1.8,0.7-1.8,1.6v1.5H458.5z"/>
<path class="st0" d="M694.5,158.1v300.8c-0.1,1-0.9,1.7-1.8,1.7H491.5c-1,0-1.8-0.7-1.8-1.7V158.1H694.5z"/>
<path class="st2" d="M694.5,151.7v-1.5c-0.1-0.9-0.9-1.7-1.8-1.6H491.5c-0.9-0.1-1.8,0.7-1.8,1.6v1.5H694.5z"/>
<path class="st0" d="M929,158.1v300.8c-0.1,1-0.9,1.7-1.8,1.7H725.9c-1,0-1.8-0.7-1.8-1.7V158.1H929z"/>
<path class="st1" d="M929,151.7v-1.5c-0.1-0.9-0.9-1.7-1.8-1.6H725.9c-0.9-0.1-1.8,0.7-1.8,1.6v1.5H929z"/>
<path class="st0" d="M1164,158.1v300.8c-0.1,1-0.9,1.7-1.8,1.7H961c-1,0-1.8-0.7-1.8-1.7V158.1H1164z"/>
<path class="st1" d="M1164,151.7v-1.5c-0.1-0.9-0.9-1.7-1.8-1.6H961c-0.9-0.1-1.8,0.7-1.8,1.6v1.5H1164z"/>
<path class="st3" d="M255,64.2l-38,57.4c-0.2,0.4-0.7,0.5-1.1,0.2c-0.2-0.1-0.3-0.4-0.3-0.6v-8.6c0-0.4-0.4-0.8-0.8-0.8l0,0H5.8
	c-0.4,0-0.8-0.4-0.8-0.8c0-0.2,0-0.3,0.1-0.4l31.2-46.3c0.2-0.3,0.2-0.6,0-0.9L5.1,17c-0.2-0.4-0.1-0.9,0.2-1.1
	c0.1-0.1,0.3-0.1,0.4-0.1h209c0.4,0,0.8-0.4,0.8-0.8l0,0V6.4c0.1-0.4,0.5-0.7,0.9-0.7c0.2,0,0.4,0.1,0.5,0.3l38,57.4
	C255.2,63.6,255.2,64,255,64.2z"/>
<path class="st4" d="M132.1,357.8l-6.3,5.8l-0.6,0.6c-0.9,5.2-5.9,8.7-11.2,7.7c-5.2-0.9-8.7-5.9-7.7-11.2c0.7-4.1,4.1-7.3,8.2-7.8
	l0.3-0.3l2.5-2.8h0.1l3.4-3.7c-9-2.7-18.5,2.3-21.2,11.3c-2.7,9,2.3,18.5,11.3,21.2s18.5-2.3,21.2-11.3
	C133,364.2,133,360.9,132.1,357.8z"/>
<path class="st4" d="M144.6,346.4l-5.7,5.2c6,12.8,0.5,28-12.3,34s-28,0.5-34-12.3s-0.5-28,12.3-34c7-3.3,15.1-3.2,22,0.1l5.2-5.6
	c-15.8-9-36-3.5-45,12.3s-3.5,36,12.3,45s36,3.5,45-12.3C150.1,368.7,150.2,356.4,144.6,346.4z"/>
<path class="st4" d="M168,325.8c-0.1-0.4-0.3-0.7-0.6-1c-0.7-0.6-1.6-0.9-2.5-0.8h-3.8c-2,0-4,0-6,0h-0.3l-0.1-0.3l-0.3-0.1
	c0-0.1,0-0.2,0-0.3c0-2,0-4.1,0-6c0-1.3,0-2.6,0-3.8c0.1-0.9-0.2-1.8-0.8-2.5c-0.3-0.3-0.6-0.5-1-0.6c-1.2-0.4-2.5,0-3.3,1l-2.7,2.7
	c-2.1,2.1-4.2,4.2-6.2,6.4c-0.7,0.8-1.1,1.8-1.2,2.9c0,1.6,0,3.1,0,4.7s0,2.8,0,4.2c0,0.5-0.2,1-0.5,1.4c-3.5,3.9-7.1,7.8-10.6,11.6
	l-2.9,3.1l-6.4,7l0,0l-0.4,0.5l-0.9,1c-1,1.1-2.1,2.3-3.1,3.6c-0.6,1-0.4,2.4,0.5,3.2l0.1,0.1c0.8,0.8,2,0.9,3,0.3
	c1.3-1,2.6-2.2,3.7-3.2l0.9-0.8l10.6-9.7c3.8-3.5,7.7-7.1,11.6-10.6c0.4-0.3,0.9-0.5,1.4-0.5c1.4,0,2.9,0,4.2,0s3.1,0,4.7,0
	c1.1,0,2.1-0.5,2.9-1.2c2.2-2,4.3-4.2,6.4-6.2l2.7-2.8C168,328.2,168.4,326.9,168,325.8z"/>
<path class="st3" d="M489.4,64.2l-38,57.4c-0.2,0.4-0.7,0.5-1.1,0.2c-0.2-0.1-0.3-0.4-0.3-0.6v-8.6c0-0.4-0.4-0.8-0.8-0.8h-209
	c-0.4,0-0.8-0.4-0.8-0.8c0-0.2,0-0.3,0.1-0.4l31.2-46.3c0.2-0.3,0.2-0.6,0-0.9L239.5,17c-0.2-0.4-0.1-0.9,0.2-1.1
	c0.1-0.1,0.3-0.1,0.4-0.1h209c0.4,0,0.8-0.4,0.8-0.8V6.4c0.1-0.4,0.5-0.7,0.9-0.7c0.2,0,0.4,0.1,0.5,0.3l38,57.4
	C489.5,63.6,489.5,64,489.4,64.2z"/>
<text transform="matrix(1 0 0 1 70.5 206.54)" class="st5 st6 st7">Stel jezelf </text>
<text transform="matrix(1 0 0 1 77.93 232.15)" class="st5 st6 st7">een </text>
<g>
	<g>
		<text transform="matrix(1 0 0 1 120.68 232.15)" class="st8 st6 st9">doel</text>
		<text transform="matrix(1 0 0 1 120.68 232.15)" class="st8 st6 st9">doel</text>
	</g>
</g>
<g>
	<text transform="matrix(1 0 0 1 270.82 206.54)" class="st5 st6 st9">Balanceer</text>
	<g>
		<text transform="matrix(1 0 0 1 270.82 206.54)" class="st8 st6 st9">Balanceer</text>
	</g>
</g>
<text transform="matrix(1 0 0 1 371.22 206.54)" class="st5 st6 st7"> </text>
<text transform="matrix(1 0 0 1 377.44 206.54)" class="st5 st6 st7">vraag</text>
<text transform="matrix(1 0 0 1 435.16 206.54)" class="st5 st6 st7"> </text>
<text transform="matrix(1 0 0 1 435.16 206.54)" class="st10 st6 st7"> </text>
<text transform="matrix(1 0 0 1 301.53 232.15)" class="st5 st6 st7">en </text>
<text transform="matrix(1 0 0 1 332.24 232.15)" class="st5 st6 st7">aanbod</text>
<path class="st11" d="M279.1,303.2h152.1c0.6,0,1,0.4,1,1v46.4c0,0.6-0.4,1-1,1H279.1c-0.6,0-1-0.4-1-1v-46.4
	C278.1,303.7,278.5,303.2,279.1,303.2z"/>
<g>
	<text transform="matrix(1 0 0 1 325.9243 333.01)" class="st8 st6 st12">Vraag</text>
</g>
<path class="st11" d="M279.1,377.3h152.1c0.6,0,1,0.4,1,1v46.4c0,0.6-0.4,1-1,1H279.1c-0.6,0-1-0.4-1-1v-46.4
	C278.1,377.7,278.5,377.3,279.1,377.3z"/>
<g>
	<text transform="matrix(1 0 0 1 316.7 407.03)" class="st8 st6 st12">Aanbod</text>
</g>
<path class="st13" d="M287.4,325.9c-5.7,0.2-11.4,1-16.9,2.6c-2.4,0.7-1.9,4.2,0.4,4.6c2.4,0.5,4.8,0.7,7.2,0.7
	c-8.2,8.9-12.4,20.6-11.9,32.6c0.4,12.4,5.9,32.3,19.7,36c1.3,0.4,1.7-1.5,0.7-2.1c-11-6.7-15.9-22.8-15.9-35
	c-0.1-10.9,4.1-21.4,11.8-29.1c-0.4,1.7-0.7,3.4-0.9,5.2c-0.4,3,4,3.9,4.6,0.9c0.8-4.4,2-8.7,3.6-12.8c0.6-1.2,0.1-2.7-1.1-3.3
	C288.3,325.9,287.8,325.9,287.4,325.9z"/>
<path class="st13" d="M422.6,402.4c5.7-0.2,11.4-1,16.9-2.6c2.4-0.7,1.9-4.2-0.4-4.6c-2.4-0.5-4.8-0.7-7.2-0.7
	c8.2-8.9,12.4-20.6,11.9-32.6c-0.4-12.4-5.9-32.3-19.7-36c-1.3-0.4-1.7,1.5-0.7,2.1c11,6.7,15.9,22.8,15.9,35
	c0.1,10.9-4.1,21.4-11.8,29.1c0.4-1.7,0.7-3.4,0.9-5.2c0.4-3-4-3.9-4.6-0.9c-0.8,4.4-2,8.7-3.6,12.8c-0.6,1.2-0.1,2.7,1.1,3.3
	C421.8,402.4,422.2,402.4,422.6,402.4z"/>
<path class="st14" d="M725.3,64.2l-38,57.4c-0.2,0.4-0.7,0.5-1.1,0.2c-0.2-0.1-0.3-0.4-0.3-0.6v-8.6c0-0.4-0.4-0.8-0.8-0.8h-209
	c-0.4,0-0.8-0.4-0.8-0.8c0-0.2,0-0.3,0.1-0.4l31.2-46.3c0.2-0.3,0.2-0.6,0-0.9L475.5,17c-0.2-0.4-0.1-0.9,0.2-1.1
	c0.1-0.1,0.3-0.1,0.4-0.1h209c0.4,0,0.8-0.4,0.8-0.8V6.4c0.1-0.4,0.5-0.7,0.9-0.7c0.2,0,0.4,0.1,0.5,0.3l38,57.4
	C725.5,63.6,725.5,64,725.3,64.2z"/>
<text transform="matrix(1 0 0 1 509.67 206.54)" class="st15"><tspan x="0" y="0" class="st5 st6 st7">Maak </tspan><tspan x="61" y="0" class="st8 st6 st9">aannames</tspan></text>
<text transform="matrix(1 0 0 1 514.67 232.15)" class="st5 st6 st7">over</text>
<text transform="matrix(1 0 0 1 558.23 232.15)" class="st5 st6 st7"> </text>
<g>
	<g>
		<text transform="matrix(1 0 0 1 564.45 232.15)" class="st5 st6 st7">flexibiliteit</text>
		<text transform="matrix(1 0 0 1 564.45 232.15)" class="st5 st6 st7">flexibiliteit</text>
	</g>
</g>
<text transform="matrix(1 0 0 1 665.7548 232.1496)" class="st5 st6 st7">,</text>
<g>
	<text transform="matrix(1 0 0 1 499.1999 257.9637)" class="st5 st6 st9">emissies en kosten</text>
</g>
<path class="st3" d="M959.8,64.2l-38,57.4c-0.2,0.4-0.7,0.5-1.1,0.2c-0.2-0.1-0.3-0.4-0.3-0.6v-8.6c0-0.4-0.4-0.8-0.8-0.8h-209
	c-0.4,0-0.8-0.4-0.8-0.8c0-0.2,0-0.3,0.1-0.4l31.2-46.3c0.2-0.3,0.2-0.6,0-0.9L709.9,17c-0.2-0.4-0.1-0.9,0.2-1.1
	c0.1-0.1,0.3-0.1,0.4-0.1h209c0.4,0,0.8-0.4,0.8-0.8V6.4c0.1-0.4,0.5-0.7,0.9-0.7c0.2,0,0.4,0.1,0.5,0.3l38,57.4
	C960,63.6,960,64,959.8,64.2z"/>
<path class="st3" d="M1194.9,64.2l-38,57.4c-0.2,0.4-0.7,0.5-1.1,0.2c-0.2-0.1-0.3-0.4-0.3-0.6v-8.6c0-0.4-0.4-0.8-0.8-0.8l0,0h-209
	c-0.4,0-0.8-0.4-0.8-0.8c0-0.2,0-0.3,0.1-0.4l31.2-46.3c0.2-0.3,0.2-0.6,0-0.9L945,17c-0.2-0.4-0.1-0.9,0.2-1.1
	c0.1-0.1,0.3-0.1,0.4-0.1h209c0.4,0,0.8-0.4,0.8-0.8l0,0V6.4c0-0.4,0.4-0.8,0.9-0.7c0.2,0,0.4,0.1,0.6,0.3l38,57.4
	C1195.1,63.6,1195,64,1194.9,64.2z"/>
<text transform="matrix(1 0 0 1 981.32 211.52)" class="st5 st6 st7">Sla het scenario</text>
<text transform="matrix(1 0 0 1 989.17 237.13)" class="st5 st6 st7">op en </text>
<g>
	<g>
		<text transform="matrix(1 0 0 1 1052.27 237.13)" class="st8 st6 st9">deel </text>
		<text transform="matrix(1 0 0 1 1052.27 237.13)" class="st8 st6 st9">deel </text>
	</g>
</g>
<text transform="matrix(1 0 0 1 1102.5 237.13)" class="st5 st6 st7">het</text>
<text transform="matrix(1 0 0 1 998.72 262.73)" class="st5 st6 st7">met ande</text>
<text transform="matrix(1 0 0 1 1092.96 262.73)" class="st5 st6 st7">r</text>
<text transform="matrix(1 0 0 1 1100.01 262.73)" class="st5 st6 st7">en</text>
<path class="st13" d="M1096.7,349.6l-21.4-17.9c-0.8-0.6-1.9-0.5-2.5,0.2c-0.3,0.3-0.4,0.7-0.4,1.1v9.3c-17.9,4-28.6,15.2-28.6,30
	c0,1,0.8,1.8,1.8,1.8c0.8,0,1.4-0.5,1.7-1.2c3-9.1,15-12.7,25.1-13v8.9c0,1,0.8,1.8,1.8,1.8c0.4,0,0.8-0.1,1.1-0.4l21.4-17.9
	c0.8-0.6,0.9-1.8,0.2-2.5C1096.9,349.8,1096.8,349.7,1096.7,349.6L1096.7,349.6L1096.7,349.6z"/>
<path class="st13" d="M1090.2,374.3c-2,0-3.6,1.6-3.6,3.6l0,0l0,0v10.7H1033v-46.5h14.3c2,0.1,3.7-1.4,3.8-3.4
	c0.1-2-1.4-3.7-3.4-3.8c-0.1,0-0.3,0-0.4,0h-17.9c-2,0-3.6,1.6-3.6,3.6l0,0l0,0v53.6c0,2,1.6,3.6,3.6,3.6l0,0h60.8
	c2,0,3.6-1.6,3.6-3.6l0,0l0,0v-14.3C1093.8,375.9,1092.2,374.3,1090.2,374.3L1090.2,374.3L1090.2,374.3L1090.2,374.3z"/>
<path class="st11" d="M516,279h152.1c0.6,0,1,0.4,1,1v46.4c0,0.6-0.4,1-1,1H516c-0.6,0-1-0.4-1-1V280C515,279.4,515.5,279,516,279z"
	/>
<g>
	<text transform="matrix(1 0 0 1 538.96 308.71)" class="st8 st6 st12">Flexibiliteit</text>
</g>
<path class="st11" d="M516,401.2h152.1c0.6,0,1,0.4,1,1v46.4c0,0.6-0.4,1-1,1H516c-0.6,0-1-0.4-1-1v-46.4
	C515,401.6,515.5,401.2,516,401.2z"/>
<g>
	<text transform="matrix(1 0 0 1 555.31 430.93)" class="st8 st6 st12">Kosten</text>
</g>
<path class="st11" d="M516,340.1h152.1c0.6,0,1,0.4,1,1v46.4c0,0.6-0.4,1-1,1H516c-0.6,0-1-0.4-1-1v-46.4
	C515,340.5,515.5,340.1,516,340.1z"/>
<g>
	<text transform="matrix(1 0 0 1 546.267 369.83)" class="st8 st6 st12">Emissies</text>
</g>
<path class="st16" d="M122.6,127.5l8.1,14c0.3,0.5,0.1,1.1-0.4,1.4c-0.2,0.1-0.3,0.1-0.5,0.1h-16.2c-0.6,0-1-0.4-1-1
	c0-0.2,0-0.4,0.1-0.5l8.1-14c0.3-0.5,0.9-0.6,1.4-0.4C122.4,127.2,122.5,127.3,122.6,127.5z"/>
<path class="st16" d="M357,127.5l8.1,14c0.3,0.5,0.1,1.1-0.4,1.4c-0.2,0.1-0.3,0.1-0.5,0.1H348c-0.6,0-1-0.4-1-1
	c0-0.2,0-0.4,0.1-0.5l8.1-14c0.2-0.5,0.8-0.7,1.3-0.4C356.7,127.1,356.9,127.3,357,127.5z"/>
<path class="st17" d="M592.9,127.5l8.1,14c0.3,0.5,0.1,1.1-0.4,1.4c-0.2,0.1-0.3,0.1-0.5,0.1H584c-0.6,0-1-0.4-1-1
	c0-0.2,0-0.4,0.1-0.5l8.1-14c0.3-0.5,0.9-0.6,1.4-0.3C592.7,127.2,592.8,127.3,592.9,127.5z"/>
<path class="st16" d="M827.4,127.5l8.1,14c0.3,0.5,0.1,1.1-0.4,1.4c-0.2,0.1-0.3,0.1-0.5,0.1h-16.2c-0.6,0-1-0.4-1-1
	c0-0.2,0-0.4,0.1-0.5l8.1-14c0.3-0.5,0.9-0.6,1.4-0.4C827.2,127.2,827.3,127.3,827.4,127.5z"/>
<path class="st16" d="M1062.5,127.5l8.1,14c0.3,0.5,0.1,1.1-0.4,1.4c-0.2,0.1-0.3,0.1-0.5,0.1h-16.2c-0.6,0-1-0.4-1-1
	c0-0.2,0-0.4,0.1-0.5l8.1-14c0.3-0.5,0.9-0.6,1.4-0.4C1062.3,127.2,1062.4,127.3,1062.5,127.5z"/>
<path class="st13" d="M658.3,341.3c-2-2.2-4.2-4-6.7-5.5c-2.6-1.4-5.6,0.5-3.7,2.9c2.8,3.4,5.2,7.2,7.3,11.1c0.6,1.2,2,1.8,3.2,1.2
	c0.4-0.2,0.7-0.4,0.9-0.7c3.6-4.4,6.7-9.3,9.1-14.5c1.1-2.3-1.9-4.1-3.7-2.8C662.8,334.6,659.8,339.5,658.3,341.3"/>
<line class="st18" x1="658" y1="320.2" x2="658" y2="344.9"/>
<path class="st13" d="M658.3,401.9c-2-2.2-4.2-4-6.7-5.5c-2.6-1.4-5.6,0.5-3.7,2.9c2.8,3.4,5.2,7.2,7.3,11.1c0.6,1.2,2,1.8,3.2,1.2
	c0.4-0.2,0.7-0.4,0.9-0.7c3.6-4.4,6.7-9.3,9.1-14.5c1.1-2.3-1.9-4.1-3.7-2.8C662.8,395.2,659.8,400.1,658.3,401.9"/>
<line class="st18" x1="658" y1="380.9" x2="658" y2="405.5"/>
<g>
	<path class="st13" d="M487.6,325.5c-2.2,2-4,4.2-5.5,6.7c-1.4,2.6,0.5,5.6,2.9,3.7c3.4-2.8,7.2-5.2,11.1-7.3c1.2-0.6,1.8-2,1.2-3.2
		c-0.2-0.4-0.4-0.7-0.7-0.9c-4.4-3.6-9.3-6.7-14.5-9.1c-2.3-1.1-4.1,1.9-2.8,3.7C480.8,321.1,485.8,324.1,487.6,325.5"/>
	<line class="st18" x1="453" y1="325.8" x2="484.4" y2="325.8"/>
</g>
<g>
	<path class="st13" d="M463,402.7c2.2-2,4-4.2,5.5-6.7c1.4-2.6-0.5-5.6-2.9-3.7c-3.4,2.8-7.2,5.2-11.1,7.3c-1.2,0.6-1.8,2-1.2,3.2
		c0.2,0.4,0.4,0.7,0.7,0.9c4.4,3.6,9.3,6.7,14.5,9.1c2.3,1.1,4.1-1.9,2.8-3.7C469.8,407.1,464.8,404.1,463,402.7"/>
	<line class="st18" x1="497.6" y1="402.4" x2="466.2" y2="402.4"/>
</g>
<g>
	<g>
		<text transform="matrix(1 0 0 1 779.2923 210.7584)" class="st5 st6 st9">Bekijk de</text>
		<text transform="matrix(1 0 0 1 775.5013 236.9381)" class="st8 st6 st9">resultaten</text>
		<g>
			<text transform="matrix(1 0 0 1 775.5013 236.9381)" class="st8 st6 st9">resultaten</text>
			<text transform="matrix(1 0 0 1 775.5013 236.9381)" class="st8 st6 st9">resultaten</text>
		</g>
		<text transform="matrix(1 0 0 1 792.6013 263.9381)" class="st8 st6 st9">&amp; data</text>
		<g>
			<text transform="matrix(1 0 0 1 792.6013 263.9381)" class="st8 st6 st9">&amp; data</text>
			<text transform="matrix(1 0 0 1 792.6013 263.9381)" class="st8 st6 st9">&amp; data</text>
		</g>
	</g>
</g>
<path class="st19" d="M925.8,395.1h-198c-1.3,0-2.6-0.8-2.6-2v-45.6c0-1,1.3-2,2.6-2h198c1.6,0,2.6,1,2.6,2v45.6
	C928.5,394.3,927.1,395.1,925.8,395.1z"/>
<g>
	<text transform="matrix(1 0 0 1 737.471 376.0631)" class="st8 st6 st12">Resultaten &amp; Data</text>
</g>
<text transform="matrix(1 0 0 1 115.77 74.44)" class="st20 st6 st21 st22">1</text>
<g class="st23">
	<text transform="matrix(1 0 0 1 344.54 74.44)" class="st24 st6 st21 st22">2</text>
</g>
<g class="st23">
	<text transform="matrix(1 0 0 1 814.97 74.44)" class="st24 st6 st21 st22">3</text>
</g>
<g class="st23">
	<text transform="matrix(1 0 0 1 1050.05 74.44)" class="st24 st6 st21 st22">4</text>
</g>
<text transform="matrix(1 0 0 1 538.6216 68.8898)" class="st25 st6 st26">OPTIONEEL</text>
</svg>
