<svg id="Layer_1" data-name="Layer 1" xmlns="http://www.w3.org/2000/svg" viewBox="0 0 1200.01 477.24"><defs><style>.cls-1{fill:#f5f8fb;stroke:#f5f8fb;}.cls-1,.cls-11,.cls-12,.cls-15,.cls-17,.cls-18,.cls-19,.cls-2,.cls-20,.cls-21,.cls-22,.cls-3,.cls-5,.cls-6,.cls-9{stroke-miterlimit:10;}.cls-1,.cls-2,.cls-3{stroke-width:14.4px;}.cls-2,.cls-20,.cls-4{fill:#9bbfdf;}.cls-2,.cls-20{stroke:#9bbfdf;}.cls-19,.cls-22,.cls-3{fill:none;}.cls-21,.cls-3{stroke:#70a2cf;}.cls-13,.cls-5{fill:#b2c7d9;}.cls-19,.cls-22,.cls-5{stroke:#b2c7d9;}.cls-5{stroke-width:0.71px;}.cls-16,.cls-6{opacity:0.7;}.cls-17,.cls-6{font-size:41.61px;letter-spacing:4px;}.cls-17,.cls-18,.cls-6{fill:#f7f7f7;stroke:#f7f7f7;stroke-width:0.8px;font-weight:700;}.cls-12,.cls-15,.cls-17,.cls-18,.cls-6,.cls-7{font-family:Helvetica Neue;}.cls-7{font-size:22.41px;}.cls-12,.cls-15,.cls-7{fill:#374d5d;}.cls-8{letter-spacing:-1px;}.cls-12,.cls-15,.cls-9{stroke:#374d5d;}.cls-9{stroke-width:0.4px;}.cls-10{font-family:Helvetica;}.cls-11{fill:#fff;stroke:#efefef;stroke-width:0.65px;}.cls-12,.cls-15{font-size:20.81px;}.cls-12{stroke-width:0.72px;}.cls-14,.cls-21{fill:#70a2cf;}.cls-15{stroke-width:0.72px;}.cls-18{font-size:19.21px;letter-spacing:3px;}.cls-19,.cls-22{stroke-linecap:round;stroke-dasharray:4.8 8;}.cls-19{stroke-width:3.2px;}.cls-20,.cls-21{stroke-width:0.23px;}.cls-22{stroke-width:3.48px;}</style></defs><title>flex1200</title><path class="cls-1" d="M224.15,157.61V458.36a1.76,1.76,0,0,1-1.83,1.66H21.13a1.76,1.76,0,0,1-1.83-1.66V157.61H224.15Z"/><path class="cls-2" d="M224.15,151.21V149.7a1.73,1.73,0,0,0-1.83-1.6H21.13a1.73,1.73,0,0,0-1.83,1.6v1.51H224.15Z"/><path class="cls-1" d="M458.53,157.61V458.36A1.76,1.76,0,0,1,456.7,460H255.51a1.76,1.76,0,0,1-1.83-1.66V157.61H458.53Z"/><path class="cls-2" d="M458.53,151.21V149.7a1.73,1.73,0,0,0-1.83-1.6H255.51a1.73,1.73,0,0,0-1.83,1.6v1.51H458.53Z"/><path class="cls-1" d="M694.49,157.61V458.36a1.76,1.76,0,0,1-1.83,1.66H491.47a1.76,1.76,0,0,1-1.83-1.66V157.61H694.49Z"/><path class="cls-3" d="M694.49,151.21V149.7a1.73,1.73,0,0,0-1.83-1.6H491.47a1.73,1.73,0,0,0-1.83,1.6v1.51H694.49Z"/><path class="cls-1" d="M929,157.61V458.36a1.76,1.76,0,0,1-1.83,1.66H725.94a1.76,1.76,0,0,1-1.83-1.66V157.61H929Z"/><path class="cls-2" d="M929,151.21V149.7a1.73,1.73,0,0,0-1.83-1.6H725.94a1.73,1.73,0,0,0-1.83,1.6v1.51H929Z"/><path class="cls-1" d="M1164,157.61V458.36a1.76,1.76,0,0,1-1.83,1.66H961a1.76,1.76,0,0,1-1.83-1.66V157.61H1164Z"/><path class="cls-2" d="M1164,151.21V149.7a1.73,1.73,0,0,0-1.83-1.6H961a1.73,1.73,0,0,0-1.83,1.6v1.51H1164Z"/><path class="cls-4" d="M255,63.72l-38,57.36a0.8,0.8,0,0,1-1.46-.44v-8.56a0.8,0.8,0,0,0-.8-0.8H5.8A0.8,0.8,0,0,1,5.14,110L36.37,63.72a0.8,0.8,0,0,0,0-.89L5.14,16.51a0.8,0.8,0,0,1,.66-1.24h209a0.8,0.8,0,0,0,.8-0.8V5.91A0.8,0.8,0,0,1,217,5.48l38,57.36A0.8,0.8,0,0,1,255,63.72Z"/><path class="cls-5" d="M132.13,357.26L125.81,363l-0.61.56a9.6,9.6,0,1,1-10.67-11.23l0.27-.3,2.51-2.81,0.06,0,3.36-3.66A17,17,0,1,0,132.13,357.26Z"/><path class="cls-5" d="M144.56,345.86L138.89,351a25.56,25.56,0,1,1-12-12.16l5.17-5.65A33,33,0,1,0,144.56,345.86Z"/><path class="cls-5" d="M168,325.28a2.71,2.71,0,0,0-.61-1,3.31,3.31,0,0,0-2.5-.79l-3.84,0c-2,0-4,0-6,0h-0.28l-0.11-.26-0.26-.11a1.76,1.76,0,0,1,0-.28c0-2,0-4.06,0-6,0-1.28,0-2.56,0-3.84a3.31,3.31,0,0,0-.79-2.5,2.71,2.71,0,0,0-1-.61,2.93,2.93,0,0,0-3.27,1l-2.69,2.72c-2.06,2.07-4.18,4.21-6.23,6.37a4.67,4.67,0,0,0-1.16,2.87c0,1.57,0,3.15,0,4.68s0,2.84,0,4.25a2.41,2.41,0,0,1-.54,1.39c-3.5,3.88-7.09,7.79-10.57,11.58l-2.86,3.12-6.39,7h0l-0.42.47-0.89,1c-1,1.07-2.08,2.29-3.11,3.6a2.5,2.5,0,0,0,.47,3.18l0.09,0.09a2.38,2.38,0,0,0,3,.33c1.35-1.05,2.58-2.18,3.67-3.18l0.92-.84,10.55-9.67c3.78-3.48,7.7-7.07,11.58-10.57a2.41,2.41,0,0,1,1.39-.54c1.41,0,2.85,0,4.25,0s3.12,0,4.68,0a4.67,4.67,0,0,0,2.87-1.16c2.16-2,4.3-4.17,6.37-6.23l2.72-2.7A2.93,2.93,0,0,0,168,325.28Z"/><text class="cls-6" transform="translate(115.77 74.44)">1</text><path class="cls-4" d="M489.36,63.72l-38,57.36a0.8,0.8,0,0,1-1.46-.44v-8.56a0.8,0.8,0,0,0-.8-0.8h-209a0.8,0.8,0,0,1-.66-1.24l31.23-46.32a0.8,0.8,0,0,0,0-.89L239.52,16.51a0.8,0.8,0,0,1,.66-1.24h209a0.8,0.8,0,0,0,.8-0.8V5.91a0.8,0.8,0,0,1,1.46-.44l38,57.36A0.8,0.8,0,0,1,489.36,63.72Z"/><text class="cls-7" transform="translate(68.8 206.04)">What<tspan class="cls-8" x="52.29" y="0">’</tspan><tspan x="56.87" y="0">s the</tspan><tspan class="cls-9" x="24.48" y="25.61">goal</tspan><tspan x="68.91" y="25.61">?</tspan></text><text class="cls-7" transform="translate(267.1 206.04)">Balance<tspan class="cls-10" x="80.91" y="0"> </tspan><tspan class="cls-9" x="87.13" y="0">demand</tspan><tspan class="cls-9" x="171.78" y="0"> </tspan><tspan x="32.55" y="25.61">and </tspan><tspan class="cls-9" x="76.56" y="25.61">supply</tspan></text><rect class="cls-11" x="278.07" y="302.75" width="154.11" height="48.37" rx="1" ry="1"/><text class="cls-12" transform="translate(315.8 332.52)">Demand</text><rect class="cls-11" x="278.07" y="376.78" width="154.11" height="48.37" rx="1" ry="1"/><text class="cls-12" transform="translate(322.76 406.54)">Supply</text><path class="cls-13" d="M287.42,325.38a69.8,69.8,0,0,0-16.9,2.59c-2.4.67-1.85,4.16,0.36,4.64a30.16,30.16,0,0,0,7.25.67,45.41,45.41,0,0,0-11.94,32.64c0.43,12.39,5.94,32.33,19.69,36,1.32,0.35,1.69-1.49.69-2.1-11.05-6.71-15.86-22.81-15.85-35.05A40.85,40.85,0,0,1,282.5,335.6a43.28,43.28,0,0,0-.93,5.16c-0.35,3,4,3.88,4.62.88a68.05,68.05,0,0,1,3.59-12.8A2.45,2.45,0,0,0,287.42,325.38Z"/><path class="cls-13" d="M422.64,401.92a69.8,69.8,0,0,0,16.9-2.59c2.4-.67,1.85-4.16-0.36-4.64a30.16,30.16,0,0,0-7.25-.67,45.41,45.41,0,0,0,11.94-32.64c-0.43-12.39-5.94-32.33-19.69-36-1.32-.35-1.69,1.49-0.69,2.1,11.05,6.71,15.86,22.81,15.85,35.05a40.85,40.85,0,0,1-11.79,29.12,43.28,43.28,0,0,0,.93-5.16c0.35-3-4-3.88-4.62-.88a68.05,68.05,0,0,1-3.59,12.8A2.45,2.45,0,0,0,422.64,401.92Z"/><path class="cls-14" d="M725.32,63.72l-38,57.36a0.8,0.8,0,0,1-1.46-.44v-8.56a0.8,0.8,0,0,0-.8-0.8h-209a0.8,0.8,0,0,1-.66-1.24l31.23-46.32a0.8,0.8,0,0,0,0-.89L475.48,16.51a0.8,0.8,0,0,1,.66-1.24h209a0.8,0.8,0,0,0,.8-0.8V5.91a0.8,0.8,0,0,1,1.46-.44l38,57.36A0.8,0.8,0,0,1,725.32,63.72Z"/><text class="cls-7" transform="translate(497.42 206.04)">Make assumptions<tspan x="17.02" y="25.61">about</tspan><tspan class="cls-10" x="74.71" y="25.61"> </tspan><tspan class="cls-9" x="80.94" y="25.61">flexibility</tspan><tspan x="44.41" y="51.21">and </tspan><tspan class="cls-9" x="88.41" y="51.21">costs</tspan></text><path class="cls-4" d="M959.78,63.72l-38,57.36a0.8,0.8,0,0,1-1.46-.44v-8.56a0.8,0.8,0,0,0-.8-0.8h-209a0.8,0.8,0,0,1-.66-1.24l31.23-46.32a0.8,0.8,0,0,0,0-.89L709.95,16.51a0.8,0.8,0,0,1,.66-1.24h209a0.8,0.8,0,0,0,.8-0.8V5.91a0.8,0.8,0,0,1,1.46-.44l38,57.36A0.8,0.8,0,0,1,959.78,63.72Z"/><text class="cls-7" transform="translate(775.48 205.77)">Check the<tspan class="cls-9"><tspan x="16.59" y="25.61">r</tspan><tspan x="24.08" y="25.61">esults</tspan></tspan></text><path class="cls-4" d="M1194.87,63.72l-38,57.36a0.8,0.8,0,0,1-1.46-.44v-8.56a0.8,0.8,0,0,0-.8-0.8h-209A0.8,0.8,0,0,1,945,110l31.23-46.32a0.8,0.8,0,0,0,0-.89L945,16.51a0.8,0.8,0,0,1,.66-1.24h209a0.8,0.8,0,0,0,.8-0.8V5.91a0.8,0.8,0,0,1,1.46-.44l38,57.36A0.8,0.8,0,0,1,1194.87,63.72Z"/><text class="cls-7" transform="translate(971.56 206.02)"><tspan class="cls-9">Save </tspan><tspan x="57.29" y="0">the scenario</tspan><tspan x="30.48" y="25.61">and </tspan><tspan class="cls-9" x="74.49" y="25.61">sha</tspan><tspan class="cls-9" x="111.43" y="25.61">r</tspan><tspan class="cls-9" x="118.92" y="25.61">e </tspan><tspan x="137.6" y="25.61">it</tspan><tspan x="34.67" y="51.21">with others</tspan></text><path class="cls-13" d="M1096.73,344.15l-21.45-17.88a1.79,1.79,0,0,0-2.93,1.37v9.28c-17.94,4-28.6,15.2-28.6,30.05a1.79,1.79,0,0,0,3.48.57c3-9.11,15-12.67,25.12-13v8.91a1.79,1.79,0,0,0,2.93,1.37l21.45-17.88a1.79,1.79,0,0,0,0-2.75h0Z"/><path class="cls-13" d="M1090.22,368.76a3.57,3.57,0,0,0-3.58,3.57h0v10.73H1033V336.58h14.3a3.58,3.58,0,1,0,0-7.15h-17.88a3.57,3.57,0,0,0-3.58,3.57h0v53.63a3.57,3.57,0,0,0,3.57,3.58h60.78a3.57,3.57,0,0,0,3.58-3.57h0v-14.3a3.57,3.57,0,0,0-3.57-3.58h0Z"/><rect class="cls-11" x="515.01" y="302.46" width="154.11" height="48.37" rx="1" ry="1"/><text class="cls-12" transform="translate(548.93 332.22)">Flexibility</text><rect class="cls-11" x="747.72" y="333.7" width="155.05" height="48.67" rx="1" ry="1"/><text class="cls-15" transform="translate(790.77 363.65)">Results</text><rect class="cls-11" x="515.01" y="376.48" width="154.11" height="48.37" rx="1" ry="1"/><text class="cls-12" transform="translate(564.91 406.24)">Costs</text><path class="cls-13" d="M659.8,325.43c-1.32-.35-1.69,1.5-0.69,2.11a23.94,23.94,0,0,1,4.48,3.54,1.25,1.25,0,0,0,1.65.14q0.39-.3.78-0.56a1.28,1.28,0,0,0,.09-2.08A17.7,17.7,0,0,0,659.8,325.43Z"/><path class="cls-13" d="M663.12,395.25c0.4-1.7.93-6.93,0.52-8.7-0.68-2.92-4-3.87-4.62-.86a68.05,68.05,0,0,1-3.55,12.81,2.45,2.45,0,0,0,2.37,3.45,69.8,69.8,0,0,0,16.9-2.64c2.4-.68,1.83-4.17-0.37-4.64-2.46-.52-8.12.51-10.51,0.58"/><g class="cls-16"><text class="cls-17" transform="translate(344.54 74.44)">2</text></g><text class="cls-18" transform="translate(543.29 67.88)">OPTIONAL</text><g class="cls-16"><text class="cls-17" transform="translate(814.97 74.44)">3</text></g><g class="cls-16"><text class="cls-17" transform="translate(1050.05 74.44)">4</text></g><path class="cls-19" d="M670.72,335s32.33,30-11.28,64.38"/><path class="cls-20" d="M122.59,127l8.08,14a1,1,0,0,1-.87,1.51H113.64a1,1,0,0,1-.87-1.51l8.08-14A1,1,0,0,1,122.59,127Z"/><path class="cls-20" d="M357,127l8.08,14a1,1,0,0,1-.87,1.51H348a1,1,0,0,1-.87-1.51l8.08-14A1,1,0,0,1,357,127Z"/><path class="cls-21" d="M592.94,127L601,141a1,1,0,0,1-.87,1.51H584a1,1,0,0,1-.87-1.51l8.08-14A1,1,0,0,1,592.94,127Z"/><path class="cls-20" d="M827.4,127l8.08,14a1,1,0,0,1-.87,1.51H818.45a1,1,0,0,1-.87-1.51l8.08-14A1,1,0,0,1,827.4,127Z"/><path class="cls-20" d="M1062.49,127l8.08,14a1,1,0,0,1-.87,1.51h-16.16a1,1,0,0,1-.87-1.51l8.08-14A1,1,0,0,1,1062.49,127Z"/><path class="cls-13" d="M495.65,325.11a31.23,31.23,0,0,0-5.55,6.69c-1.41,2.65.51,5.57,2.92,3.69a68.05,68.05,0,0,1,11.09-7.32,2.45,2.45,0,0,0,.48-4.16,69.8,69.8,0,0,0-14.47-9.11c-2.26-1.07-4.12,1.94-2.77,3.74,1.51,2,6.45,5,8.3,6.47"/><line class="cls-22" x1="454.79" y1="325.38" x2="499.23" y2="325.38"/><path class="cls-13" d="M461.46,399.68A31.23,31.23,0,0,0,467,393c1.41-2.65-.51-5.57-2.92-3.69A68.05,68.05,0,0,1,453,396.62a2.45,2.45,0,0,0-.48,4.16A69.8,69.8,0,0,0,467,409.89c2.26,1.07,4.12-1.94,2.77-3.74-1.51-2-6.45-5-8.3-6.47"/><line class="cls-22" x1="502.32" y1="399.41" x2="457.88" y2="399.41"/></svg>