<?xml version="1.0" encoding="utf-8"?>
<!-- Generator: Adobe Illustrator 25.2.3, SVG Export Plug-In . SVG Version: 6.00 Build 0)  -->
<svg version="1.1" id="Layer_1" xmlns="http://www.w3.org/2000/svg" xmlns:xlink="http://www.w3.org/1999/xlink" x="0px" y="0px"
	 viewBox="0 0 600 238.6" style="enable-background:new 0 0 600 238.6;" xml:space="preserve">
<style type="text/css">
	.st0{fill:#F5F8FB;stroke:#F5F8FB;stroke-width:7.1912;stroke-miterlimit:10;}
	.st1{fill:#70A2CF;stroke:#70A2CF;stroke-width:7.1912;stroke-miterlimit:10;}
	.st2{fill:none;stroke:#9BBFDF;stroke-width:7.1912;stroke-miterlimit:10;}
	.st3{fill:#70A2CF;}
	.st4{fill:#B2C7D9;stroke:#B2C7D9;stroke-width:0.3565;stroke-miterlimit:10;}
	.st5{opacity:0.9;fill:#F7F7F7;enable-background:new    ;}
	.st6{font-family:'Helvetica';}
	.st7{font-size:20.7745px;}
	.st8{opacity:0.9;fill:none;stroke:#F7F7F7;stroke-width:0.3943;stroke-miterlimit:10;enable-background:new    ;}
	.st9{fill:#374D5D;}
	.st10{font-size:11.1862px;}
	.st11{font-size:11px;}
	.st12{fill:none;stroke:#374D5D;stroke-width:0.5;stroke-miterlimit:10;}
	.st13{fill:#FFFFFF;stroke:#EFEFEF;stroke-width:0.3257;stroke-miterlimit:10;}
	.st14{fill:#374D5D;stroke:#374D5D;stroke-width:0.375;stroke-miterlimit:10;}
	.st15{font-size:10.6302px;}
	.st16{fill:#B2C7D9;}
	.st17{fill:#9BBFDF;}
	.st18{fill:#374D5D;stroke:#374D5D;stroke-width:0.5;stroke-miterlimit:10;}
	.st19{fill:#FFFFFF;stroke:#EFEFEF;stroke-width:0.369;stroke-miterlimit:10;}
	.st20{fill:#F7F7F7;}
	.st21{fill:none;stroke:#F7F7F7;stroke-width:0.3943;stroke-miterlimit:10;}
	.st22{opacity:0.7;fill:#F7F7F7;enable-background:new    ;}
	.st23{font-size:9.5882px;}
	.st24{opacity:0.7;fill:none;stroke:#F7F7F7;stroke-width:0.3943;stroke-miterlimit:10;enable-background:new    ;}
	.st25{fill:#70A2CF;stroke:#70A2CF;stroke-width:0.1132;stroke-miterlimit:10;}
	.st26{fill:#9BBFDF;stroke:#9BBFDF;stroke-width:0.1132;stroke-miterlimit:10;}
	.st27{fill:#FFFFFF;stroke:#EFEFEF;stroke-width:0.325;stroke-miterlimit:10;}
	.st28{fill:none;stroke:#B2C7D9;stroke-width:1.74;stroke-linecap:round;stroke-miterlimit:10;stroke-dasharray:2.4,4;}
	.st29{fill:none;stroke:#B2C7D9;stroke-width:1.7622;stroke-linecap:round;stroke-miterlimit:10;stroke-dasharray:2.4306,4.0509;}
</style>
<g>
	<path class="st0" d="M112.4,79.3v150.1c0,0.5-0.4,0.8-0.9,0.8H11c-0.5,0-0.9-0.4-0.9-0.8V79.3H112.4z"/>
	<path class="st1" d="M112.4,76.1v-0.8c0-0.4-0.4-0.8-0.9-0.8H11c-0.5,0-0.9,0.4-0.9,0.8v0.8H112.4z"/>
	<path class="st0" d="M229.4,79.3v150.1c0,0.5-0.4,0.8-0.9,0.8H128c-0.5,0-0.9-0.4-0.9-0.8V79.3H229.4z"/>
	<path class="st1" d="M229.4,76.1v-0.8c0-0.4-0.4-0.8-0.9-0.8H128c-0.5,0-0.9,0.4-0.9,0.8v0.8H229.4z"/>
	<path class="st0" d="M347.2,79.3v150.1c0,0.5-0.4,0.8-0.9,0.8H245.8c-0.5,0-0.9-0.4-0.9-0.8V79.3H347.2z"/>
	<path class="st2" d="M347.2,76.1v-0.8c0-0.4-0.4-0.8-0.9-0.8H245.8c-0.5,0-0.9,0.4-0.9,0.8v0.8H347.2z"/>
	<path class="st0" d="M464.2,79.3v150.1c0,0.5-0.4,0.8-0.9,0.8H362.9c-0.5,0-0.9-0.4-0.9-0.8V79.3H464.2z"/>
	<path class="st1" d="M464.2,76.1v-0.8c0-0.4-0.4-0.8-0.9-0.8H362.9c-0.5,0-0.9,0.4-0.9,0.8v0.8H464.2z"/>
	<path class="st0" d="M581.6,79.3v150.1c0,0.5-0.4,0.8-0.9,0.8H480.3c-0.5,0-0.9-0.4-0.9-0.8V79.3H581.6z"/>
	<path class="st1" d="M581.6,76.1v-0.8c0-0.4-0.4-0.8-0.9-0.8H480.3c-0.5,0-0.9,0.4-0.9,0.8v0.8H581.6z"/>
	<path class="st3" d="M127.8,32.4l-19,28.6c-0.2,0.3-0.7,0.2-0.7-0.2v-4.3c0-0.2-0.2-0.4-0.4-0.4H3.4c-0.3,0-0.5-0.4-0.3-0.6
		l15.6-23.1c0.1-0.1,0.1-0.3,0-0.4L3,8.9C2.9,8.6,3,8.2,3.4,8.2h104.3c0.2,0,0.4-0.2,0.4-0.4V3.6c0-0.4,0.5-0.5,0.7-0.2l19,28.6
		C127.8,32.1,127.8,32.3,127.8,32.4z"/>
	<g>
		<path class="st4" d="M66.4,179l-3.2,2.9c-0.1,0.1-0.2,0.2-0.3,0.3c-0.4,2.2-2.4,3.9-4.7,3.9c-2.6,0-4.8-2.1-4.8-4.8
			c0-2.4,1.8-4.5,4.2-4.8c0-0.1,0.1-0.1,0.1-0.1L59,175l0,0c0.6-0.6,1.2-1.3,1.7-1.8c-0.8-0.2-1.6-0.4-2.5-0.4
			c-4.7,0-8.5,3.8-8.5,8.5s3.8,8.5,8.5,8.5s8.5-3.8,8.5-8.5C66.7,180.5,66.6,179.7,66.4,179z"/>
		<path class="st4" d="M72.6,173.3c-0.9,0.9-1.9,1.7-2.8,2.6c0.8,1.6,1.2,3.5,1.2,5.4c0,7-5.7,12.8-12.8,12.8s-12.8-5.7-12.8-12.8
			c0-7,5.7-12.8,12.8-12.8c2,0,3.9,0.5,5.6,1.3c0.9-0.9,1.7-1.9,2.6-2.8c-2.4-1.4-5.2-2.2-8.1-2.2c-9.1,0-16.5,7.4-16.5,16.5
			s7.4,16.5,16.5,16.5s16.5-7.4,16.5-16.5C74.7,178.4,74,175.7,72.6,173.3z"/>
		<path class="st4" d="M84.3,163c-0.1-0.2-0.2-0.4-0.3-0.5c-0.3-0.3-0.8-0.4-1.2-0.4c-0.6,0-1.3,0-1.9,0c-1,0-2,0-3,0
			c-0.1,0-0.1,0-0.1,0l-0.1-0.1l-0.1-0.1v-0.1c0-1,0-2,0-3c0-0.6,0-1.3,0-1.9c0-0.4,0-0.9-0.4-1.2c-0.1-0.1-0.3-0.2-0.5-0.3
			c-0.8-0.3-1.4,0.2-1.6,0.5c-0.4,0.5-0.9,0.9-1.3,1.4c-1,1-2.1,2.1-3.1,3.2c-0.3,0.4-0.6,0.9-0.6,1.4c0,0.8,0,1.6,0,2.3
			s0,1.4,0,2.1c0,0.2-0.1,0.5-0.3,0.7c-1.7,1.9-3.5,3.9-5.3,5.8l-1.4,1.6c-0.8,0.8-2.6,2.8-3.2,3.5l0,0l-0.2,0.2
			c-0.1,0.2-0.3,0.3-0.4,0.5c-0.5,0.5-1,1.1-1.6,1.8c-0.4,0.5-0.2,1.2,0.2,1.6l0,0c0.4,0.4,1,0.6,1.5,0.2c0.7-0.5,1.3-1.1,1.8-1.6
			c0.2-0.1,0.3-0.3,0.5-0.4l5.3-4.8c1.9-1.7,3.8-3.5,5.8-5.3c0.2-0.1,0.5-0.3,0.7-0.3c0.7,0,1.4,0,2.1,0c0.8,0,1.6,0,2.3,0
			c0.5,0,1.1-0.2,1.4-0.6c1.1-1,2.1-2.1,3.2-3.1c0.5-0.4,0.9-0.9,1.4-1.3C84.1,164.4,84.7,163.8,84.3,163z"/>
	</g>
	<text transform="matrix(1 0 0 1 58.2598 37.7856)" class="st5 st6 st7">1</text>
	<text transform="matrix(1 0 0 1 58.2598 37.7856)" class="st8 st6 st7">1</text>
	<path class="st3" d="M244.8,32.4l-19,28.6c-0.2,0.3-0.7,0.2-0.7-0.2v-4.3c0-0.2-0.2-0.4-0.4-0.4H120.4c-0.3,0-0.5-0.4-0.3-0.6
		l15.6-23.1c0.1-0.1,0.1-0.3,0-0.4L120,8.9c-0.2-0.3,0-0.6,0.3-0.6h104.3c0.2,0,0.4-0.2,0.4-0.4V3.6c0-0.4,0.5-0.5,0.7-0.2l19,28.6
		C244.9,32.1,244.9,32.3,244.8,32.4z"/>
	<text transform="matrix(1 0 0 1 35.6626 103.4873)" class="st9 st6 st10">Stel jezelf  </text>
	<text transform="matrix(1 0 0 1 39.3626 116.2873)" class="st9 st6 st10">een </text>
	<g>
		<text transform="matrix(1 0 0 1 60.7626 116.2873)" class="st9 st6 st11">doel</text>
		<g>
			<text transform="matrix(1 0 0 1 60.7626 116.2873)" class="st12 st6 st11">doel</text>
		</g>
	</g>
	<g>
		<text transform="matrix(1 0 0 1 135.6714 103.4873)" class="st9 st6 st10">Balanceer</text>
		<text transform="matrix(1 0 0 1 185.7714 103.4873)" class="st9 st6 st10"> </text>
		<g>
			<text transform="matrix(1 0 0 1 188.8714 103.4873)" class="st9 st6 st11">vraag</text>
			<g>
				<text transform="matrix(1 0 0 1 188.8714 103.4873)" class="st12 st6 st11">vraag</text>
			</g>
		</g>
		<text transform="matrix(1 0 0 1 217.6714 103.4873)" class="st9 st6 st10"> </text>
		<text transform="matrix(1 0 0 1 150.9714 116.2873)" class="st9 st6 st10">en </text>
		<g>
			<text transform="matrix(1 0 0 1 166.3714 116.2873)" class="st9 st6 st11">aanbod</text>
			<text transform="matrix(1 0 0 1 166.3714 116.2873)" class="st12 st6 st11">aanbod</text>
		</g>
	</g>
	<path class="st13" d="M215.2,175.9h-74.9c-0.6,0-1-0.4-1-1v-22.1c0-0.5,0.4-1,1-1h74.9c0.6,0,1,0.5,1,1v22.1
		C216.2,175.5,215.8,175.9,215.2,175.9z"/>
	<g>
		<g>
			<text transform="matrix(1 0 0 1 163.2988 166.6313)" class="st14 st6 st15">Vraag</text>
		</g>
	</g>
	<path class="st13" d="M215.2,212.9h-74.9c-0.6,0-1-0.4-1-1v-22.1c0-0.6,0.4-1,1-1h74.9c0.6,0,1,0.4,1,1v22.1
		C216.2,212.4,215.8,212.9,215.2,212.9z"/>
	<g>
		<g>
			<text transform="matrix(1 0 0 1 158.5776 203.5864)" class="st14 st6 st15">Aanbod</text>
		</g>
	</g>
	<g>
		<path class="st16" d="M144,163.1c-2.9,0.1-5.7,0.5-8.4,1.3c-1.2,0.3-0.9,2.1,0.2,2.3c1.2,0.3,2.4,0.4,3.6,0.3
			c-4.1,4.3-6.2,10.2-6,16.3c0.2,6.2,3,16.1,9.8,17.9c0.7,0.2,0.8-0.7,0.3-1.1c-5.5-3.4-7.9-11.4-7.9-17.5c0-5.5,2.1-10.7,5.9-14.5
			c-0.2,0.8-0.4,1.7-0.5,2.6c-0.2,1.5,2,1.9,2.3,0.4c0.4-2.2,0.9-4.3,1.8-6.4C145.5,163.9,144.9,163,144,163.1z"/>
	</g>
	<g>
		<path class="st16" d="M211.5,201.3c2.9-0.1,5.7-0.5,8.4-1.3c1.2-0.3,0.9-2.1-0.2-2.3c-1.2-0.3-2.4-0.4-3.6-0.3
			c4.1-4.3,6.2-10.2,6-16.3c-0.2-6.2-3-16.1-9.8-17.9c-0.7-0.2-0.8,0.7-0.3,1.1c5.5,3.4,7.9,11.4,7.9,17.5c0,5.5-2.1,10.7-5.9,14.5
			c0.2-0.8,0.4-1.7,0.5-2.6c0.2-1.5-2-1.9-2.3-0.4c-0.4,2.2-0.9,4.3-1.8,6.4C209.9,200.4,210.5,201.3,211.5,201.3z"/>
	</g>
	<path class="st17" d="M362.6,32.4l-19,28.6c-0.2,0.3-0.7,0.2-0.7-0.2v-4.3c0-0.2-0.2-0.4-0.4-0.4H238.2c-0.3,0-0.5-0.4-0.3-0.6
		l15.6-23.1c0.1-0.1,0.1-0.3,0-0.4L237.8,8.9c-0.2-0.3,0-0.6,0.3-0.6h104.3c0.2,0,0.4-0.2,0.4-0.4V3.6c0-0.4,0.5-0.5,0.7-0.2
		l19,28.6C362.7,32.1,362.7,32.3,362.6,32.4z"/>
	<g>
		<g>
			<text transform="matrix(1 0 0 1 254.9165 103.4873)"><tspan x="0" y="0" class="st9 st6 st11">Maak</tspan><tspan x="26.9" y="0" class="st12 st6 st11"> </tspan><tspan x="30" y="0" class="st18 st6 st11">aannames</tspan></text>
		</g>
		<text transform="matrix(1 0 0 1 257.4165 116.2873)" class="st9 st6 st10">over</text>
		<text transform="matrix(1 0 0 1 279.1165 116.2873)" class="st9 st6 st10"> </text>
		<g>
			<text transform="matrix(1 0 0 1 282.2165 116.2873)" class="st9 st6 st11">flexibiliteit</text>
			<text transform="matrix(1 0 0 1 282.2165 116.2873)" class="st9 st6 st11">flexibiliteit</text>
		</g>
		<text transform="matrix(1 0 0 1 250.9544 129.0873)" class="st9 st6 st10">emissies en kosten </text>
	</g>
	<path class="st3" d="M479.6,32.4l-19,28.6c-0.2,0.3-0.7,0.2-0.7-0.2v-4.3c0-0.2-0.2-0.4-0.4-0.4H355.2c-0.3,0-0.5-0.4-0.3-0.6
		l15.6-23.1c0.1-0.1,0.1-0.3,0-0.4L354.9,8.9c-0.2-0.3,0-0.6,0.3-0.6h104.3c0.2,0,0.4-0.2,0.4-0.4V3.6c0-0.4,0.5-0.5,0.7-0.2
		l19,28.6C479.7,32.1,479.7,32.3,479.6,32.4z"/>
	<g>
		<text transform="matrix(1 0 0 1 390.1104 105.3501)" class="st9 st6 st10">Bekijk de</text>
		<g>
			<text transform="matrix(1 0 0 1 386.1228 118.1501)" class="st9 st6 st11">resultaten</text>
			<g>
				<text transform="matrix(1 0 0 1 386.1228 118.1501)" class="st12 st6 st11">resultaten</text>
			</g>
			<text transform="matrix(1 0 0 1 395.6228 131.3501)" class="st9 st6 st11">&amp; data</text>
			<g>
				<text transform="matrix(1 0 0 1 395.6228 131.3501)" class="st12 st6 st11">&amp; data</text>
			</g>
		</g>
	</g>
	<path class="st3" d="M597,32.4L578,61c-0.2,0.3-0.7,0.2-0.7-0.2v-4.3c0-0.2-0.2-0.4-0.4-0.4H472.6c-0.3,0-0.5-0.4-0.3-0.6
		l15.6-23.1c0.1-0.1,0.1-0.3,0-0.4L472.3,8.9c-0.2-0.3,0-0.6,0.3-0.6h104.3c0.2,0,0.4-0.2,0.4-0.4V3.6c0-0.4,0.5-0.5,0.7-0.2L597,32
		C597.1,32.1,597.1,32.3,597,32.4z"/>
	<g>
		<text transform="matrix(1 0 0 1 490.3916 105.4775)" class="st9 st6 st10">Sla het scenario</text>
		<text transform="matrix(1 0 0 1 494.2916 118.2775)" class="st9 st6 st10">op en </text>
		<g>
			<text transform="matrix(1 0 0 1 525.7916 118.2775)" class="st9 st6 st11">deel </text>
			<g>
				<text transform="matrix(1 0 0 1 525.7916 118.2775)" class="st12 st6 st11">deel </text>
			</g>
		</g>
		<text transform="matrix(1 0 0 1 550.8916 118.2775)" class="st9 st6 st10">het</text>
		<text transform="matrix(1 0 0 1 498.9916 131.0775)" class="st9 st6 st10">met anderen</text>
	</g>
	<g>
		<path class="st16" d="M548,174.4l-10.7-8.9c-0.4-0.3-0.9-0.3-1.3,0.1c-0.1,0.2-0.2,0.4-0.2,0.6v4.6c-9,2-14.3,7.6-14.3,15
			c0,0.5,0.4,0.9,0.9,0.9c0.4,0,0.7-0.2,0.8-0.6c1.5-4.5,7.5-6.3,12.5-6.5v4.4c0,0.5,0.4,0.9,0.9,0.9c0.2,0,0.4-0.1,0.6-0.2
			l10.7-8.9c0.4-0.3,0.4-0.9,0.1-1.3C548.1,174.5,548,174.5,548,174.4L548,174.4z"/>
		<path class="st16" d="M544.8,186.7c-1,0-1.8,0.8-1.8,1.8l0,0v5.4h-26.8v-23.2h7.1c1,0,1.8-0.8,1.8-1.8s-0.8-1.8-1.8-1.8h-8.9
			c-1,0-1.8,0.8-1.8,1.8l0,0v26.8c0,1,0.8,1.8,1.8,1.8l0,0h30.3c1,0,1.8-0.8,1.8-1.8l0,0v-7.1C546.5,187.5,545.7,186.7,544.8,186.7
			L544.8,186.7z"/>
	</g>
	<path class="st19" d="M461.8,195.5H365c-0.6,0-1.3-0.4-1.3-1v-22.3c0-0.5,0.6-1,1.3-1h96.8c0.8,0,1.3,0.5,1.3,1v22.3
		C463,195.1,462.4,195.5,461.8,195.5z"/>
	<g>
		<g>
			<text transform="matrix(1 0 0 1 369.6181 186.1728)" class="st14 st6 st15">Resultaten &amp; Data</text>
		</g>
	</g>
	<g>
		<text transform="matrix(1 0 0 1 172.4746 37.7856)" class="st20 st6 st7">2</text>
		<text transform="matrix(1 0 0 1 172.4746 37.7856)" class="st21 st6 st7">2</text>
	</g>
	<text transform="matrix(1 0 0 1 270.8101 34.5063)" class="st22 st6 st23">OPTIONEEL</text>
	<text transform="matrix(1 0 0 1 270.8101 34.5063)" class="st24 st6 st23">OPTIONEEL</text>
	<g>
		<text transform="matrix(1 0 0 1 407.334 37.7856)" class="st20 st6 st7">3</text>
		<text transform="matrix(1 0 0 1 407.334 37.7856)" class="st21 st6 st7">3</text>
	</g>
	<g>
		<text transform="matrix(1 0 0 1 524.7002 37.7856)" class="st20 st6 st7">4</text>
		<text transform="matrix(1 0 0 1 524.7002 37.7856)" class="st21 st6 st7">4</text>
	</g>
	<path class="st25" d="M62.1,64.8l3.2,5.5c0.4,0.7-0.1,1.5-0.9,1.5h-6.3c-0.8,0-1.3-0.8-0.9-1.5l3.2-5.5
		C60.8,64.1,61.7,64.1,62.1,64.8z"/>
	<path class="st25" d="M179.1,64.8l3.2,5.5c0.4,0.7-0.1,1.5-0.9,1.5h-6.3c-0.8,0-1.3-0.8-0.9-1.5l3.2-5.5
		C177.8,64.1,178.7,64.1,179.1,64.8z"/>
	<path class="st26" d="M296.9,64.8l3.2,5.5c0.4,0.7-0.1,1.5-0.9,1.5h-6.3c-0.8,0-1.3-0.8-0.9-1.5l3.2-5.5
		C295.6,64.1,296.5,64.1,296.9,64.8z"/>
	<path class="st25" d="M414,64.8l3.2,5.5c0.4,0.7-0.1,1.5-0.9,1.5H410c-0.8,0-1.3-0.8-0.9-1.5l3.2-5.5
		C412.6,64.1,413.6,64.1,414,64.8z"/>
	<path class="st25" d="M531.3,64.8l3.2,5.5c0.4,0.7-0.1,1.5-0.9,1.5h-6.3c-0.8,0-1.3-0.8-0.9-1.5l3.2-5.5
		C530,64.1,531,64.1,531.3,64.8z"/>
	<path class="st27" d="M258,139.8h76c0.3,0,0.5,0.2,0.5,0.5v23.2c0,0.3-0.2,0.5-0.5,0.5h-76c-0.3,0-0.5-0.2-0.5-0.5v-23.2
		C257.5,140,257.8,139.8,258,139.8z"/>
	<g>
		<text transform="matrix(1 0 0 1 269.505 154.6232)" class="st14 st6 st15">Flexibiliteit</text>
	</g>
	<path class="st27" d="M258,200.9h76c0.3,0,0.5,0.2,0.5,0.5v23.2c0,0.3-0.2,0.5-0.5,0.5h-76c-0.3,0-0.5-0.2-0.5-0.5v-23.2
		C257.5,201.1,257.8,200.9,258,200.9z"/>
	<g>
		<text transform="matrix(1 0 0 1 277.6798 215.7326)" class="st14 st6 st15">Kosten</text>
	</g>
	<path class="st27" d="M258,170.3h76c0.3,0,0.5,0.2,0.5,0.5V194c0,0.3-0.2,0.5-0.5,0.5h-76c-0.3,0-0.5-0.2-0.5-0.5v-23.2
		C257.5,170.5,257.8,170.3,258,170.3z"/>
	<g>
		<text transform="matrix(1 0 0 1 273.1583 185.1828)" class="st14 st6 st15">Emissies</text>
	</g>
	<path class="st16" d="M329.2,170.9c-1-1.1-2.1-2-3.4-2.8c-1.3-0.7-2.8,0.2-1.9,1.4c1.4,1.7,2.6,3.6,3.6,5.6c0.3,0.6,1,0.9,1.6,0.6
		c0.2-0.1,0.4-0.2,0.4-0.4c1.8-2.2,3.4-4.6,4.6-7.2c0.5-1.1-1-2.1-1.9-1.4C331.4,167.6,329.9,170,329.2,170.9"/>
	<line class="st28" x1="329" y1="160.4" x2="329" y2="172.7"/>
	<path class="st16" d="M329.2,201.2c-1-1.1-2.1-2-3.4-2.8c-1.3-0.7-2.8,0.2-1.9,1.4c1.4,1.7,2.6,3.6,3.6,5.6c0.3,0.6,1,0.9,1.6,0.6
		c0.2-0.1,0.4-0.2,0.4-0.4c1.8-2.2,3.4-4.6,4.6-7.2c0.5-1.1-1-2.1-1.9-1.4C331.4,197.9,329.9,200.3,329.2,201.2"/>
	<line class="st28" x1="329" y1="190.7" x2="329" y2="203"/>
	<g>
		<path class="st16" d="M245.9,163.8c-1.1,1-2,2.1-2.8,3.4c-0.7,1.3,0.3,2.8,1.5,1.9c1.7-1.4,3.6-2.6,5.6-3.7c0.6-0.3,0.9-1,0.6-1.6
			c-0.1-0.2-0.2-0.4-0.4-0.5c-2.2-1.8-4.7-3.4-7.3-4.6c-1.2-0.6-2.1,1-1.4,1.9C242.5,161.6,245,163.1,245.9,163.8"/>
		<line class="st29" x1="228.4" y1="164" x2="244.3" y2="164"/>
	</g>
	<g>
		<path class="st16" d="M233.4,202.9c1.1-1,2-2.1,2.8-3.4c0.7-1.3-0.3-2.8-1.5-1.9c-1.7,1.4-3.6,2.6-5.6,3.7c-0.6,0.3-0.9,1-0.6,1.6
			c0.1,0.2,0.2,0.4,0.4,0.5c2.2,1.8,4.7,3.4,7.3,4.6c1.2,0.6,2.1-1,1.4-1.9C236.9,205.1,234.3,203.6,233.4,202.9"/>
		<line class="st29" x1="251" y1="202.7" x2="235.1" y2="202.7"/>
	</g>
</g>
</svg>
