<?xml version="1.0" encoding="utf-8"?>
<!-- Generator: Adobe Illustrator 19.2.0, SVG Export Plug-In . SVG Version: 6.00 Build 0)  -->
<svg version="1.1" id="Layer_1" xmlns="http://www.w3.org/2000/svg" xmlns:xlink="http://www.w3.org/1999/xlink" x="0px" y="0px"
	 viewBox="0 0 600 238.6" style="enable-background:new 0 0 600 238.6;" xml:space="preserve">
<style type="text/css">
	.st0{fill:#F5F8FB;stroke:#F5F8FB;stroke-width:7.1912;stroke-miterlimit:10;}
	.st1{fill:#70A2CF;stroke:#70A2CF;stroke-width:7.1912;stroke-miterlimit:10;}
	.st2{fill:none;stroke:#9BBFDF;stroke-width:7.1912;stroke-miterlimit:10;}
	.st3{fill:#70A2CF;}
	.st4{fill:#B2C7D9;stroke:#B2C7D9;stroke-width:0.3565;stroke-miterlimit:10;}
	.st5{opacity:0.9;fill:#F7F7F7;stroke:#F7F7F7;stroke-width:0.3943;stroke-miterlimit:10;}
	.st6{font-family:'Helvetica Neue', Helvetica, Arial, sans-serif;}
	.st7{font-size:20.7745px;}
	.st8{letter-spacing:2;}
	.st9{fill:#374D5D;}
	.st10{font-family:'Helvetica Neue', Helvetica, Arial, sans-serif;}
	.st11{font-size:11.1862px;}
	.st12{fill:#374D5D;stroke:#374D5D;stroke-width:0.1972;stroke-miterlimit:10;}
	.st13{font-family:'Helvetica Neue', Helvetica, Arial, sans-serif;}
	.st14{font-family:'Helvetica Neue', Helvetica, Arial, sans-serif;}
	.st15{fill:#FFFFFF;stroke:#EFEFEF;stroke-width:0.3257;stroke-miterlimit:10;}
	.st16{fill:#374D5D;stroke:#374D5D;stroke-width:0.3527;stroke-miterlimit:10;}
	.st17{font-size:10.3872px;}
	.st18{fill:#B2C7D9;}
	.st19{fill:#9BBFDF;}
	.st20{fill:#374D5D;stroke:#374D5D;stroke-width:0.3548;stroke-miterlimit:10;}
	.st21{fill:#F7F7F7;stroke:#F7F7F7;stroke-width:0.3943;stroke-miterlimit:10;}
	.st22{opacity:0.7;fill:#F7F7F7;stroke:#F7F7F7;stroke-width:0.3943;stroke-miterlimit:10;}
	.st23{font-size:9.5882px;}
	.st24{letter-spacing:1;}
	.st25{fill:none;stroke:#B2C7D9;stroke-width:1.598;stroke-linecap:round;stroke-miterlimit:10;stroke-dasharray:2.3971,3.9951;}
	.st26{fill:#70A2CF;stroke:#70A2CF;stroke-width:0.1132;stroke-miterlimit:10;}
	.st27{fill:#9BBFDF;stroke:#9BBFDF;stroke-width:0.1132;stroke-miterlimit:10;}
	.st28{fill:none;stroke:#B2C7D9;stroke-width:1.7355;stroke-linecap:round;stroke-miterlimit:10;stroke-dasharray:2.3971,3.9951;}
	.st29{opacity:0.9;}
	.st30{fill:#F7F7F7;stroke:#F7F7F7;stroke-width:0.3995;stroke-miterlimit:10;}
	.st31{fill:#374D5D;stroke:#374D5D;stroke-width:0.1997;stroke-miterlimit:10;}
	.st32{fill:#374D5D;stroke:#374D5D;stroke-width:0.3573;stroke-miterlimit:10;}
	.st33{fill:#374D5D;stroke:#374D5D;stroke-width:0.3595;stroke-miterlimit:10;}
	.st34{opacity:0.7;}
</style>
<g>
	<path class="st0" d="M112.4,79.3v150.1c0,0.5-0.4,0.8-0.9,0.8H11c-0.5,0-0.9-0.4-0.9-0.8V79.3H112.4z"/>
	<path class="st1" d="M112.4,76.1v-0.8c0-0.4-0.4-0.8-0.9-0.8H11c-0.5,0-0.9,0.4-0.9,0.8v0.8H112.4z"/>
	<path class="st0" d="M229.4,79.3v150.1c0,0.5-0.4,0.8-0.9,0.8H128c-0.5,0-0.9-0.4-0.9-0.8V79.3H229.4z"/>
	<path class="st1" d="M229.4,76.1v-0.8c0-0.4-0.4-0.8-0.9-0.8H128c-0.5,0-0.9,0.4-0.9,0.8v0.8H229.4z"/>
	<path class="st0" d="M347.2,79.3v150.1c0,0.5-0.4,0.8-0.9,0.8H245.8c-0.5,0-0.9-0.4-0.9-0.8V79.3H347.2z"/>
	<path class="st2" d="M347.2,76.1v-0.8c0-0.4-0.4-0.8-0.9-0.8H245.8c-0.5,0-0.9,0.4-0.9,0.8v0.8H347.2z"/>
	<path class="st0" d="M464.2,79.3v150.1c0,0.5-0.4,0.8-0.9,0.8H362.9c-0.5,0-0.9-0.4-0.9-0.8V79.3H464.2z"/>
	<path class="st1" d="M464.2,76.1v-0.8c0-0.4-0.4-0.8-0.9-0.8H362.9c-0.5,0-0.9,0.4-0.9,0.8v0.8H464.2z"/>
	<path class="st0" d="M581.6,79.3v150.1c0,0.5-0.4,0.8-0.9,0.8H480.3c-0.5,0-0.9-0.4-0.9-0.8V79.3H581.6z"/>
	<path class="st1" d="M581.6,76.1v-0.8c0-0.4-0.4-0.8-0.9-0.8H480.3c-0.5,0-0.9,0.4-0.9,0.8v0.8H581.6z"/>
	<path class="st3" d="M127.8,32.4l-19,28.6c-0.2,0.3-0.7,0.2-0.7-0.2v-4.3c0-0.2-0.2-0.4-0.4-0.4H3.4c-0.3,0-0.5-0.4-0.3-0.6
		l15.6-23.1c0.1-0.1,0.1-0.3,0-0.4L3,8.9C2.9,8.6,3,8.2,3.4,8.2h104.3c0.2,0,0.4-0.2,0.4-0.4V3.6c0-0.4,0.5-0.5,0.7-0.2l19,28.6
		C127.8,32.1,127.8,32.3,127.8,32.4z"/>
	<g>
		<path class="st4" d="M66.4,179l-3.2,2.9c-0.1,0.1-0.2,0.2-0.3,0.3c-0.4,2.2-2.4,3.9-4.7,3.9c-2.6,0-4.8-2.1-4.8-4.8
			c0-2.4,1.8-4.5,4.2-4.8c0-0.1,0.1-0.1,0.1-0.1L59,175l0,0c0.6-0.6,1.2-1.3,1.7-1.8c-0.8-0.2-1.6-0.4-2.5-0.4
			c-4.7,0-8.5,3.8-8.5,8.5c0,4.7,3.8,8.5,8.5,8.5s8.5-3.8,8.5-8.5C66.7,180.5,66.6,179.7,66.4,179z"/>
		<path class="st4" d="M72.6,173.3c-0.9,0.9-1.9,1.7-2.8,2.6c0.8,1.6,1.2,3.5,1.2,5.4c0,7-5.7,12.8-12.8,12.8s-12.8-5.7-12.8-12.8
			c0-7,5.7-12.8,12.8-12.8c2,0,3.9,0.5,5.6,1.3c0.9-0.9,1.7-1.9,2.6-2.8c-2.4-1.4-5.2-2.2-8.1-2.2c-9.1,0-16.5,7.4-16.5,16.5
			c0,9.1,7.4,16.5,16.5,16.5s16.5-7.4,16.5-16.5C74.7,178.4,74,175.7,72.6,173.3z"/>
		<path class="st4" d="M84.3,163c-0.1-0.2-0.2-0.4-0.3-0.5c-0.3-0.3-0.8-0.4-1.2-0.4c-0.6,0-1.3,0-1.9,0c-1,0-2,0-3,0
			c-0.1,0-0.1,0-0.1,0l-0.1-0.1l-0.1-0.1c0,0,0-0.1,0-0.1c0-1,0-2,0-3c0-0.6,0-1.3,0-1.9c0-0.4,0-0.9-0.4-1.2
			c-0.1-0.1-0.3-0.2-0.5-0.3c-0.8-0.3-1.4,0.2-1.6,0.5c-0.4,0.5-0.9,0.9-1.3,1.4c-1,1-2.1,2.1-3.1,3.2c-0.3,0.4-0.6,0.9-0.6,1.4
			c0,0.8,0,1.6,0,2.3c0,0.7,0,1.4,0,2.1c0,0.2-0.1,0.5-0.3,0.7c-1.7,1.9-3.5,3.9-5.3,5.8l-1.4,1.6c-0.8,0.8-2.6,2.8-3.2,3.5l0,0
			l-0.2,0.2c-0.1,0.2-0.3,0.3-0.4,0.5c-0.5,0.5-1,1.1-1.6,1.8c-0.4,0.5-0.2,1.2,0.2,1.6c0,0,0,0,0,0c0.4,0.4,1,0.6,1.5,0.2
			c0.7-0.5,1.3-1.1,1.8-1.6c0.2-0.1,0.3-0.3,0.5-0.4l5.3-4.8c1.9-1.7,3.8-3.5,5.8-5.3c0.2-0.1,0.5-0.3,0.7-0.3c0.7,0,1.4,0,2.1,0
			c0.8,0,1.6,0,2.3,0c0.5,0,1.1-0.2,1.4-0.6c1.1-1,2.1-2.1,3.2-3.1c0.5-0.4,0.9-0.9,1.4-1.3C84.1,164.4,84.7,163.8,84.3,163z"/>
	</g>
	<text transform="matrix(1 0 0 1 58.2598 37.7856)" class="st5 st6 st7 st8">1</text>
	<path class="st3" d="M244.8,32.4l-19,28.6c-0.2,0.3-0.7,0.2-0.7-0.2v-4.3c0-0.2-0.2-0.4-0.4-0.4H120.4c-0.3,0-0.5-0.4-0.3-0.6
		l15.6-23.1c0.1-0.1,0.1-0.3,0-0.4L120,8.9c-0.2-0.3,0-0.6,0.3-0.6h104.3c0.2,0,0.4-0.2,0.4-0.4V3.6c0-0.4,0.5-0.5,0.7-0.2l19,28.6
		C244.9,32.1,244.9,32.3,244.8,32.4z"/>
	<text transform="matrix(1 0 0 1 35.6626 103.4873)"><tspan x="0" y="0" class="st9 st10 st11">Stel jezelf  </tspan><tspan x="3.7" y="12.8" class="st9 st10 st11">een </tspan><tspan x="25.1" y="12.8" class="st12 st13 st11" font-weight="bold">doel</tspan></text>
	<g>
		<text transform="matrix(1 0 0 1 135.6714 103.4873)"><tspan x="0" y="0" class="st9 st10 st11">Balanceer</tspan><tspan x="50.1" y="0" class="st9 st14 st11"> </tspan><tspan x="53.2" y="0" class="st12 st13 st11" font-weight="bold">vraag</tspan><tspan x="82" y="0" class="st12 st13 st11"> </tspan><tspan x="15.3" y="12.8" class="st9 st10 st11">en </tspan><tspan x="30.7" y="12.8" class="st12 st13 st11" font-weight="bold">aanbod</tspan></text>
	</g>
	<path class="st15" d="M215.2,175.9h-74.9c-0.6,0-1-0.4-1-1v-22.1c0-0.5,0.4-1,1-1h74.9c0.6,0,1,0.5,1,1v22.1
		C216.2,175.5,215.8,175.9,215.2,175.9z"/>
	<text transform="matrix(1 0 0 1 164.2988 166.6313)" class="st16 st10 st17">Vraag</text>
	<path class="st15" d="M215.2,212.9h-74.9c-0.6,0-1-0.4-1-1v-22.1c0-0.6,0.4-1,1-1h74.9c0.6,0,1,0.4,1,1v22.1
		C216.2,212.4,215.8,212.9,215.2,212.9z"/>
	<text transform="matrix(1 0 0 1 159.5776 203.5864)" class="st16 st10 st17">Aanbod</text>
	<g>
		<path class="st18" d="M144,163.1c-2.9,0.1-5.7,0.5-8.4,1.3c-1.2,0.3-0.9,2.1,0.2,2.3c1.2,0.3,2.4,0.4,3.6,0.3
			c-4.1,4.3-6.2,10.2-6,16.3c0.2,6.2,3,16.1,9.8,17.9c0.7,0.2,0.8-0.7,0.3-1.1c-5.5-3.4-7.9-11.4-7.9-17.5c0-5.5,2.1-10.7,5.9-14.5
			c-0.2,0.8-0.4,1.7-0.5,2.6c-0.2,1.5,2,1.9,2.3,0.4c0.4-2.2,0.9-4.3,1.8-6.4C145.5,163.9,144.9,163,144,163.1z"/>
	</g>
	<g>
		<path class="st18" d="M211.5,201.3c2.9-0.1,5.7-0.5,8.4-1.3c1.2-0.3,0.9-2.1-0.2-2.3c-1.2-0.3-2.4-0.4-3.6-0.3
			c4.1-4.3,6.2-10.2,6-16.3c-0.2-6.2-3-16.1-9.8-17.9c-0.7-0.2-0.8,0.7-0.3,1.1c5.5,3.4,7.9,11.4,7.9,17.5c0,5.5-2.1,10.7-5.9,14.5
			c0.2-0.8,0.4-1.7,0.5-2.6c0.2-1.5-2-1.9-2.3-0.4c-0.4,2.2-0.9,4.3-1.8,6.4C209.9,200.4,210.5,201.3,211.5,201.3z"/>
	</g>
	<path class="st19" d="M362.6,32.4l-19,28.6c-0.2,0.3-0.7,0.2-0.7-0.2v-4.3c0-0.2-0.2-0.4-0.4-0.4H238.2c-0.3,0-0.5-0.4-0.3-0.6
		l15.6-23.1c0.1-0.1,0.1-0.3,0-0.4L237.8,8.9c-0.2-0.3,0-0.6,0.3-0.6h104.3c0.2,0,0.4-0.2,0.4-0.4V3.6c0-0.4,0.5-0.5,0.7-0.2
		l19,28.6C362.7,32.1,362.7,32.3,362.6,32.4z"/>
	<g>
		<text transform="matrix(1 0 0 1 254.9165 103.4873)"><tspan x="0" y="0" class="st9 st10 st11">Maak aannames</tspan><tspan x="2.5" y="12.8" class="st9 st10 st11">over</tspan><tspan x="24.2" y="12.8" class="st9 st14 st11"> </tspan><tspan x="27.3" y="12.8" class="st12 st13 st11" font-weight="bold">flexibiliteit</tspan><tspan x="16.1" y="25.6" class="st9 st10 st11">en </tspan><tspan x="31.4" y="25.6" class="st12 st13 st11" font-weight="bold">kosten</tspan></text>
	</g>
	<path class="st3" d="M479.6,32.4l-19,28.6c-0.2,0.3-0.7,0.2-0.7-0.2v-4.3c0-0.2-0.2-0.4-0.4-0.4H355.2c-0.3,0-0.5-0.4-0.3-0.6
		l15.6-23.1c0.1-0.1,0.1-0.3,0-0.4L354.9,8.9c-0.2-0.3,0-0.6,0.3-0.6h104.3c0.2,0,0.4-0.2,0.4-0.4V3.6c0-0.4,0.5-0.5,0.7-0.2
		l19,28.6C479.7,32.1,479.7,32.3,479.6,32.4z"/>
	<g>
		<text transform="matrix(1 0 0 1 390.1104 103.3501)"><tspan x="0" y="0" class="st9 st10 st11">Bekijk de</tspan><tspan x="-2.7" y="12.8" class="st12 st13 st11" font-weight="bold">resultaten</tspan></text>
	</g>
	<path class="st3" d="M597,32.4l-19,28.6c-0.2,0.3-0.7,0.2-0.7-0.2v-4.3c0-0.2-0.2-0.4-0.4-0.4H472.6c-0.3,0-0.5-0.4-0.3-0.6
		l15.6-23.1c0.1-0.1,0.1-0.3,0-0.4L472.3,8.9c-0.2-0.3,0-0.6,0.3-0.6h104.3c0.2,0,0.4-0.2,0.4-0.4V3.6c0-0.4,0.5-0.5,0.7-0.2L597,32
		C597.1,32.1,597.1,32.3,597,32.4z"/>
	<g>
		<text transform="matrix(1 0 0 1 490.3916 103.4775)"><tspan x="0" y="0" class="st9 st10 st11">Sla het scenario</tspan><tspan x="3.9" y="12.8" class="st9 st10 st11">op en </tspan><tspan x="35.4" y="12.8" class="st12 st13 st11" font-weight="bold">deel </tspan><tspan x="60.5" y="12.8" class="st9 st10 st11">het</tspan><tspan x="8.6" y="25.6" class="st9 st10 st11">met anderen</tspan></text>
	</g>
	<g>
		<path class="st18" d="M548,172.4l-10.7-8.9c-0.4-0.3-0.9-0.3-1.3,0.1c-0.1,0.2-0.2,0.4-0.2,0.6v4.6c-9,2-14.3,7.6-14.3,15
			c0,0.5,0.4,0.9,0.9,0.9c0.4,0,0.7-0.2,0.8-0.6c1.5-4.5,7.5-6.3,12.5-6.5v4.4c0,0.5,0.4,0.9,0.9,0.9c0.2,0,0.4-0.1,0.6-0.2
			l10.7-8.9c0.4-0.3,0.4-0.9,0.1-1.3C548.1,172.5,548,172.5,548,172.4L548,172.4z"/>
		<path class="st18" d="M544.8,184.7c-1,0-1.8,0.8-1.8,1.8v0v5.4h-26.8v-23.2h7.1c1,0,1.8-0.8,1.8-1.8s-0.8-1.8-1.8-1.8h-8.9
			c-1,0-1.8,0.8-1.8,1.8v0v26.8c0,1,0.8,1.8,1.8,1.8h0h30.3c1,0,1.8-0.8,1.8-1.8v0v-7.1C546.5,185.5,545.7,184.7,544.8,184.7
			C544.8,184.7,544.8,184.7,544.8,184.7z"/>
	</g>
	<path class="st15" d="M333.5,175.8h-74.9c-0.6,0-1-0.4-1-1v-22.1c0-0.6,0.4-1,1-1h74.9c0.6,0,1,0.4,1,1v22.1
		C334.5,175.3,334.1,175.8,333.5,175.8z"/>
	<text transform="matrix(1 0 0 1 271.5361 166.4819)" class="st16 st10 st17">Flexibiliteit</text>
	<path class="st15" d="M450.2,191.5h-75.4c-0.5,0-1-0.4-1-1v-22.3c0-0.5,0.5-1,1-1h75.4c0.6,0,1,0.5,1,1v22.3
		C451.2,191.1,450.7,191.5,450.2,191.5z"/>
	<text transform="matrix(1 0 0 1 387.748 182.1728)" class="st20 st10 st17">Resultaten</text>
	<path class="st15" d="M333.5,212.7h-74.9c-0.6,0-1-0.4-1-1v-22.1c0-0.6,0.4-1,1-1h74.9c0.6,0,1,0.4,1,1v22.1
		C334.5,212.3,334.1,212.7,333.5,212.7z"/>
	<text transform="matrix(1 0 0 1 279.6997 203.4365)" class="st16 st10 st17">Kosten</text>
	<g>
		<path class="st18" d="M329.9,163.1c-0.7-0.2-0.8,0.7-0.3,1.1c0.8,0.5,1.6,1.1,2.2,1.8c0.2,0.2,0.6,0.3,0.8,0.1
			c0.1-0.1,0.3-0.2,0.4-0.3c0.4-0.2,0.4-0.8,0-1C332.1,163.9,331,163.4,329.9,163.1z"/>
		<g>
			<path class="st18" d="M331.5,197.9c0.2-0.8,0.5-3.5,0.3-4.3c-0.3-1.5-2-1.9-2.3-0.4c-0.4,2.2-0.9,4.3-1.8,6.4
				c-0.3,0.9,0.2,1.7,1.2,1.7c2.9-0.1,5.7-0.5,8.4-1.3c1.2-0.3,0.9-2.1-0.2-2.3c-1.2-0.3-4.1,0.3-5.2,0.3"/>
		</g>
	</g>
	<g>
		<text transform="matrix(1 0 0 1 172.4746 37.7856)" class="st21 st6 st7 st8">2</text>
	</g>
	<text transform="matrix(1 0 0 1 270.8101 34.5063)" class="st22 st6 st23 st24">OPTIONEEL</text>
	<g>
		<text transform="matrix(1 0 0 1 407.334 37.7856)" class="st21 st6 st7 st8">3</text>
	</g>
	<g>
		<text transform="matrix(1 0 0 1 524.7002 37.7856)" class="st21 st6 st7 st8">4</text>
	</g>
	<path class="st25" d="M335.3,167.9c0,0,16.1,15-5.6,32.1"/>
	<path class="st26" d="M62.1,64.8l3.2,5.5c0.4,0.7-0.1,1.5-0.9,1.5h-6.3c-0.8,0-1.3-0.8-0.9-1.5l3.2-5.5
		C60.8,64.1,61.7,64.1,62.1,64.8z"/>
	<path class="st26" d="M179.1,64.8l3.2,5.5c0.4,0.7-0.1,1.5-0.9,1.5h-6.3c-0.8,0-1.3-0.8-0.9-1.5l3.2-5.5
		C177.8,64.1,178.7,64.1,179.1,64.8z"/>
	<path class="st27" d="M296.9,64.8l3.2,5.5c0.4,0.7-0.1,1.5-0.9,1.5h-6.3c-0.8,0-1.3-0.8-0.9-1.5l3.2-5.5
		C295.6,64.1,296.5,64.1,296.9,64.8z"/>
	<path class="st26" d="M414,64.8l3.2,5.5c0.4,0.7-0.1,1.5-0.9,1.5h-6.3c-0.8,0-1.3-0.8-0.9-1.5l3.2-5.5
		C412.6,64.1,413.6,64.1,414,64.8z"/>
	<path class="st26" d="M531.3,64.8l3.2,5.5c0.4,0.7-0.1,1.5-0.9,1.5h-6.3c-0.8,0-1.3-0.8-0.9-1.5l3.2-5.5
		C530,64.1,531,64.1,531.3,64.8z"/>
	<g>
		<path class="st18" d="M247.9,162.9c-0.7,0.5-2.3,2.5-2.8,3.3c-0.7,1.3,0.3,2.8,1.5,1.8c1.8-1.4,3.5-2.6,5.5-3.7
			c0.8-0.4,1-1.5,0.2-2.1c-2.2-1.8-4.6-3.3-7.2-4.5c-1.1-0.5-2.1,1-1.4,1.9C244.5,160.7,247,162.2,247.9,162.9"/>
	</g>
	<line class="st28" x1="227.5" y1="163.1" x2="249.7" y2="163.1"/>
	<g>
		<path class="st18" d="M230.9,200.2c0.7-0.5,2.3-2.5,2.8-3.3c0.7-1.3-0.3-2.8-1.5-1.8c-1.8,1.4-3.5,2.6-5.5,3.7
			c-0.8,0.4-1,1.5-0.2,2.1c2.2,1.8,4.6,3.3,7.2,4.5c1.1,0.5,2.1-1,1.4-1.9C234.2,202.4,231.8,200.9,230.9,200.2"/>
	</g>
	<line class="st28" x1="251.2" y1="200" x2="229.1" y2="200"/>
</g>
</svg>
