<?xml version="1.0" encoding="UTF-8"?>
<svg id="Layer_1" data-name="Layer 1" xmlns="http://www.w3.org/2000/svg" viewBox="0 0 600 238.62">
  <defs>
    <style>
      .cls-1 {
        font-size: 9.59px;
        letter-spacing: .2em;
      }

      .cls-1, .cls-2, .cls-3, .cls-4, .cls-5, .cls-6, .cls-7, .cls-8, .cls-9, .cls-10, .cls-11, .cls-12, .cls-13, .cls-14, .cls-15, .cls-16, .cls-17, .cls-18 {
        stroke-miterlimit: 10;
      }

      .cls-1, .cls-19, .cls-3, .cls-9, .cls-10, .cls-16, .cls-20 {
        fill: #333;
      }

      .cls-1, .cls-5, .cls-17 {
        font-family: HelveticaNeue-Bold, 'Helvetica Neue';
        font-weight: 700;
        stroke-width: .39px;
      }

      .cls-1, .cls-16 {
        stroke: #333;
      }

      .cls-2 {
        letter-spacing: 0em;
      }

      .cls-2, .cls-3, .cls-7, .cls-9, .cls-10, .cls-12 {
        stroke: #374d5d;
      }

      .cls-2, .cls-3, .cls-7, .cls-12 {
        stroke-width: .2px;
      }

      .cls-2, .cls-7, .cls-12 {
        font-family: HelveticaNeue-Medium, 'Helvetica Neue';
        font-weight: 500;
      }

      .cls-21, .cls-14 {
        fill: #dbedfe;
      }

      .cls-22, .cls-6, .cls-15 {
        fill: #4e98e4;
      }

      .cls-23 {
        letter-spacing: -.02em;
      }

      .cls-4 {
        stroke-width: 1.74px;
      }

      .cls-4, .cls-6, .cls-11, .cls-15 {
        stroke: #4e98e4;
      }

      .cls-4, .cls-11 {
        stroke-dasharray: 0 0 2.4 4;
        stroke-linecap: round;
      }

      .cls-4, .cls-11, .cls-13 {
        fill: none;
      }

      .cls-5, .cls-17 {
        fill: #f7f7f7;
        font-size: 20.77px;
        letter-spacing: .1em;
        stroke: #f7f7f7;
      }

      .cls-24 {
        letter-spacing: -.04em;
      }

      .cls-6, .cls-8, .cls-13 {
        stroke-width: 7.19px;
      }

      .cls-8 {
        fill: #eee;
        stroke: #eee;
      }

      .cls-9 {
        stroke-width: .35px;
      }

      .cls-9, .cls-10 {
        font-size: 10.39px;
      }

      .cls-9, .cls-10, .cls-25 {
        font-family: HelveticaNeue, 'Helvetica Neue';
      }

      .cls-10 {
        stroke-width: .35px;
      }

      .cls-26 {
        font-family: Helvetica, Helvetica;
      }

      .cls-11 {
        stroke-width: 1.6px;
      }

      .cls-12 {
        letter-spacing: 0em;
      }

      .cls-13, .cls-14 {
        stroke: #dbedfe;
      }

      .cls-14, .cls-15 {
        stroke-width: .11px;
      }

      .cls-16 {
        stroke-width: .36px;
      }

      .cls-17 {
        opacity: .9;
      }

      .cls-18 {
        fill: #fff;
        stroke: #efefef;
        stroke-width: .33px;
      }

      .cls-20 {
        font-size: 11.19px;
      }
    </style>
  </defs>
  <path class="cls-8" d="m112.37,79.31v150.15c0,.46-.41.83-.92.83H11.01c-.51,0-.92-.37-.92-.83V79.31h102.27Z"/>
  <path class="cls-6" d="m112.37,76.11v-.75c0-.44-.41-.8-.92-.8H11.01c-.51,0-.92.36-.92.8v.75h102.27Z"/>
  <path class="cls-8" d="m229.39,79.31v150.15c0,.46-.41.83-.92.83h-100.44c-.51,0-.92-.37-.92-.83V79.31h102.27Z"/>
  <path class="cls-6" d="m229.39,76.11v-.75c0-.44-.41-.8-.92-.8h-100.44c-.51,0-.92.36-.92.8v.75h102.27Z"/>
  <path class="cls-8" d="m347.19,79.31v150.15c0,.46-.41.83-.92.83h-100.44c-.51,0-.92-.37-.92-.83V79.31h102.27Z"/>
  <path class="cls-13" d="m347.19,76.11v-.75c0-.44-.41-.8-.92-.8h-100.44c-.51,0-.92.36-.92.8v.75h102.27Z"/>
  <path class="cls-8" d="m464.25,79.31v150.15c0,.46-.41.83-.92.83h-100.44c-.51,0-.92-.37-.92-.83V79.31h102.27Z"/>
  <path class="cls-6" d="m464.25,76.11v-.75c0-.44-.41-.8-.92-.8h-100.44c-.51,0-.92.36-.92.8v.75h102.27Z"/>
  <path class="cls-8" d="m581.61,79.31v150.15c0,.46-.41.83-.92.83h-100.44c-.51,0-.92-.37-.92-.83V79.31h102.27Z"/>
  <path class="cls-6" d="m581.61,76.11v-.75c0-.44-.41-.8-.92-.8h-100.44c-.51,0-.92.36-.92.8v.75h102.27Z"/>
  <path class="cls-22" d="m127.76,32.43l-18.95,28.64c-.22.33-.73.17-.73-.22v-4.27c0-.22-.18-.4-.4-.4H3.36c-.32,0-.51-.36-.33-.62l15.59-23.13c.09-.13.09-.31,0-.44L3.03,8.86c-.18-.26.01-.62.33-.62h104.32c.22,0,.4-.18.4-.4V3.57c0-.39.51-.55.73-.22l18.95,28.64c.09.13.09.31,0,.44Z"/>
  <g>
    <path class="cls-16" d="m66.43,178.98l-3.15,2.89c-.1.09-.2.18-.31.28-.4,2.24-2.37,3.94-4.72,3.94-2.64,0-4.79-2.15-4.79-4.79,0-2.44,1.83-4.45,4.18-4.75.05-.05.09-.1.13-.15l1.25-1.4h.03c.55-.59,1.19-1.28,1.68-1.82-.78-.24-1.62-.37-2.48-.37-4.68,0-8.49,3.81-8.49,8.49s3.81,8.49,8.49,8.49,8.49-3.81,8.49-8.49c0-.8-.11-1.58-.32-2.31Z"/>
    <path class="cls-16" d="m72.64,173.29c-.95.86-1.89,1.73-2.83,2.59.77,1.64,1.21,3.48,1.21,5.41,0,7.03-5.72,12.76-12.76,12.76s-12.76-5.72-12.76-12.76,5.72-12.76,12.76-12.76c1.99,0,3.88.46,5.56,1.28.85-.93,1.72-1.88,2.58-2.82-2.4-1.37-5.18-2.16-8.14-2.16-9.08,0-16.46,7.38-16.46,16.46s7.38,16.46,16.46,16.46,16.46-7.38,16.46-16.46c0-2.9-.75-5.63-2.08-8Z"/>
    <path class="cls-16" d="m84.35,163.02c-.07-.19-.17-.35-.3-.48-.35-.35-.8-.4-1.25-.4-.64,0-1.28,0-1.92,0-.99,0-2.01-.01-3.02,0-.07,0-.11,0-.14,0l-.05-.13-.13-.05s0-.07,0-.14c.01-1.01,0-2.03,0-3.02,0-.64,0-1.28,0-1.92,0-.44-.05-.9-.4-1.25-.13-.13-.29-.23-.48-.3-.82-.31-1.37.24-1.63.51-.45.45-.9.91-1.35,1.36-1.03,1.03-2.09,2.1-3.11,3.18-.33.35-.57.93-.58,1.43-.02.78-.02,1.57-.01,2.34,0,.7.01,1.42,0,2.12,0,.23-.12.53-.27.69-1.75,1.94-3.54,3.89-5.28,5.78l-1.43,1.56c-.77.84-2.58,2.82-3.19,3.48h0s-.21.23-.21.23c-.14.15-.29.32-.44.49-.49.53-1.04,1.14-1.55,1.8-.37.48-.17,1.18.24,1.59.01.01.03.03.04.04.39.35,1.03.55,1.52.17.67-.53,1.29-1.09,1.83-1.59.16-.15.31-.29.46-.42l5.27-4.83c1.89-1.74,3.84-3.53,5.78-5.28.17-.15.46-.27.69-.27.7-.02,1.42-.01,2.12,0,.77,0,1.56.01,2.34-.01.51-.01,1.08-.25,1.43-.58,1.08-1.02,2.14-2.08,3.18-3.11.45-.45.9-.9,1.36-1.35.27-.26.82-.81.51-1.63Z"/>
  </g>
  <text class="cls-17" transform="translate(58.26 37.79)"><tspan x="0" y="0">1</tspan></text>
  <path class="cls-22" d="m244.78,32.43l-18.95,28.64c-.22.33-.73.17-.73-.22v-4.27c0-.22-.18-.4-.4-.4h-104.32c-.32,0-.51-.36-.33-.62l15.59-23.13c.09-.13.09-.31,0-.44l-15.59-23.13c-.18-.26.01-.62.33-.62h104.32c.22,0,.4-.18.4-.4V3.57c0-.39.51-.55.73-.22l18.95,28.64c.09.13.09.31,0,.44Z"/>
  <g>
    <path class="cls-19" d="m40.53,96.59c-.35-.26-.81-.39-1.36-.39-.22,0-.44.02-.66.07-.22.04-.41.12-.58.22s-.3.24-.4.42c-.1.18-.15.39-.15.65,0,.25.07.45.22.6s.34.28.58.37c.24.1.52.18.82.24.31.06.62.13.93.21.32.07.63.16.93.26.31.1.58.24.82.41.24.17.44.39.58.65s.22.59.22.98c0,.42-.1.79-.29,1.09-.19.3-.43.55-.73.74-.3.19-.63.33-1,.41s-.74.13-1.1.13c-.45,0-.87-.06-1.27-.17-.4-.11-.75-.28-1.05-.51-.3-.23-.54-.52-.72-.87-.18-.35-.26-.77-.26-1.26h1.01c0,.34.07.62.2.87s.3.44.51.6c.21.16.46.27.74.35.28.07.57.11.87.11.24,0,.48-.02.72-.07.24-.04.46-.12.65-.23.19-.11.35-.26.47-.44.12-.19.18-.43.18-.72,0-.28-.07-.5-.22-.67-.15-.17-.34-.31-.58-.42s-.52-.2-.82-.26c-.31-.07-.62-.14-.93-.21s-.63-.15-.93-.25c-.31-.09-.58-.22-.82-.37-.24-.15-.44-.35-.58-.59-.15-.24-.22-.55-.22-.91,0-.4.08-.75.25-1.05.16-.29.38-.54.65-.73.27-.19.58-.33.93-.42.35-.09.7-.14,1.07-.14.41,0,.79.05,1.14.15.35.1.66.25.92.46.26.21.47.47.63.79.15.32.24.7.25,1.14h-1.01c-.06-.57-.27-.99-.62-1.25Z"/>
    <path class="cls-19" d="m46.1,97.7v.84h-1.15v3.59c0,.11,0,.2.03.27.02.07.05.12.11.16.05.04.12.06.22.07.09.01.21.02.36.02h.44v.84h-.73c-.25,0-.46-.02-.63-.05-.18-.03-.32-.1-.43-.18s-.19-.22-.24-.38c-.05-.16-.08-.38-.08-.65v-3.68h-.98v-.84h.98v-1.73h.95v1.73h1.15Z"/>
    <path class="cls-19" d="m51.24,103.12c-.43.33-.98.49-1.63.49-.46,0-.86-.07-1.2-.22-.34-.15-.62-.36-.86-.63-.23-.27-.4-.59-.52-.96-.12-.37-.18-.78-.2-1.22,0-.44.07-.84.2-1.21.13-.37.32-.68.56-.95s.53-.48.86-.63c.33-.15.7-.22,1.09-.22.51,0,.94.11,1.28.32s.61.48.82.81.35.69.43,1.07c.08.39.11.76.1,1.11h-4.33c0,.25.02.49.09.72.07.23.18.43.32.6.15.18.34.31.57.42.23.1.5.16.82.16.4,0,.73-.09.99-.28.26-.19.43-.47.51-.85h.94c-.13.65-.41,1.14-.84,1.47Zm-.23-3.71c-.09-.2-.2-.37-.35-.52s-.32-.26-.51-.35c-.2-.09-.42-.13-.65-.13s-.47.04-.67.13c-.2.09-.37.2-.51.35-.14.15-.25.32-.34.52-.08.2-.13.41-.15.63h3.32c-.02-.22-.07-.44-.15-.64Z"/>
    <path class="cls-19" d="m54.16,95.5v7.99h-.95v-7.99h.95Z"/>
    <path class="cls-19" d="m59.38,105.34c-.25.23-.59.35-1.01.35-.17,0-.33-.02-.48-.04v-.82s.07.01.1.02c.03,0,.05,0,.08,0h.2c.21,0,.35-.06.43-.17.07-.12.11-.32.11-.62v-6.35h.95v6.51c0,.51-.12.89-.37,1.12Zm-.58-8.68v-1.16h.95v1.16h-.95Z"/>
    <path class="cls-19" d="m65.33,103.12c-.43.33-.98.49-1.63.49-.46,0-.86-.07-1.2-.22-.34-.15-.62-.36-.86-.63-.23-.27-.4-.59-.52-.96-.12-.37-.18-.78-.2-1.22,0-.44.07-.84.2-1.21.13-.37.32-.68.56-.95s.53-.48.86-.63c.33-.15.7-.22,1.09-.22.51,0,.94.11,1.28.32s.61.48.82.81.35.69.43,1.07c.08.39.11.76.1,1.11h-4.33c0,.25.02.49.09.72.07.23.18.43.32.6.15.18.34.31.57.42.23.1.5.16.82.16.4,0,.73-.09.99-.28.26-.19.43-.47.51-.85h.94c-.13.65-.41,1.14-.84,1.47Zm-.23-3.71c-.09-.2-.2-.37-.35-.52s-.32-.26-.51-.35c-.2-.09-.42-.13-.65-.13s-.47.04-.67.13c-.2.09-.37.2-.51.35-.14.15-.25.32-.34.52-.08.2-.13.41-.15.63h3.32c-.02-.22-.07-.44-.15-.64Z"/>
    <path class="cls-19" d="m70.26,98.54h-3.27v-.84h4.5v.65l-3.54,4.3h3.69v.84h-4.88v-.73l3.49-4.22Z"/>
    <path class="cls-19" d="m76.7,103.12c-.43.33-.98.49-1.63.49-.46,0-.86-.07-1.2-.22-.34-.15-.62-.36-.86-.63-.23-.27-.4-.59-.52-.96-.12-.37-.18-.78-.2-1.22,0-.44.07-.84.2-1.21.13-.37.32-.68.56-.95s.53-.48.86-.63c.33-.15.7-.22,1.09-.22.51,0,.94.11,1.28.32s.61.48.82.81.35.69.43,1.07c.08.39.11.76.1,1.11h-4.33c0,.25.02.49.09.72.07.23.18.43.32.6.15.18.34.31.57.42.23.1.5.16.82.16.4,0,.73-.09.99-.28.26-.19.43-.47.51-.85h.94c-.13.65-.41,1.14-.84,1.47Zm-.23-3.71c-.09-.2-.2-.37-.35-.52s-.32-.26-.51-.35c-.2-.09-.42-.13-.65-.13s-.47.04-.67.13c-.2.09-.37.2-.51.35-.14.15-.25.32-.34.52-.08.2-.13.41-.15.63h3.32c-.02-.22-.07-.44-.15-.64Z"/>
    <path class="cls-19" d="m79.62,95.5v7.99h-.95v-7.99h.95Z"/>
    <path class="cls-19" d="m80.52,98.54v-.84h.97v-.86c0-.47.14-.83.41-1.07.27-.24.67-.36,1.19-.36.09,0,.19,0,.31.02.12.02.22.04.31.07v.83c-.08-.03-.17-.05-.27-.06-.1-.01-.19-.02-.27-.02-.23,0-.41.04-.54.13-.13.09-.19.26-.19.51v.81h1.12v.84h-1.12v4.94h-.95v-4.94h-.97Z"/>
    <path class="cls-19" d="m44.18,115.9c-.43.33-.98.49-1.63.49-.46,0-.86-.07-1.2-.22-.34-.15-.62-.36-.86-.63-.23-.27-.4-.59-.52-.96-.12-.37-.18-.78-.2-1.22,0-.44.07-.84.2-1.21.13-.37.32-.68.56-.95s.53-.48.86-.63c.33-.15.7-.22,1.09-.22.51,0,.94.11,1.28.32s.61.48.82.81.35.69.43,1.07c.08.39.11.76.1,1.11h-4.33c0,.25.02.49.09.72.07.23.18.43.32.6.15.18.34.31.57.42.23.1.5.16.82.16.4,0,.73-.09.99-.28.26-.19.43-.47.51-.85h.94c-.13.65-.41,1.14-.84,1.47Zm-.23-3.71c-.09-.2-.2-.37-.35-.52s-.32-.26-.51-.35c-.2-.09-.42-.13-.65-.13s-.47.04-.67.13c-.2.09-.37.2-.51.35-.14.15-.25.32-.34.52-.08.2-.13.41-.15.63h3.32c-.02-.22-.07-.44-.15-.64Z"/>
    <path class="cls-19" d="m50.19,115.9c-.43.33-.98.49-1.63.49-.46,0-.86-.07-1.2-.22-.34-.15-.62-.36-.86-.63-.23-.27-.4-.59-.52-.96-.12-.37-.18-.78-.2-1.22,0-.44.07-.84.2-1.21.13-.37.32-.68.56-.95s.53-.48.86-.63c.33-.15.7-.22,1.09-.22.51,0,.94.11,1.28.32s.61.48.82.81.35.69.43,1.07c.08.39.11.76.1,1.11h-4.33c0,.25.02.49.09.72.07.23.18.43.32.6.15.18.34.31.57.42.23.1.5.16.82.16.4,0,.73-.09.99-.28.26-.19.43-.47.51-.85h.94c-.13.65-.41,1.14-.84,1.47Zm-.23-3.71c-.09-.2-.2-.37-.35-.52s-.32-.26-.51-.35c-.2-.09-.42-.13-.65-.13s-.47.04-.67.13c-.2.09-.37.2-.51.35-.14.15-.25.32-.34.52-.08.2-.13.41-.15.63h3.32c-.02-.22-.07-.44-.15-.64Z"/>
    <path class="cls-19" d="m53,110.49v.92h.02c.4-.7,1.02-1.05,1.88-1.05.38,0,.7.05.95.16.25.1.46.25.62.44.16.19.27.41.33.67.06.26.09.54.09.86v3.8h-.95v-3.92c0-.36-.1-.64-.31-.85s-.5-.31-.86-.31c-.29,0-.54.04-.76.13-.21.09-.39.22-.53.38s-.25.36-.32.58c-.07.22-.11.46-.11.72v3.27h-.95v-5.78h.9Z"/>
    <path class="cls-3" d="m66.83,116.27h-1.21v-.78h-.02c-.17.34-.42.58-.75.72s-.67.22-1.04.22c-.46,0-.85-.08-1.19-.24s-.62-.38-.84-.65c-.22-.28-.39-.6-.5-.98-.11-.38-.17-.78-.17-1.21,0-.52.07-.97.21-1.35s.33-.69.56-.94.5-.43.81-.54c.3-.12.61-.17.92-.17.18,0,.36.02.55.05s.37.09.54.16c.17.07.33.17.48.29.15.12.27.25.36.41h.02v-2.95h1.27v7.99Zm-4.45-2.83c0,.25.03.49.09.73s.16.45.29.64c.13.19.3.34.5.45.2.11.44.17.72.17s.53-.06.73-.18c.21-.12.37-.28.5-.47s.23-.41.29-.65c.06-.24.09-.49.09-.74,0-.64-.14-1.14-.43-1.5-.29-.36-.68-.54-1.17-.54-.3,0-.55.06-.75.18s-.37.28-.5.48c-.13.2-.22.42-.28.67-.06.25-.08.5-.08.77Z"/>
    <path class="cls-3" d="m70.87,116.43c-.46,0-.87-.08-1.24-.23-.36-.15-.67-.36-.92-.63s-.44-.59-.57-.96c-.13-.37-.2-.78-.2-1.23s.06-.85.2-1.22c.13-.37.32-.69.57-.96s.56-.48.92-.63c.36-.15.77-.23,1.24-.23s.87.08,1.24.23c.36.15.67.36.92.63s.44.59.57.96c.13.37.2.78.2,1.22s-.06.86-.2,1.23c-.13.37-.32.69-.57.96s-.56.48-.92.63c-.36.15-.77.23-1.24.23Zm0-1.01c.28,0,.53-.06.74-.18.21-.12.38-.28.51-.47s.23-.41.3-.65.1-.49.1-.74-.03-.49-.1-.74-.16-.46-.3-.65c-.13-.19-.31-.34-.51-.46-.21-.12-.46-.18-.74-.18s-.53.06-.74.18c-.21.12-.38.27-.51.46-.13.19-.23.41-.3.65s-.1.49-.1.74.03.5.1.74.16.46.3.65.31.35.51.47c.21.12.45.18.74.18Z"/>
    <path class="cls-3" d="m75.85,113.71c0,.22.03.44.09.65.06.21.16.39.29.55.13.16.29.28.48.38.19.09.42.14.69.14.37,0,.67-.08.9-.24.23-.16.4-.4.51-.72h1.21c-.07.31-.18.59-.35.84-.16.25-.36.45-.59.62-.23.17-.49.29-.78.38-.29.09-.59.13-.9.13-.46,0-.86-.07-1.21-.22-.35-.15-.65-.36-.89-.63-.24-.27-.42-.59-.55-.96-.12-.37-.18-.78-.18-1.23,0-.41.06-.8.2-1.17.13-.37.32-.69.56-.97s.54-.5.88-.67c.34-.16.73-.25,1.16-.25.46,0,.86.1,1.23.29.36.19.66.44.9.76.24.31.41.67.52,1.08.11.41.14.83.08,1.26h-4.25Zm2.98-.84c-.01-.2-.06-.4-.13-.58-.07-.19-.17-.35-.29-.49-.12-.14-.27-.25-.45-.34-.18-.09-.37-.13-.59-.13s-.43.04-.61.12c-.18.08-.34.19-.47.32s-.23.3-.31.49c-.08.19-.12.39-.13.6h2.98Z"/>
    <path class="cls-3" d="m81.11,108.28h1.28v7.99h-1.28v-7.99Z"/>
  </g>
  <text class="cls-20" transform="translate(135.67 103.49)"><tspan class="cls-25" x="0" y="0">Balanceer</tspan><tspan class="cls-26" x="50.12" y="0"> </tspan><tspan class="cls-7" x="53.23" y="0">vraag</tspan><tspan class="cls-7" x="82.05" y="0"> </tspan><tspan class="cls-25" x="15.33" y="12.78">en </tspan><tspan class="cls-12" x="30.67" y="12.78">aanbod</tspan></text>
  <rect class="cls-18" x="139.29" y="151.77" width="76.94" height="24.15" rx="3" ry="3"/>
  <text class="cls-9" transform="translate(164.49 166.63)"><tspan class="cls-24" x="0" y="0">V</tspan><tspan x="5.96" y="0">raag</tspan></text>
  <rect class="cls-18" x="139.29" y="188.73" width="76.94" height="24.15" rx="3" ry="3"/>
  <text class="cls-9" transform="translate(159.58 203.59)"><tspan x="0" y="0">Aanbod</tspan></text>
  <path class="cls-22" d="m143.96,163.07c-2.88.08-5.67.52-8.44,1.29-1.2.33-.92,2.08.18,2.32,1.23.26,2.43.37,3.62.33-4.06,4.35-6.17,10.24-5.96,16.3.21,6.19,2.97,16.14,9.83,17.95.66.17.85-.75.34-1.05-5.52-3.35-7.92-11.39-7.91-17.5,0-5.48,2.06-10.74,5.89-14.54-.2.85-.36,1.7-.47,2.58-.17,1.49,2.01,1.94,2.31.44.43-2.21.94-4.29,1.79-6.39.35-.86-.24-1.75-1.18-1.72Z"/>
  <path class="cls-22" d="m211.46,201.28c2.88-.08,5.67-.52,8.44-1.29,1.2-.33.92-2.08-.18-2.32-1.23-.26-2.43-.37-3.62-.33,4.06-4.35,6.17-10.24,5.96-16.3-.21-6.19-2.97-16.14-9.83-17.95-.66-.17-.85.75-.34,1.05,5.52,3.35,7.92,11.39,7.91,17.5,0,5.48-2.06,10.74-5.89,14.54.2-.85.36-1.7.47-2.58.17-1.49-2.01-1.94-2.31-.44-.43,2.21-.94,4.29-1.79,6.39-.35.86.24,1.75,1.18,1.72Z"/>
  <path class="cls-21" d="m362.58,32.43l-18.95,28.64c-.22.33-.73.17-.73-.22v-4.27c0-.22-.18-.4-.4-.4h-104.32c-.32,0-.51-.36-.33-.62l15.59-23.13c.09-.13.09-.31,0-.44l-15.59-23.13c-.18-.26.01-.62.33-.62h104.32c.22,0,.4-.18.4-.4V3.57c0-.39.51-.55.73-.22l18.95,28.64c.09.13.09.31,0,.44Z"/>
  <text class="cls-20" transform="translate(254.54 97.83)"><tspan class="cls-25"><tspan x="0" y="0">Maak aannames</tspan></tspan><tspan class="cls-25" x=".94" y="12.78">over</tspan><tspan class="cls-26" x="22.69" y="12.78"> </tspan><tspan class="cls-7" x="25.79" y="12.78">flexibiliteit,</tspan><tspan class="cls-7"><tspan x="17.09" y="25.57">emissies </tspan></tspan><tspan class="cls-25" x="16.06" y="38.35">en </tspan><tspan class="cls-2" x="31.4" y="38.35">kosten</tspan></text>
  <path class="cls-22" d="m479.64,32.43l-18.95,28.64c-.22.33-.73.17-.73-.22v-4.27c0-.22-.18-.4-.4-.4h-104.32c-.32,0-.51-.36-.33-.62l15.59-23.13c.09-.13.09-.31,0-.44l-15.59-23.13c-.18-.26.01-.62.33-.62h104.32c.22,0,.4-.18.4-.4V3.57c0-.39.51-.55.73-.22l18.95,28.64c.09.13.09.31,0,.44Z"/>
  <text class="cls-20" transform="translate(390.11 103.35)"><tspan class="cls-25"><tspan x="0" y="0">Bekijk de</tspan></tspan><tspan class="cls-7"><tspan class="cls-23" x="-2.6" y="12.78">r</tspan><tspan x="1.14" y="12.78">esultaten</tspan></tspan><tspan class="cls-7"><tspan x="3.62" y="25.57">en data</tspan></tspan></text>
  <path class="cls-22" d="m597,32.43l-18.95,28.64c-.22.33-.73.17-.73-.22v-4.27c0-.22-.18-.4-.4-.4h-104.32c-.32,0-.51-.36-.33-.62l15.59-23.13c.09-.13.09-.31,0-.44l-15.59-23.13c-.18-.26.01-.62.33-.62h104.32c.22,0,.4-.18.4-.4V3.57c0-.39.51-.55.73-.22l18.95,28.64c.09.13.09.31,0,.44Z"/>
  <text class="cls-20" transform="translate(490.39 103.48)"><tspan class="cls-25"><tspan x="0" y="0">Sla het scenario</tspan></tspan><tspan class="cls-25" x="3.92" y="12.78">op en </tspan><tspan class="cls-7" x="35.42" y="12.78">deel </tspan><tspan class="cls-25" x="60.5" y="12.78">het</tspan><tspan class="cls-25"><tspan x="8.69" y="25.57">met ande</tspan><tspan class="cls-23" x="55.73" y="25.57">r</tspan><tspan x="59.26" y="25.57">en</tspan></tspan></text>
  <g>
    <path class="cls-19" d="m548.01,172.44l-10.71-8.92c-.38-.32-.94-.26-1.26.12-.13.16-.21.36-.21.57v4.63c-8.96,2.02-14.28,7.59-14.28,15,0,.49.4.89.89.89.38,0,.72-.25.85-.61,1.51-4.55,7.51-6.33,12.54-6.51v4.45c0,.49.4.89.89.89.21,0,.41-.07.57-.21l10.71-8.92c.38-.32.43-.88.11-1.26-.03-.04-.07-.08-.11-.11h0Z"/>
    <path class="cls-19" d="m544.76,184.73c-.99,0-1.78.8-1.78,1.78h0v5.36h-26.77v-23.2h7.14c.99,0,1.78-.8,1.78-1.78s-.8-1.78-1.78-1.78h-8.92c-.99,0-1.78.8-1.78,1.78h0v26.78c0,.99.8,1.78,1.78,1.78h30.35c.99,0,1.78-.8,1.78-1.78h0v-7.14c0-.99-.8-1.78-1.78-1.78h0Z"/>
  </g>
  <rect class="cls-18" x="257.58" y="151.62" width="76.94" height="24.15" rx="3" ry="3"/>
  <text class="cls-9" transform="translate(271.54 166.48)"><tspan x="0" y="0">Flexibiliteit</tspan></text>
  <rect class="cls-18" x="373.77" y="167.22" width="77.41" height="24.3" rx="3" ry="3"/>
  <text class="cls-10" transform="translate(387.75 182.17)"><tspan x="0" y="0">Resultaten</tspan></text>
  <rect class="cls-18" x="257.46" y="205.37" width="76.94" height="24.15" rx="3" ry="3"/>
  <text class="cls-9" transform="translate(279.57 220.23)"><tspan x="0" y="0">Kosten</tspan></text>
  <rect class="cls-18" x="257.21" y="178.5" width="76.94" height="24.15" rx="3" ry="3"/>
  <text class="cls-9" transform="translate(275.19 193.36)"><tspan x="0" y="0">Emissies</tspan></text>
  <path class="cls-22" d="m331.53,187.95c.2-.85.46-3.46.26-4.34-.34-1.46-2.02-1.93-2.31-.43-.43,2.21-.93,4.3-1.77,6.39-.35.86.25,1.75,1.18,1.72,2.88-.09,5.66-.54,8.44-1.32,1.2-.34.92-2.08-.19-2.31-1.23-.26-4.05.25-5.25.29"/>
  <text class="cls-5" transform="translate(172.47 37.79)"><tspan x="0" y="0">2</tspan></text>
  <text class="cls-1" transform="translate(267.81 34.51)"><tspan x="0" y="0">OPTIONEEL</tspan></text>
  <text class="cls-5" transform="translate(407.33 37.79)"><tspan x="0" y="0">3</tspan></text>
  <text class="cls-5" transform="translate(524.7 37.79)"><tspan x="0" y="0">4</tspan></text>
  <path class="cls-11" d="m335.32,163.07s16.14,11.94-5.63,25.66"/>
  <path class="cls-22" d="m331.33,221.42c.2-.85.46-3.46.26-4.34-.34-1.46-2.02-1.93-2.31-.43-.43,2.21-.93,4.3-1.77,6.39-.35.86.25,1.75,1.18,1.72,2.88-.09,5.66-.54,8.44-1.32,1.2-.34.92-2.08-.19-2.31-1.23-.26-4.05.25-5.25.29"/>
  <path class="cls-11" d="m335.13,196.54s16.14,11.94-5.63,25.66"/>
  <path class="cls-15" d="m62.1,64.76l3.16,5.48c.39.67-.1,1.51-.87,1.51h-6.33c-.77,0-1.26-.84-.87-1.51l3.16-5.48c.39-.67,1.35-.67,1.74,0Z"/>
  <path class="cls-15" d="m179.12,64.76l3.16,5.48c.39.67-.1,1.51-.87,1.51h-6.33c-.77,0-1.26-.84-.87-1.51l3.16-5.48c.39-.67,1.35-.67,1.74,0Z"/>
  <path class="cls-14" d="m296.92,64.76l3.16,5.48c.39.67-.1,1.51-.87,1.51h-6.33c-.77,0-1.26-.84-.87-1.51l3.16-5.48c.39-.67,1.35-.67,1.74,0Z"/>
  <path class="cls-15" d="m413.98,64.76l3.16,5.48c.39.67-.1,1.51-.87,1.51h-6.33c-.77,0-1.26-.84-.87-1.51l3.16-5.48c.39-.67,1.35-.67,1.74,0Z"/>
  <path class="cls-15" d="m531.35,64.76l3.16,5.48c.39.67-.1,1.51-.87,1.51h-6.33c-.77,0-1.26-.84-.87-1.51l3.16-5.48c.39-.67,1.35-.67,1.74,0Z"/>
  <path class="cls-22" d="m247.92,162.93c-.71.51-2.35,2.54-2.77,3.34-.7,1.32.25,2.78,1.46,1.84,1.77-1.38,3.52-2.63,5.54-3.65.83-.42.96-1.48.24-2.07-2.23-1.83-4.62-3.32-7.23-4.55-1.13-.53-2.06.97-1.38,1.87.75,1,3.22,2.47,4.15,3.23"/>
  <line class="cls-4" x1="227.52" y1="163.07" x2="249.7" y2="163.07"/>
  <path class="cls-22" d="m230.05,218.94c.71-.51,2.35-2.54,2.77-3.34.7-1.32-.25-2.78-1.46-1.84-1.77,1.38-3.52,2.63-5.54,3.65-.83.42-.96,1.48-.24,2.07,2.23,1.83,4.62,3.32,7.23,4.55,1.13.53,2.06-.97,1.38-1.87-.75-1-3.22-2.47-4.15-3.23"/>
  <line class="cls-4" x1="250.45" y1="218.8" x2="228.26" y2="218.8"/>
</svg>