<?xml version="1.0" encoding="utf-8"?>
<!-- Generator: Adobe Illustrator 19.2.0, SVG Export Plug-In . SVG Version: 6.00 Build 0)  -->
<svg version="1.1" id="Layer_1" xmlns="http://www.w3.org/2000/svg" xmlns:xlink="http://www.w3.org/1999/xlink" x="0px" y="0px"
	 viewBox="0 0 600 238.6" style="enable-background:new 0 0 600 238.6;" xml:space="preserve">
<style type="text/css">
	.st0{fill:#F5F8FB;stroke:#F5F8FB;stroke-width:7.1912;stroke-miterlimit:10;}
	.st1{fill:#70A2CF;stroke:#70A2CF;stroke-width:7.1912;stroke-miterlimit:10;}
	.st2{fill:none;stroke:#9BBFDF;stroke-width:7.1912;stroke-miterlimit:10;}
	.st3{fill:#70A2CF;}
	.st4{fill:#B2C7D9;stroke:#B2C7D9;stroke-width:0.3565;stroke-miterlimit:10;}
	.st5{opacity:0.9;}
	.st6{fill:#F7F7F7;stroke:#F7F7F7;stroke-width:0.3943;stroke-miterlimit:10;}
	.st7{fill:#374D5D;}
	.st8{fill:#374D5D;stroke:#374D5D;stroke-width:0.1972;stroke-miterlimit:10;}
	.st9{fill:#FFFFFF;stroke:#EFEFEF;stroke-width:0.3257;stroke-miterlimit:10;}
	.st10{fill:#374D5D;stroke:#374D5D;stroke-width:0.3527;stroke-miterlimit:10;}
	.st11{fill:#B2C7D9;}
	.st12{fill:#9BBFDF;}
	.st13{fill:#374D5D;stroke:#374D5D;stroke-width:0.3548;stroke-miterlimit:10;}
	.st14{opacity:0.7;}
	.st15{fill:none;stroke:#B2C7D9;stroke-width:1.598;stroke-linecap:round;stroke-miterlimit:10;stroke-dasharray:2.3971,3.9951;}
	.st16{fill:#70A2CF;stroke:#70A2CF;stroke-width:0.1132;stroke-miterlimit:10;}
	.st17{fill:#9BBFDF;stroke:#9BBFDF;stroke-width:0.1132;stroke-miterlimit:10;}
	.st18{fill:none;stroke:#B2C7D9;stroke-width:1.7355;stroke-linecap:round;stroke-miterlimit:10;stroke-dasharray:2.3971,3.9951;}
	.st19{opacity:0.9;fill:#F7F7F7;stroke:#F7F7F7;stroke-width:0.3995;stroke-miterlimit:10;}
	.st20{font-family:'Helvetica Neue', Helvetica, Arial, sans-serif; }
	.st21{font-size:20.7745px;}
	.st22{letter-spacing:2;}
	.st23{font-family:'Helvetica Neue', Helvetica, Arial, sans-serif;}
	.st24{font-size:11.1862px;}
	.st25{fill:#374D5D;stroke:#374D5D;stroke-width:0.1997;stroke-miterlimit:10;}
	.st26{font-family:'Helvetica Neue', Helvetica, Arial, sans-serif;}
	.st27{font-family:'Helvetica Neue', Helvetica, Arial, sans-serif;}
	.st28{fill:#374D5D;stroke:#374D5D;stroke-width:0.3573;stroke-miterlimit:10;}
	.st29{font-size:10.3872px;}
	.st30{fill:#374D5D;stroke:#374D5D;stroke-width:0.3595;stroke-miterlimit:10;}
	.st31{fill:#F7F7F7;stroke:#F7F7F7;stroke-width:0.3995;stroke-miterlimit:10;}
	.st32{opacity:0.7;fill:#F7F7F7;stroke:#F7F7F7;stroke-width:0.3995;stroke-miterlimit:10;}
	.st33{font-size:9.5882px;}
	.st34{letter-spacing:1;}
</style>
<g>
	<path class="st0" d="M112.4,79.1v150.1c0,0.5-0.4,0.8-0.9,0.8H11c-0.5,0-0.9-0.4-0.9-0.8V79.1H112.4z"/>
	<path class="st1" d="M112.4,75.9v-0.8c0-0.4-0.4-0.8-0.9-0.8H11c-0.5,0-0.9,0.4-0.9,0.8v0.8H112.4z"/>
	<path class="st0" d="M229.4,79.1v150.1c0,0.5-0.4,0.8-0.9,0.8H128c-0.5,0-0.9-0.4-0.9-0.8V79.1H229.4z"/>
	<path class="st1" d="M229.4,75.9v-0.8c0-0.4-0.4-0.8-0.9-0.8H128c-0.5,0-0.9,0.4-0.9,0.8v0.8H229.4z"/>
	<path class="st0" d="M347.2,79.1v150.1c0,0.5-0.4,0.8-0.9,0.8H245.8c-0.5,0-0.9-0.4-0.9-0.8V79.1H347.2z"/>
	<path class="st2" d="M347.2,75.9v-0.8c0-0.4-0.4-0.8-0.9-0.8H245.8c-0.5,0-0.9,0.4-0.9,0.8v0.8H347.2z"/>
	<path class="st0" d="M464.2,79.1v150.1c0,0.5-0.4,0.8-0.9,0.8H362.9c-0.5,0-0.9-0.4-0.9-0.8V79.1H464.2z"/>
	<path class="st1" d="M464.2,75.9v-0.8c0-0.4-0.4-0.8-0.9-0.8H362.9c-0.5,0-0.9,0.4-0.9,0.8v0.8H464.2z"/>
	<path class="st0" d="M581.6,79.1v150.1c0,0.5-0.4,0.8-0.9,0.8H480.3c-0.5,0-0.9-0.4-0.9-0.8V79.1H581.6z"/>
	<path class="st1" d="M581.6,75.9v-0.8c0-0.4-0.4-0.8-0.9-0.8H480.3c-0.5,0-0.9,0.4-0.9,0.8v0.8H581.6z"/>
	<path class="st3" d="M127.8,32.3l-19,28.6c-0.2,0.3-0.7,0.2-0.7-0.2v-4.3c0-0.2-0.2-0.4-0.4-0.4H3.4C3,56,2.9,55.7,3,55.4
		l15.6-23.1c0.1-0.1,0.1-0.3,0-0.4L3,8.7C2.9,8.4,3,8.1,3.4,8.1h104.3c0.2,0,0.4-0.2,0.4-0.4V3.4c0-0.4,0.5-0.5,0.7-0.2l19,28.6
		C127.8,32,127.8,32.1,127.8,32.3z"/>
	<g>
		<path class="st4" d="M66.4,178.8l-3.2,2.9c-0.1,0.1-0.2,0.2-0.3,0.3c-0.4,2.2-2.4,3.9-4.7,3.9c-2.6,0-4.8-2.1-4.8-4.8
			c0-2.4,1.8-4.5,4.2-4.8c0-0.1,0.1-0.1,0.1-0.1l1.3-1.4l0,0c0.6-0.6,1.2-1.3,1.7-1.8c-0.8-0.2-1.6-0.4-2.5-0.4
			c-4.7,0-8.5,3.8-8.5,8.5c0,4.7,3.8,8.5,8.5,8.5s8.5-3.8,8.5-8.5C66.7,180.3,66.6,179.5,66.4,178.8z"/>
		<path class="st4" d="M72.6,173.1c-0.9,0.9-1.9,1.7-2.8,2.6c0.8,1.6,1.2,3.5,1.2,5.4c0,7-5.7,12.8-12.8,12.8s-12.8-5.7-12.8-12.8
			c0-7,5.7-12.8,12.8-12.8c2,0,3.9,0.5,5.6,1.3c0.9-0.9,1.7-1.9,2.6-2.8c-2.4-1.4-5.2-2.2-8.1-2.2c-9.1,0-16.5,7.4-16.5,16.5
			c0,9.1,7.4,16.5,16.5,16.5s16.5-7.4,16.5-16.5C74.7,178.2,74,175.5,72.6,173.1z"/>
		<path class="st4" d="M84.3,162.8c-0.1-0.2-0.2-0.4-0.3-0.5c-0.3-0.3-0.8-0.4-1.2-0.4c-0.6,0-1.3,0-1.9,0c-1,0-2,0-3,0
			c-0.1,0-0.1,0-0.1,0l-0.1-0.1l-0.1-0.1c0,0,0-0.1,0-0.1c0-1,0-2,0-3c0-0.6,0-1.3,0-1.9c0-0.4,0-0.9-0.4-1.2
			c-0.1-0.1-0.3-0.2-0.5-0.3c-0.8-0.3-1.4,0.2-1.6,0.5c-0.4,0.5-0.9,0.9-1.3,1.4c-1,1-2.1,2.1-3.1,3.2c-0.3,0.4-0.6,0.9-0.6,1.4
			c0,0.8,0,1.6,0,2.3c0,0.7,0,1.4,0,2.1c0,0.2-0.1,0.5-0.3,0.7c-1.7,1.9-3.5,3.9-5.3,5.8l-1.4,1.6c-0.8,0.8-2.6,2.8-3.2,3.5l0,0
			l-0.2,0.2c-0.1,0.2-0.3,0.3-0.4,0.5c-0.5,0.5-1,1.1-1.6,1.8c-0.4,0.5-0.2,1.2,0.2,1.6c0,0,0,0,0,0c0.4,0.4,1,0.6,1.5,0.2
			c0.7-0.5,1.3-1.1,1.8-1.6c0.2-0.1,0.3-0.3,0.5-0.4l5.3-4.8c1.9-1.7,3.8-3.5,5.8-5.3c0.2-0.1,0.5-0.3,0.7-0.3c0.7,0,1.4,0,2.1,0
			c0.8,0,1.6,0,2.3,0c0.5,0,1.1-0.2,1.4-0.6c1.1-1,2.1-2.1,3.2-3.1c0.5-0.4,0.9-0.9,1.4-1.3C84.1,164.2,84.7,163.7,84.3,162.8z"/>
	</g>
	<text transform="matrix(1 0 0 1 58.2603 37.6112)" class="st19 st20 st21 st22">1</text>
	<path class="st3" d="M244.8,32.3l-19,28.6c-0.2,0.3-0.7,0.2-0.7-0.2v-4.3c0-0.2-0.2-0.4-0.4-0.4H120.4c-0.3,0-0.5-0.4-0.3-0.6
		l15.6-23.1c0.1-0.1,0.1-0.3,0-0.4L120,8.7c-0.2-0.3,0-0.6,0.3-0.6h104.3c0.2,0,0.4-0.2,0.4-0.4V3.4c0-0.4,0.5-0.5,0.7-0.2l19,28.6
		C244.9,32,244.9,32.1,244.8,32.3z"/>
	<text transform="matrix(1 0 0 1 34.3994 103.3124)"><tspan x="0" y="0" class="st7 st23 st24">What’s the </tspan><tspan x="12.6" y="12.8" class="st25 st26 st24" font-weight="bold">goal</tspan><tspan x="34.8" y="12.8" class="st7 st23 st24">?</tspan></text>
	<g>
		<text transform="matrix(1 0 0 1 133.8145 103.3124)"><tspan x="0" y="0" class="st7 st23 st24">Balance</tspan><tspan x="40.4" y="0" class="st7 st27 st24"> </tspan><tspan x="43.5" y="0" class="st25 st26 st24" font-weight="bold">demand</tspan><tspan x="85.8" y="0" class="st25 st26 st24"> </tspan><tspan x="16.3" y="12.8" class="st7 st23 st24">and </tspan><tspan x="38.2" y="12.8" class="st25 st26 st24" font-weight="bold">supply</tspan></text>
	</g>
	<path class="st9" d="M215.2,175.7h-74.9c-0.6,0-1-0.5-1-1v-22.1c0-0.5,0.4-1,1-1h74.9c0.6,0,1,0.5,1,1v22.1
		C216.2,175.3,215.8,175.7,215.2,175.7z"/>
	<text transform="matrix(1 0 0 1 158.1284 166.4559)" class="st28 st23 st29">Demand</text>
	<path class="st9" d="M215.2,212.7h-74.9c-0.6,0-1-0.4-1-1v-22.1c0-0.5,0.4-1,1-1h74.9c0.6,0,1,0.5,1,1v22.1
		C216.2,212.2,215.8,212.7,215.2,212.7z"/>
	<text transform="matrix(1 0 0 1 161.6001 203.411)" class="st28 st23 st29">Supply</text>
	<g>
		<path class="st11" d="M144,162.9c-2.9,0.1-5.7,0.5-8.4,1.3c-1.2,0.3-0.9,2.1,0.2,2.3c1.2,0.3,2.4,0.4,3.6,0.3
			c-4.1,4.3-6.2,10.2-6,16.3c0.2,6.2,3,16.1,9.8,17.9c0.7,0.2,0.8-0.7,0.3-1.1c-5.5-3.4-7.9-11.4-7.9-17.5c0-5.5,2.1-10.7,5.9-14.5
			c-0.2,0.8-0.4,1.7-0.5,2.6c-0.2,1.5,2,1.9,2.3,0.4c0.4-2.2,0.9-4.3,1.8-6.4C145.5,163.8,144.9,162.9,144,162.9z"/>
	</g>
	<g>
		<path class="st11" d="M211.5,201.1c2.9-0.1,5.7-0.5,8.4-1.3c1.2-0.3,0.9-2.1-0.2-2.3c-1.2-0.3-2.4-0.4-3.6-0.3
			c4.1-4.3,6.2-10.2,6-16.3c-0.2-6.2-3-16.1-9.8-17.9c-0.7-0.2-0.8,0.7-0.3,1.1c5.5,3.4,7.9,11.4,7.9,17.5c0,5.5-2.1,10.7-5.9,14.5
			c0.2-0.8,0.4-1.7,0.5-2.6c0.2-1.5-2-1.9-2.3-0.4c-0.4,2.2-0.9,4.3-1.8,6.4C209.9,200.2,210.5,201.1,211.5,201.1z"/>
	</g>
	<path class="st12" d="M362.6,32.3l-19,28.6c-0.2,0.3-0.7,0.2-0.7-0.2v-4.3c0-0.2-0.2-0.4-0.4-0.4H238.2c-0.3,0-0.5-0.4-0.3-0.6
		l15.6-23.1c0.1-0.1,0.1-0.3,0-0.4L237.8,8.7c-0.2-0.3,0-0.6,0.3-0.6h104.3c0.2,0,0.4-0.2,0.4-0.4V3.4c0-0.4,0.5-0.5,0.7-0.2
		l19,28.6C362.7,32,362.7,32.1,362.6,32.3z"/>
	<g>
		<text transform="matrix(1 0 0 1 248.8022 103.3124)"><tspan x="0" y="0" class="st7 st23 st24">Make assumptions</tspan><tspan x="8.5" y="12.8" class="st7 st23 st24">about</tspan><tspan x="37.3" y="12.8" class="st7 st27 st24"> </tspan><tspan x="40.4" y="12.8" class="st25 st26 st24" font-weight="bold">flexibility</tspan><tspan x="22.2" y="25.6" class="st7 st23 st24">and </tspan><tspan x="44.1" y="25.6" class="st25 st26 st24" font-weight="bold">costs</tspan></text>
	</g>
	<path class="st3" d="M479.6,32.3l-19,28.6c-0.2,0.3-0.7,0.2-0.7-0.2v-4.3c0-0.2-0.2-0.4-0.4-0.4H355.2c-0.3,0-0.5-0.4-0.3-0.6
		l15.6-23.1c0.1-0.1,0.1-0.3,0-0.4L354.9,8.7c-0.2-0.3,0-0.6,0.3-0.6h104.3c0.2,0,0.4-0.2,0.4-0.4V3.4c0-0.4,0.5-0.5,0.7-0.2
		l19,28.6C479.7,32,479.7,32.1,479.6,32.3z"/>
	<g>
		<text transform="matrix(1 0 0 1 387.623 103.1757)"><tspan x="0" y="0" class="st7 st23 st24">Check the</tspan><tspan x="8.2" y="12.8" class="st25 st26 st24" font-weight="bold">results</tspan></text>
	</g>
	<path class="st3" d="M597,32.3l-19,28.6c-0.2,0.3-0.7,0.2-0.7-0.2v-4.3c0-0.2-0.2-0.4-0.4-0.4H472.6c-0.3,0-0.5-0.4-0.3-0.6
		l15.6-23.1c0.1-0.1,0.1-0.3,0-0.4L472.3,8.7c-0.2-0.3,0-0.6,0.3-0.6h104.3c0.2,0,0.4-0.2,0.4-0.4V3.4c0-0.4,0.5-0.5,0.7-0.2
		l19,28.6C597.1,32,597.1,32.1,597,32.3z"/>
	<g>
		<text transform="matrix(1 0 0 1 485.5146 103.3026)"><tspan x="0" y="0" class="st25 st26 st24" font-weight="bold">Save </tspan><tspan x="28.6" y="0" class="st7 st23 st24">the scenario</tspan><tspan x="15.1" y="12.8" class="st7 st23 st24">and </tspan><tspan x="37.1" y="12.8" class="st25 st26 st24" font-weight="bold">share </tspan><tspan x="68.8" y="12.8" class="st7 st23 st24">it</tspan><tspan x="17.3" y="25.6" class="st7 st23 st24">with others</tspan></text>
	</g>
	<g>
		<path class="st11" d="M548,172.3l-10.7-8.9c-0.4-0.3-0.9-0.3-1.3,0.1c-0.1,0.2-0.2,0.4-0.2,0.6v4.6c-9,2-14.3,7.6-14.3,15
			c0,0.5,0.4,0.9,0.9,0.9c0.4,0,0.7-0.2,0.8-0.6c1.5-4.5,7.5-6.3,12.5-6.5v4.4c0,0.5,0.4,0.9,0.9,0.9c0.2,0,0.4-0.1,0.6-0.2
			l10.7-8.9c0.4-0.3,0.4-0.9,0.1-1.3C548.1,172.3,548,172.3,548,172.3L548,172.3z"/>
		<path class="st11" d="M544.8,184.5c-1,0-1.8,0.8-1.8,1.8v0v5.4h-26.8v-23.2h7.1c1,0,1.8-0.8,1.8-1.8s-0.8-1.8-1.8-1.8h-8.9
			c-1,0-1.8,0.8-1.8,1.8c0,0,0,0,0,0v26.8c0,1,0.8,1.8,1.8,1.8h0h30.3c1,0,1.8-0.8,1.8-1.8v0v-7.1
			C546.5,185.3,545.7,184.6,544.8,184.5C544.8,184.5,544.8,184.5,544.8,184.5z"/>
	</g>
	<path class="st9" d="M333.5,175.6h-74.9c-0.6,0-1-0.4-1-1v-22.1c0-0.6,0.4-1,1-1h74.9c0.6,0,1,0.4,1,1v22.1
		C334.5,175.1,334.1,175.6,333.5,175.6z"/>
	<text transform="matrix(1 0 0 1 274.5171 166.3065)" class="st28 st23 st29">Flexibility</text>
	<path class="st9" d="M450.2,191.3h-75.4c-0.5,0-1-0.4-1-1V168c0-0.5,0.5-1,1-1h75.4c0.6,0,1,0.5,1,1v22.3
		C451.2,190.9,450.7,191.3,450.2,191.3z"/>
	<text transform="matrix(1 0 0 1 395.2559 181.9979)" class="st30 st23 st29">Results</text>
	<path class="st9" d="M333.5,212.6h-74.9c-0.6,0-1-0.4-1-1v-22.1c0-0.6,0.4-1,1-1h74.9c0.6,0,1,0.4,1,1v22.1
		C334.5,212.1,334.1,212.6,333.5,212.6z"/>
	<text transform="matrix(1 0 0 1 282.4937 203.2626)" class="st28 st23 st29">Costs</text>
	<g>
		<path class="st11" d="M329.9,162.9c-0.7-0.2-0.8,0.7-0.3,1.1c0.8,0.5,1.6,1.1,2.2,1.8c0.2,0.2,0.6,0.3,0.8,0.1
			c0.1-0.1,0.3-0.2,0.4-0.3c0.4-0.2,0.4-0.8,0-1C332.1,163.8,331,163.2,329.9,162.9z"/>
		<g>
			<path class="st11" d="M331.5,197.8c0.2-0.8,0.5-3.5,0.3-4.3c-0.3-1.5-2-1.9-2.3-0.4c-0.4,2.2-0.9,4.3-1.8,6.4
				c-0.3,0.9,0.2,1.7,1.2,1.7c2.9-0.1,5.7-0.5,8.4-1.3c1.2-0.3,0.9-2.1-0.2-2.3c-1.2-0.3-4.1,0.3-5.2,0.3"/>
		</g>
	</g>
	<g>
		<text transform="matrix(1 0 0 1 172.4751 37.6112)" class="st31 st20 st21 st22">2</text>
	</g>
	<text transform="matrix(1 0 0 1 274.6992 34.3324)" class="st32 st20 st33 st34">OPTIONAL</text>
	<g>
		<text transform="matrix(1 0 0 1 407.3359 37.6112)" class="st31 st20 st21 st22">3</text>
	</g>
	<g>
		<text transform="matrix(1 0 0 1 524.7021 37.6112)" class="st31 st20 st21 st22">4</text>
	</g>
	<path class="st15" d="M335.3,167.7c0,0,16.1,15-5.6,32.1"/>
	<path class="st16" d="M62.1,64.6l3.2,5.5c0.4,0.7-0.1,1.5-0.9,1.5h-6.3c-0.8,0-1.3-0.8-0.9-1.5l3.2-5.5
		C60.8,63.9,61.7,63.9,62.1,64.6z"/>
	<path class="st16" d="M179.1,64.6l3.2,5.5c0.4,0.7-0.1,1.5-0.9,1.5h-6.3c-0.8,0-1.3-0.8-0.9-1.5l3.2-5.5
		C177.8,63.9,178.7,63.9,179.1,64.6z"/>
	<path class="st17" d="M296.9,64.6l3.2,5.5c0.4,0.7-0.1,1.5-0.9,1.5h-6.3c-0.8,0-1.3-0.8-0.9-1.5l3.2-5.5
		C295.6,63.9,296.5,63.9,296.9,64.6z"/>
	<path class="st16" d="M414,64.6l3.2,5.5c0.4,0.7-0.1,1.5-0.9,1.5h-6.3c-0.8,0-1.3-0.8-0.9-1.5l3.2-5.5
		C412.6,63.9,413.6,63.9,414,64.6z"/>
	<path class="st16" d="M531.3,64.6l3.2,5.5c0.4,0.7-0.1,1.5-0.9,1.5h-6.3c-0.8,0-1.3-0.8-0.9-1.5l3.2-5.5
		C530,63.9,531,63.9,531.3,64.6z"/>
	<g>
		<path class="st11" d="M247.9,162.8c-0.7,0.5-2.3,2.5-2.8,3.3c-0.7,1.3,0.3,2.8,1.5,1.8c1.8-1.4,3.5-2.6,5.5-3.7
			c0.8-0.4,1-1.5,0.2-2.1c-2.2-1.8-4.6-3.3-7.2-4.5c-1.1-0.5-2.1,1-1.4,1.9C244.5,160.5,247,162,247.9,162.8"/>
	</g>
	<line class="st18" x1="227.5" y1="162.9" x2="249.7" y2="162.9"/>
	<g>
		<path class="st11" d="M230.9,200c0.7-0.5,2.3-2.5,2.8-3.3c0.7-1.3-0.3-2.8-1.5-1.8c-1.8,1.4-3.5,2.6-5.5,3.7
			c-0.8,0.4-1,1.5-0.2,2.1c2.2,1.8,4.6,3.3,7.2,4.5c1.1,0.5,2.1-1,1.4-1.9C234.2,202.2,231.8,200.7,230.9,200"/>
	</g>
	<line class="st18" x1="251.2" y1="199.9" x2="229.1" y2="199.9"/>
</g>
</svg>
