<?xml version="1.0" encoding="utf-8"?>
<!-- Generator: Adobe Illustrator 25.2.3, SVG Export Plug-In . SVG Version: 6.00 Build 0)  -->
<svg version="1.1" id="Layer_1" xmlns="http://www.w3.org/2000/svg" xmlns:xlink="http://www.w3.org/1999/xlink" x="0px" y="0px"
	 viewBox="0 0 600 238.6" style="enable-background:new 0 0 600 238.6;" xml:space="preserve">
<style type="text/css">
	.st0{fill:#F5F8FB;stroke:#F5F8FB;stroke-width:7.1912;stroke-miterlimit:10;}
	.st1{fill:#70A2CF;stroke:#70A2CF;stroke-width:7.1912;stroke-miterlimit:10;}
	.st2{fill:none;stroke:#9BBFDF;stroke-width:7.1912;stroke-miterlimit:10;}
	.st3{fill:#70A2CF;}
	.st4{fill:#B2C7D9;stroke:#B2C7D9;stroke-width:0.3565;stroke-miterlimit:10;}
	.st5{opacity:0.9;fill:#F7F7F7;enable-background:new    ;}
	.st6{font-family:'Helvetica';}
	.st7{font-size:20.7745px;}
	.st8{opacity:0.9;fill:none;stroke:#F7F7F7;stroke-width:0.3995;stroke-miterlimit:10;enable-background:new    ;}
	.st9{fill:#374D5D;}
	.st10{font-size:11.1862px;}
	.st11{font-size:11px;}
	.st12{fill:none;stroke:#374D5D;stroke-width:0.5;stroke-miterlimit:10;}
	.st13{fill:none;stroke:#374D5D;stroke-width:0.1997;stroke-miterlimit:10;}
	.st14{fill:#FFFFFF;stroke:#EFEFEF;stroke-width:0.3257;stroke-miterlimit:10;}
	.st15{fill:#374D5D;stroke:#374D5D;stroke-width:0.375;stroke-miterlimit:10;}
	.st16{font-size:10.6302px;}
	.st17{fill:#B2C7D9;}
	.st18{fill:#9BBFDF;}
	.st19{fill:none;stroke:#374D5D;stroke-width:0.25;stroke-miterlimit:10;}
	.st20{fill:#374D5D;stroke:#374D5D;stroke-width:0.5;stroke-miterlimit:10;}
	.st21{fill:#F7F7F7;}
	.st22{fill:none;stroke:#F7F7F7;stroke-width:0.3995;stroke-miterlimit:10;}
	.st23{opacity:0.7;fill:#F7F7F7;enable-background:new    ;}
	.st24{font-size:9.5882px;}
	.st25{opacity:0.7;fill:none;stroke:#F7F7F7;stroke-width:0.3995;stroke-miterlimit:10;enable-background:new    ;}
	.st26{fill:#70A2CF;stroke:#70A2CF;stroke-width:0.1132;stroke-miterlimit:10;}
	.st27{fill:#9BBFDF;stroke:#9BBFDF;stroke-width:0.1132;stroke-miterlimit:10;}
	.st28{fill:#FFFFFF;stroke:#EFEFEF;stroke-width:0.3404;stroke-miterlimit:10;}
	.st29{fill:#FFFFFF;stroke:#EFEFEF;stroke-width:0.325;stroke-miterlimit:10;}
	.st30{fill:none;stroke:#B2C7D9;stroke-width:1.74;stroke-linecap:round;stroke-miterlimit:10;stroke-dasharray:2.4,4;}
	.st31{fill:none;stroke:#B2C7D9;stroke-width:1.7622;stroke-linecap:round;stroke-miterlimit:10;stroke-dasharray:2.4306,4.0509;}
</style>
<g>
	<path class="st0" d="M112.4,79.1v150.1c0,0.5-0.4,0.8-0.9,0.8H11c-0.5,0-0.9-0.4-0.9-0.8V79.1H112.4z"/>
	<path class="st1" d="M112.4,75.9v-0.8c0-0.4-0.4-0.8-0.9-0.8H11c-0.5,0-0.9,0.4-0.9,0.8v0.8H112.4z"/>
	<path class="st0" d="M229.4,79.1v150.1c0,0.5-0.4,0.8-0.9,0.8H128c-0.5,0-0.9-0.4-0.9-0.8V79.1H229.4z"/>
	<path class="st1" d="M229.4,75.9v-0.8c0-0.4-0.4-0.8-0.9-0.8H128c-0.5,0-0.9,0.4-0.9,0.8v0.8H229.4z"/>
	<path class="st0" d="M347.2,79.1v150.1c0,0.5-0.4,0.8-0.9,0.8H245.8c-0.5,0-0.9-0.4-0.9-0.8V79.1H347.2z"/>
	<path class="st2" d="M347.2,75.9v-0.8c0-0.4-0.4-0.8-0.9-0.8H245.8c-0.5,0-0.9,0.4-0.9,0.8v0.8H347.2z"/>
	<path class="st0" d="M464.2,79.1v150.1c0,0.5-0.4,0.8-0.9,0.8H362.9c-0.5,0-0.9-0.4-0.9-0.8V79.1H464.2z"/>
	<path class="st1" d="M464.2,75.9v-0.8c0-0.4-0.4-0.8-0.9-0.8H362.9c-0.5,0-0.9,0.4-0.9,0.8v0.8H464.2z"/>
	<path class="st0" d="M581.6,79.1v150.1c0,0.5-0.4,0.8-0.9,0.8H480.3c-0.5,0-0.9-0.4-0.9-0.8V79.1H581.6z"/>
	<path class="st1" d="M581.6,75.9v-0.8c0-0.4-0.4-0.8-0.9-0.8H480.3c-0.5,0-0.9,0.4-0.9,0.8v0.8H581.6z"/>
	<path class="st3" d="M127.8,32.3l-19,28.6c-0.2,0.3-0.7,0.2-0.7-0.2v-4.3c0-0.2-0.2-0.4-0.4-0.4H3.4C3,56,2.9,55.7,3,55.4
		l15.6-23.1c0.1-0.1,0.1-0.3,0-0.4L3,8.7C2.9,8.4,3,8.1,3.4,8.1h104.3c0.2,0,0.4-0.2,0.4-0.4V3.4c0-0.4,0.5-0.5,0.7-0.2l19,28.6
		C127.8,32,127.8,32.1,127.8,32.3z"/>
	<g>
		<path class="st4" d="M66.4,178.8l-3.2,2.9c-0.1,0.1-0.2,0.2-0.3,0.3c-0.4,2.2-2.4,3.9-4.7,3.9c-2.6,0-4.8-2.1-4.8-4.8
			c0-2.4,1.8-4.5,4.2-4.8c0-0.1,0.1-0.1,0.1-0.1l1.3-1.4l0,0c0.6-0.6,1.2-1.3,1.7-1.8c-0.8-0.2-1.6-0.4-2.5-0.4
			c-4.7,0-8.5,3.8-8.5,8.5s3.8,8.5,8.5,8.5s8.5-3.8,8.5-8.5C66.7,180.3,66.6,179.5,66.4,178.8z"/>
		<path class="st4" d="M72.6,173.1c-0.9,0.9-1.9,1.7-2.8,2.6c0.8,1.6,1.2,3.5,1.2,5.4c0,7-5.7,12.8-12.8,12.8s-12.8-5.7-12.8-12.8
			c0-7,5.7-12.8,12.8-12.8c2,0,3.9,0.5,5.6,1.3c0.9-0.9,1.7-1.9,2.6-2.8c-2.4-1.4-5.2-2.2-8.1-2.2c-9.1,0-16.5,7.4-16.5,16.5
			s7.4,16.5,16.5,16.5s16.5-7.4,16.5-16.5C74.7,178.2,74,175.5,72.6,173.1z"/>
		<path class="st4" d="M84.3,162.8c-0.1-0.2-0.2-0.4-0.3-0.5c-0.3-0.3-0.8-0.4-1.2-0.4c-0.6,0-1.3,0-1.9,0c-1,0-2,0-3,0
			c-0.1,0-0.1,0-0.1,0l-0.1-0.1l-0.1-0.1v-0.1c0-1,0-2,0-3c0-0.6,0-1.3,0-1.9c0-0.4,0-0.9-0.4-1.2c-0.1-0.1-0.3-0.2-0.5-0.3
			c-0.8-0.3-1.4,0.2-1.6,0.5c-0.4,0.5-0.9,0.9-1.3,1.4c-1,1-2.1,2.1-3.1,3.2c-0.3,0.4-0.6,0.9-0.6,1.4c0,0.8,0,1.6,0,2.3
			s0,1.4,0,2.1c0,0.2-0.1,0.5-0.3,0.7c-1.7,1.9-3.5,3.9-5.3,5.8l-1.4,1.6c-0.8,0.8-2.6,2.8-3.2,3.5l0,0l-0.2,0.2
			c-0.1,0.2-0.3,0.3-0.4,0.5c-0.5,0.5-1,1.1-1.6,1.8c-0.4,0.5-0.2,1.2,0.2,1.6l0,0c0.4,0.4,1,0.6,1.5,0.2c0.7-0.5,1.3-1.1,1.8-1.6
			c0.2-0.1,0.3-0.3,0.5-0.4l5.3-4.8c1.9-1.7,3.8-3.5,5.8-5.3c0.2-0.1,0.5-0.3,0.7-0.3c0.7,0,1.4,0,2.1,0c0.8,0,1.6,0,2.3,0
			c0.5,0,1.1-0.2,1.4-0.6c1.1-1,2.1-2.1,3.2-3.1c0.5-0.4,0.9-0.9,1.4-1.3C84.1,164.2,84.7,163.7,84.3,162.8z"/>
	</g>
	<text transform="matrix(1 0 0 1 58.2603 37.6112)" class="st5 st6 st7">1</text>
	<text transform="matrix(1 0 0 1 58.2603 37.6112)" class="st8 st6 st7">1</text>
	<path class="st3" d="M244.8,32.3l-19,28.6c-0.2,0.3-0.7,0.2-0.7-0.2v-4.3c0-0.2-0.2-0.4-0.4-0.4H120.4c-0.3,0-0.5-0.4-0.3-0.6
		l15.6-23.1c0.1-0.1,0.1-0.3,0-0.4L120,8.7c-0.2-0.3,0-0.6,0.3-0.6h104.3c0.2,0,0.4-0.2,0.4-0.4V3.4c0-0.4,0.5-0.5,0.7-0.2l19,28.6
		C244.9,32,244.9,32.1,244.8,32.3z"/>
	<text transform="matrix(1 0 0 1 34.3994 103.3124)" class="st9 st6 st10">What’s the </text>
	<g>
		<text transform="matrix(1 0 0 1 46.9994 116.1124)" class="st9 st6 st11">goal</text>
		<text transform="matrix(1 0 0 1 46.9994 116.1124)" class="st12 st6 st11">goal</text>
	</g>
	<text transform="matrix(1 0 0 1 69.1994 116.1124)" class="st9 st6 st10">?</text>
	<g>
		<text transform="matrix(1 0 0 1 133.8145 103.3124)" class="st9 st6 st10">Balance</text>
		<text transform="matrix(1 0 0 1 174.2145 103.3124)" class="st9 st6 st10"> </text>
		<g>
			<text transform="matrix(1 0 0 1 177.3145 103.3124)" class="st9 st6 st11">demand</text>
			<text transform="matrix(1 0 0 1 177.3145 103.3124)" class="st12 st6 st11">demand</text>
		</g>
		<text transform="matrix(1 0 0 1 219.6145 103.3124)" class="st9 st6 st10"> </text>
		<text transform="matrix(1 0 0 1 219.6145 103.3124)" class="st13 st6 st10"> </text>
		<text transform="matrix(1 0 0 1 150.1145 116.1124)" class="st9 st6 st10">and </text>
		<g>
			<text transform="matrix(1 0 0 1 172.0145 116.1124)" class="st9 st6 st11">supply</text>
			<text transform="matrix(1 0 0 1 172.0145 116.1124)" class="st12 st6 st11">supply</text>
		</g>
	</g>
	<path class="st14" d="M215.2,175.7h-74.9c-0.6,0-1-0.5-1-1v-22.1c0-0.5,0.4-1,1-1h74.9c0.6,0,1,0.5,1,1v22.1
		C216.2,175.3,215.8,175.7,215.2,175.7z"/>
	<g>
		<text transform="matrix(1 0 0 1 158.1284 166.4559)" class="st15 st6 st16">Demand</text>
	</g>
	<path class="st14" d="M215.2,212.7h-74.9c-0.6,0-1-0.4-1-1v-22.1c0-0.5,0.4-1,1-1h74.9c0.6,0,1,0.5,1,1v22.1
		C216.2,212.2,215.8,212.7,215.2,212.7z"/>
	<g>
		<text transform="matrix(1 0 0 1 161.6001 203.411)" class="st15 st6 st16">Supply</text>
	</g>
	<g>
		<path class="st17" d="M144,162.9c-2.9,0.1-5.7,0.5-8.4,1.3c-1.2,0.3-0.9,2.1,0.2,2.3c1.2,0.3,2.4,0.4,3.6,0.3
			c-4.1,4.3-6.2,10.2-6,16.3c0.2,6.2,3,16.1,9.8,17.9c0.7,0.2,0.8-0.7,0.3-1.1c-5.5-3.4-7.9-11.4-7.9-17.5c0-5.5,2.1-10.7,5.9-14.5
			c-0.2,0.8-0.4,1.7-0.5,2.6c-0.2,1.5,2,1.9,2.3,0.4c0.4-2.2,0.9-4.3,1.8-6.4C145.5,163.8,144.9,162.9,144,162.9z"/>
	</g>
	<g>
		<path class="st17" d="M211.5,201.1c2.9-0.1,5.7-0.5,8.4-1.3c1.2-0.3,0.9-2.1-0.2-2.3c-1.2-0.3-2.4-0.4-3.6-0.3
			c4.1-4.3,6.2-10.2,6-16.3c-0.2-6.2-3-16.1-9.8-17.9c-0.7-0.2-0.8,0.7-0.3,1.1c5.5,3.4,7.9,11.4,7.9,17.5c0,5.5-2.1,10.7-5.9,14.5
			c0.2-0.8,0.4-1.7,0.5-2.6c0.2-1.5-2-1.9-2.3-0.4c-0.4,2.2-0.9,4.3-1.8,6.4C209.9,200.2,210.5,201.1,211.5,201.1z"/>
	</g>
	<path class="st18" d="M362.6,32.3l-19,28.6c-0.2,0.3-0.7,0.2-0.7-0.2v-4.3c0-0.2-0.2-0.4-0.4-0.4H238.2c-0.3,0-0.5-0.4-0.3-0.6
		l15.6-23.1c0.1-0.1,0.1-0.3,0-0.4L237.8,8.7c-0.2-0.3,0-0.6,0.3-0.6h104.3c0.2,0,0.4-0.2,0.4-0.4V3.4c0-0.4,0.5-0.5,0.7-0.2
		l19,28.6C362.7,32,362.7,32.1,362.6,32.3z"/>
	<g>
		<g>
			<text transform="matrix(1 0 0 1 248.8022 103.3124)"><tspan x="0" y="0" class="st9 st6 st11">Make</tspan><tspan x="26.9" y="0" class="st19 st6 st11"> </tspan><tspan x="30" y="0" class="st20 st6 st11">assumptions</tspan></text>
		</g>
		<text transform="matrix(1 0 0 1 257.3022 116.1124)" class="st9 st6 st10">about</text>
		<text transform="matrix(1 0 0 1 286.1022 116.1124)" class="st9 st6 st10"> </text>
		<g>
			<text transform="matrix(1 0 0 1 289.2022 116.1124)" class="st9 st6 st11">flexibility</text>
		</g>
		<text transform="matrix(1 0 0 1 246.0221 128.9124)" class="st9 st6 st10">emissions and </text>
		<g>
			<text transform="matrix(1 0 0 1 320.5928 128.9124)" class="st9 st6 st11">costs</text>
		</g>
	</g>
	<path class="st3" d="M479.6,32.3l-19,28.6c-0.2,0.3-0.7,0.2-0.7-0.2v-4.3c0-0.2-0.2-0.4-0.4-0.4H355.2c-0.3,0-0.5-0.4-0.3-0.6
		l15.6-23.1c0.1-0.1,0.1-0.3,0-0.4L354.9,8.7c-0.2-0.3,0-0.6,0.3-0.6h104.3c0.2,0,0.4-0.2,0.4-0.4V3.4c0-0.4,0.5-0.5,0.7-0.2
		l19,28.6C479.7,32,479.7,32.1,479.6,32.3z"/>
	<g>
		<text transform="matrix(1 0 0 1 387.623 105.1757)" class="st9 st6 st10">Check the</text>
	</g>
	<path class="st3" d="M597,32.3l-19,28.6c-0.2,0.3-0.7,0.2-0.7-0.2v-4.3c0-0.2-0.2-0.4-0.4-0.4H472.6c-0.3,0-0.5-0.4-0.3-0.6
		l15.6-23.1c0.1-0.1,0.1-0.3,0-0.4L472.3,8.7c-0.2-0.3,0-0.6,0.3-0.6h104.3c0.2,0,0.4-0.2,0.4-0.4V3.4c0-0.4,0.5-0.5,0.7-0.2
		l19,28.6C597.1,32,597.1,32.1,597,32.3z"/>
	<g>
		<g>
			<text transform="matrix(1 0 0 1 485.5146 105.3026)" class="st9 st6 st11">Save </text>
			<g>
				<text transform="matrix(1 0 0 1 485.5146 105.3026)" class="st12 st6 st11">Save </text>
			</g>
		</g>
		<text transform="matrix(1 0 0 1 514.1146 105.3026)" class="st9 st6 st10">the scenario</text>
		<text transform="matrix(1 0 0 1 500.6146 118.1026)" class="st9 st6 st10">and </text>
		<g>
			<text transform="matrix(1 0 0 1 522.6146 118.1026)" class="st9 st6 st11">share </text>
			<g>
				<text transform="matrix(1 0 0 1 522.6146 118.1026)" class="st12 st6 st11">share </text>
			</g>
		</g>
		<text transform="matrix(1 0 0 1 554.3146 118.1026)" class="st9 st6 st10">it</text>
		<text transform="matrix(1 0 0 1 502.8146 130.9026)" class="st9 st6 st10">with others</text>
	</g>
	<g>
		<path class="st17" d="M548,174.3l-10.7-8.9c-0.4-0.3-0.9-0.3-1.3,0.1c-0.1,0.2-0.2,0.4-0.2,0.6v4.6c-9,2-14.3,7.6-14.3,15
			c0,0.5,0.4,0.9,0.9,0.9c0.4,0,0.7-0.2,0.8-0.6c1.5-4.5,7.5-6.3,12.5-6.5v4.4c0,0.5,0.4,0.9,0.9,0.9c0.2,0,0.4-0.1,0.6-0.2
			l10.7-8.9c0.4-0.3,0.4-0.9,0.1-1.3C548.1,174.3,548,174.3,548,174.3L548,174.3z"/>
		<path class="st17" d="M544.8,186.5c-1,0-1.8,0.8-1.8,1.8l0,0v5.4h-26.8v-23.2h7.1c1,0,1.8-0.8,1.8-1.8s-0.8-1.8-1.8-1.8h-8.9
			c-1,0-1.8,0.8-1.8,1.8l0,0v26.8c0,1,0.8,1.8,1.8,1.8l0,0h30.3c1,0,1.8-0.8,1.8-1.8l0,0v-7.1C546.5,187.3,545.7,186.6,544.8,186.5
			L544.8,186.5z"/>
	</g>
	<g>
		<text transform="matrix(1 0 0 1 172.4751 37.6112)" class="st21 st6 st7">2</text>
		<text transform="matrix(1 0 0 1 172.4751 37.6112)" class="st22 st6 st7">2</text>
	</g>
	<text transform="matrix(1 0 0 1 274.6992 34.3324)" class="st23 st6 st24">OPTIONAL</text>
	<text transform="matrix(1 0 0 1 274.6992 34.3324)" class="st25 st6 st24">OPTIONAL</text>
	<g>
		<text transform="matrix(1 0 0 1 407.3359 37.6112)" class="st21 st6 st7">3</text>
		<text transform="matrix(1 0 0 1 407.3359 37.6112)" class="st22 st6 st7">3</text>
	</g>
	<g>
		<text transform="matrix(1 0 0 1 524.7021 37.6112)" class="st21 st6 st7">4</text>
		<text transform="matrix(1 0 0 1 524.7021 37.6112)" class="st22 st6 st7">4</text>
	</g>
	<path class="st26" d="M62.1,64.6l3.2,5.5c0.4,0.7-0.1,1.5-0.9,1.5h-6.3c-0.8,0-1.3-0.8-0.9-1.5l3.2-5.5
		C60.8,63.9,61.7,63.9,62.1,64.6z"/>
	<path class="st26" d="M179.1,64.6l3.2,5.5c0.4,0.7-0.1,1.5-0.9,1.5h-6.3c-0.8,0-1.3-0.8-0.9-1.5l3.2-5.5
		C177.8,63.9,178.7,63.9,179.1,64.6z"/>
	<path class="st27" d="M296.9,64.6l3.2,5.5c0.4,0.7-0.1,1.5-0.9,1.5h-6.3c-0.8,0-1.3-0.8-0.9-1.5l3.2-5.5
		C295.6,63.9,296.5,63.9,296.9,64.6z"/>
	<path class="st26" d="M414,64.6l3.2,5.5c0.4,0.7-0.1,1.5-0.9,1.5H410c-0.8,0-1.3-0.8-0.9-1.5l3.2-5.5
		C412.6,63.9,413.6,63.9,414,64.6z"/>
	<path class="st26" d="M531.3,64.6l3.2,5.5c0.4,0.7-0.1,1.5-0.9,1.5h-6.3c-0.8,0-1.3-0.8-0.9-1.5l3.2-5.5
		C530,63.9,531,63.9,531.3,64.6z"/>
	<path class="st28" d="M454.3,196.6h-82.4c-0.5,0-1.1-0.4-1.1-1v-22.3c0-0.5,0.5-1,1.1-1h82.4c0.7,0,1.1,0.5,1.1,1v22.3
		C455.4,196.2,454.8,196.6,454.3,196.6z"/>
	<g>
		<text transform="matrix(1 0 0 1 377.7777 187.2467)" class="st15 st6 st16">Results &amp; Data</text>
	</g>
	<g>
		<g>
			<text transform="matrix(1 0 0 1 395.3302 118.3252)" class="st9 st6 st11">results</text>
			<g>
				<text transform="matrix(1 0 0 1 395.3302 118.3252)" class="st12 st6 st11">results</text>
			</g>
			<text transform="matrix(1 0 0 1 396.2302 131.5252)" class="st9 st6 st11">&amp; data</text>
			<g>
				<text transform="matrix(1 0 0 1 396.2302 131.5252)" class="st12 st6 st11">&amp; data</text>
			</g>
		</g>
	</g>
	<path class="st29" d="M259,141.1h76c0.3,0,0.5,0.2,0.5,0.5v23.2c0,0.3-0.2,0.5-0.5,0.5h-76c-0.3,0-0.5-0.2-0.5-0.5v-23.2
		C258.5,141.3,258.8,141.1,259,141.1z"/>
	<g>
		<text transform="matrix(1 0 0 1 277.3819 155.9552)" class="st15 st6 st16">Flexibility</text>
	</g>
	<path class="st29" d="M259,202.2h76c0.3,0,0.5,0.2,0.5,0.5v23.2c0,0.3-0.2,0.5-0.5,0.5h-76c-0.3,0-0.5-0.2-0.5-0.5v-23.2
		C258.5,202.4,258.8,202.2,259,202.2z"/>
	<g>
		<text transform="matrix(1 0 0 1 283.6798 217.0646)" class="st15 st6 st16">Costs</text>
	</g>
	<path class="st29" d="M259,171.6h76c0.3,0,0.5,0.2,0.5,0.5v23.2c0,0.3-0.2,0.5-0.5,0.5h-76c-0.3,0-0.5-0.2-0.5-0.5v-23.2
		C258.5,171.8,258.8,171.6,259,171.6z"/>
	<g>
		<text transform="matrix(1 0 0 1 274.1583 186.5148)" class="st15 st6 st16">Emissions</text>
	</g>
	<path class="st17" d="M330.2,172.2c-1-1.1-2.1-2-3.4-2.8c-1.3-0.7-2.8,0.2-1.9,1.4c1.4,1.7,2.6,3.6,3.6,5.6c0.3,0.6,1,0.9,1.6,0.6
		c0.2-0.1,0.4-0.2,0.4-0.4c1.8-2.2,3.4-4.6,4.6-7.2c0.5-1.1-1-2.1-1.9-1.4C332.4,168.9,330.9,171.3,330.2,172.2"/>
	<line class="st30" x1="330" y1="161.7" x2="330" y2="174"/>
	<path class="st17" d="M330.2,202.6c-1-1.1-2.1-2-3.4-2.8c-1.3-0.7-2.8,0.2-1.9,1.4c1.4,1.7,2.6,3.6,3.6,5.6c0.3,0.6,1,0.9,1.6,0.6
		c0.2-0.1,0.4-0.2,0.4-0.4c1.8-2.2,3.4-4.6,4.6-7.2c0.5-1.1-1-2.1-1.9-1.4C332.4,199.2,330.9,201.7,330.2,202.6"/>
	<line class="st30" x1="330" y1="192" x2="330" y2="204.4"/>
	<g>
		<path class="st17" d="M246.9,165.1c-1.1,1-2,2.1-2.8,3.4c-0.7,1.3,0.3,2.8,1.5,1.9c1.7-1.4,3.6-2.6,5.6-3.7c0.6-0.3,0.9-1,0.6-1.6
			c-0.1-0.2-0.2-0.4-0.4-0.5c-2.2-1.8-4.7-3.4-7.3-4.6c-1.2-0.6-2.1,1-1.4,1.9C243.5,162.9,246,164.4,246.9,165.1"/>
		<line class="st31" x1="229.4" y1="165.3" x2="245.3" y2="165.3"/>
	</g>
	<g>
		<path class="st17" d="M234.4,204.2c1.1-1,2-2.1,2.8-3.4c0.7-1.3-0.3-2.8-1.5-1.9c-1.7,1.4-3.6,2.6-5.6,3.7c-0.6,0.3-0.9,1-0.6,1.6
			c0.1,0.2,0.2,0.4,0.4,0.5c2.2,1.8,4.7,3.4,7.3,4.6c1.2,0.6,2.1-1,1.4-1.9C237.9,206.5,235.3,204.9,234.4,204.2"/>
		<line class="st31" x1="252" y1="204.1" x2="236.1" y2="204.1"/>
	</g>
</g>
</svg>
