<?xml version="1.0" encoding="UTF-8"?>
<svg id="Layer_1" data-name="Layer 1" xmlns="http://www.w3.org/2000/svg" viewBox="0 0 600 238.62">
  <defs>
    <style>
      .cls-1 {
        letter-spacing: 0em;
      }

      .cls-1, .cls-2, .cls-3, .cls-4, .cls-5, .cls-6, .cls-7, .cls-8, .cls-9, .cls-10, .cls-11, .cls-12, .cls-13, .cls-14, .cls-15, .cls-16, .cls-17, .cls-18, .cls-19 {
        stroke-miterlimit: 10;
      }

      .cls-1, .cls-2, .cls-5, .cls-7, .cls-8, .cls-9, .cls-11 {
        stroke: #374d5d;
      }

      .cls-1, .cls-2, .cls-7, .cls-8, .cls-11 {
        stroke-width: .2px;
      }

      .cls-1, .cls-7, .cls-8, .cls-11 {
        font-family: HelveticaNeue-Medium, 'Helvetica Neue';
        font-weight: 500;
      }

      .cls-20, .cls-2, .cls-5, .cls-9, .cls-15, .cls-18, .cls-21 {
        fill: #333;
      }

      .cls-22, .cls-16 {
        fill: #dbedfe;
      }

      .cls-23, .cls-3, .cls-17 {
        fill: #4e98e4;
      }

      .cls-24, .cls-11 {
        letter-spacing: -.02em;
      }

      .cls-3, .cls-4, .cls-14 {
        stroke-width: 7.19px;
      }

      .cls-3, .cls-10, .cls-13, .cls-17 {
        stroke: #4e98e4;
      }

      .cls-4 {
        fill: #eee;
        stroke: #eee;
      }

      .cls-5 {
        stroke-width: .36px;
      }

      .cls-5, .cls-9 {
        font-size: 10.39px;
      }

      .cls-5, .cls-9, .cls-25, .cls-26 {
        font-family: HelveticaNeue, 'Helvetica Neue';
      }

      .cls-6 {
        opacity: .9;
      }

      .cls-6, .cls-12 {
        fill: #f7f7f7;
        font-size: 20.77px;
        letter-spacing: .1em;
        stroke: #f7f7f7;
      }

      .cls-6, .cls-12, .cls-15 {
        font-family: HelveticaNeue-Bold, 'Helvetica Neue';
        font-weight: 700;
        stroke-width: .4px;
      }

      .cls-8 {
        letter-spacing: -.09em;
      }

      .cls-27 {
        font-family: Helvetica, Helvetica;
      }

      .cls-9 {
        stroke-width: .36px;
      }

      .cls-10 {
        stroke-dasharray: 0 0 2.4 4;
        stroke-width: 1.6px;
      }

      .cls-10, .cls-13 {
        stroke-linecap: round;
      }

      .cls-10, .cls-13, .cls-14 {
        fill: none;
      }

      .cls-25 {
        letter-spacing: 0em;
      }

      .cls-13 {
        stroke-dasharray: 0 0 2.4 4;
        stroke-width: 1.74px;
      }

      .cls-14, .cls-16 {
        stroke: #dbedfe;
      }

      .cls-15 {
        font-size: 9.59px;
        letter-spacing: .2em;
      }

      .cls-15, .cls-18 {
        stroke: #333;
      }

      .cls-16, .cls-17 {
        stroke-width: .11px;
      }

      .cls-18 {
        stroke-width: .36px;
      }

      .cls-19 {
        fill: #fff;
        stroke: #efefef;
        stroke-width: .33px;
      }

      .cls-21 {
        font-size: 11.19px;
      }
    </style>
  </defs>
  <path class="cls-4" d="m112.37,79.13v150.15c0,.46-.41.83-.92.83H11.01c-.51,0-.92-.37-.92-.83V79.13h102.27Z"/>
  <path class="cls-3" d="m112.37,75.94v-.75c0-.44-.41-.8-.92-.8H11.01c-.51,0-.92.36-.92.8v.75h102.27Z"/>
  <path class="cls-4" d="m229.39,79.13v150.15c0,.46-.41.83-.92.83h-100.44c-.51,0-.92-.37-.92-.83V79.13h102.27Z"/>
  <path class="cls-3" d="m229.39,75.94v-.75c0-.44-.41-.8-.92-.8h-100.44c-.51,0-.92.36-.92.8v.75h102.27Z"/>
  <path class="cls-4" d="m347.19,79.13v150.15c0,.46-.41.83-.92.83h-100.44c-.51,0-.92-.37-.92-.83V79.13h102.27Z"/>
  <path class="cls-14" d="m347.19,75.94v-.75c0-.44-.41-.8-.92-.8h-100.44c-.51,0-.92.36-.92.8v.75h102.27Z"/>
  <path class="cls-4" d="m464.25,79.13v150.15c0,.46-.41.83-.92.83h-100.44c-.51,0-.92-.37-.92-.83V79.13h102.27Z"/>
  <path class="cls-3" d="m464.25,75.94v-.75c0-.44-.41-.8-.92-.8h-100.44c-.51,0-.92.36-.92.8v.75h102.27Z"/>
  <path class="cls-4" d="m581.61,79.13v150.15c0,.46-.41.83-.92.83h-100.44c-.51,0-.92-.37-.92-.83V79.13h102.27Z"/>
  <path class="cls-3" d="m581.61,75.94v-.75c0-.44-.41-.8-.92-.8h-100.44c-.51,0-.92.36-.92.8v.75h102.27Z"/>
  <path class="cls-23" d="m127.76,32.26l-18.95,28.64c-.22.33-.73.17-.73-.22v-4.27c0-.22-.18-.4-.4-.4H3.36c-.32,0-.51-.36-.33-.62l15.59-23.13c.09-.13.09-.31,0-.44L3.03,8.69c-.18-.26.01-.62.33-.62h104.32c.22,0,.4-.18.4-.4V3.4c0-.39.51-.55.73-.22l18.95,28.64c.09.13.09.31,0,.44Z"/>
  <g>
    <path class="cls-18" d="m66.43,178.81l-3.15,2.89c-.1.09-.2.18-.31.28-.4,2.24-2.37,3.94-4.72,3.94-2.64,0-4.79-2.15-4.79-4.79,0-2.44,1.83-4.45,4.18-4.75.05-.05.09-.1.13-.15l1.25-1.4h.03c.55-.59,1.19-1.28,1.68-1.82-.78-.24-1.62-.37-2.48-.37-4.68,0-8.49,3.81-8.49,8.49s3.81,8.49,8.49,8.49,8.49-3.81,8.49-8.49c0-.8-.11-1.58-.32-2.31Z"/>
    <path class="cls-18" d="m72.64,173.12c-.95.86-1.89,1.73-2.83,2.59.77,1.64,1.21,3.48,1.21,5.41,0,7.03-5.72,12.76-12.76,12.76s-12.76-5.72-12.76-12.76,5.72-12.76,12.76-12.76c1.99,0,3.88.46,5.56,1.28.85-.93,1.72-1.88,2.58-2.82-2.4-1.37-5.18-2.16-8.14-2.16-9.08,0-16.46,7.38-16.46,16.46s7.38,16.46,16.46,16.46,16.46-7.38,16.46-16.46c0-2.9-.75-5.63-2.08-8Z"/>
    <path class="cls-18" d="m84.35,162.84c-.07-.19-.17-.35-.3-.48-.35-.35-.8-.4-1.25-.4-.64,0-1.28,0-1.92,0-.99,0-2.01-.01-3.02,0-.07,0-.11,0-.14,0l-.05-.13-.13-.05s0-.07,0-.14c.01-1.01,0-2.03,0-3.02,0-.64,0-1.28,0-1.92,0-.44-.05-.9-.4-1.25-.13-.13-.29-.23-.48-.3-.82-.31-1.37.24-1.63.51-.45.45-.9.91-1.35,1.36-1.03,1.03-2.09,2.1-3.11,3.18-.33.35-.57.93-.58,1.43-.02.78-.02,1.57-.01,2.34,0,.7.01,1.42,0,2.12,0,.23-.12.53-.27.69-1.75,1.94-3.54,3.89-5.28,5.78l-1.43,1.56c-.77.84-2.58,2.82-3.19,3.48h0s-.21.23-.21.23c-.14.15-.29.32-.44.49-.49.53-1.04,1.14-1.55,1.8-.37.48-.17,1.18.24,1.59.01.01.03.03.04.04.39.35,1.03.55,1.52.17.67-.53,1.29-1.09,1.83-1.59.16-.15.31-.29.46-.42l5.27-4.83c1.89-1.74,3.84-3.53,5.78-5.28.17-.15.46-.27.69-.27.7-.02,1.42-.01,2.12,0,.77,0,1.56.01,2.34-.01.51-.01,1.08-.25,1.43-.58,1.08-1.02,2.14-2.08,3.18-3.11.45-.45.9-.9,1.36-1.35.27-.26.82-.81.51-1.63Z"/>
  </g>
  <text class="cls-6" transform="translate(58.26 37.61)"><tspan x="0" y="0">1</tspan></text>
  <path class="cls-23" d="m244.78,32.26l-18.95,28.64c-.22.33-.73.17-.73-.22v-4.27c0-.22-.18-.4-.4-.4h-104.32c-.32,0-.51-.36-.33-.62l15.59-23.13c.09-.13.09-.31,0-.44l-15.59-23.13c-.18-.26.01-.62.33-.62h104.32c.22,0,.4-.18.4-.4V3.4c0-.39.51-.55.73-.22l18.95,28.64c.09.13.09.31,0,.44Z"/>
  <g>
    <path class="cls-20" d="m41.79,103.31l-1.82-6.71h-.02l-1.85,6.71h-1.11l-2.05-7.99h1.08l1.57,6.64h.02l1.79-6.64h1.15l1.77,6.64h.02l1.62-6.64h1.06l-2.14,7.99h-1.11Z"/>
    <path class="cls-20" d="m46.84,95.33v3.05h.02c.07-.18.18-.33.31-.45s.29-.22.45-.3c.17-.08.34-.14.53-.17.18-.04.36-.06.53-.06.38,0,.7.05.95.16.25.1.46.25.62.44.16.19.27.41.33.67.06.26.09.54.09.86v3.8h-.95v-3.92c0-.36-.1-.64-.31-.85s-.5-.31-.86-.31c-.29,0-.54.04-.76.13-.21.09-.39.22-.53.38s-.25.36-.32.58c-.07.22-.11.46-.11.72v3.27h-.95v-7.99h.95Z"/>
    <path class="cls-20" d="m57.23,103.29c-.16.1-.39.15-.68.15-.25,0-.44-.07-.59-.21-.15-.14-.22-.36-.22-.68-.26.31-.56.54-.91.68-.35.14-.72.21-1.12.21-.26,0-.51-.03-.74-.09s-.44-.15-.61-.28-.31-.29-.41-.5-.15-.45-.15-.74c0-.33.06-.6.17-.81.11-.21.26-.38.44-.51.18-.13.39-.23.63-.3.23-.07.48-.12.72-.17.26-.05.51-.09.74-.12.23-.03.44-.06.62-.11.18-.05.32-.12.42-.21s.16-.23.16-.41c0-.21-.04-.38-.12-.5-.08-.13-.18-.22-.3-.29-.12-.07-.26-.11-.41-.13s-.3-.03-.45-.03c-.4,0-.74.08-1.01.23s-.41.44-.44.87h-.95c.01-.36.09-.66.22-.91s.31-.45.54-.6.48-.26.77-.33c.29-.07.59-.1.92-.1.26,0,.52.02.78.06.26.04.49.11.7.23s.38.28.5.49c.13.21.19.48.19.81v2.97c0,.22.01.39.04.49.03.1.11.16.26.16.08,0,.18-.02.29-.04v.74Zm-1.54-2.96c-.12.09-.28.15-.47.19-.19.04-.4.07-.61.1-.21.03-.43.06-.64.09s-.41.09-.58.16c-.17.07-.31.18-.42.32-.11.14-.16.32-.16.56,0,.16.03.29.09.4.06.11.15.19.25.26.1.07.22.12.35.15s.28.04.43.04c.31,0,.58-.04.81-.13.22-.09.41-.19.55-.32.14-.13.25-.27.31-.42.07-.15.1-.29.1-.43v-.97Z"/>
    <path class="cls-20" d="m60.59,97.53v.84h-1.15v3.59c0,.11,0,.2.03.27.02.07.05.12.11.16.05.04.12.06.22.07.09.01.21.02.36.02h.44v.84h-.73c-.25,0-.46-.02-.63-.05-.18-.03-.32-.1-.43-.18s-.19-.22-.24-.38c-.05-.16-.08-.38-.08-.65v-3.68h-.98v-.84h.98v-1.73h.95v1.73h1.15Z"/>
    <path class="cls-20" d="m63.09,95.33v1.24c0,.22-.02.43-.07.63-.05.2-.12.37-.22.52-.1.15-.23.27-.38.36-.15.09-.34.13-.55.13v-.56c.13,0,.23-.03.31-.1.08-.06.15-.15.2-.25s.09-.22.11-.35.03-.26.03-.39h-.66v-1.24h1.24Z"/>
    <path class="cls-20" d="m64.65,102.02c.09.15.21.26.35.35.15.09.31.15.49.18.18.04.37.06.56.06.15,0,.31-.01.47-.03s.31-.06.45-.12c.14-.06.25-.15.34-.26.09-.12.13-.26.13-.44,0-.25-.09-.43-.28-.56-.19-.13-.42-.23-.7-.31-.28-.08-.58-.15-.91-.21s-.63-.15-.91-.27-.51-.28-.7-.49c-.19-.21-.28-.5-.28-.87,0-.29.07-.54.2-.75.13-.21.3-.38.5-.51.21-.13.44-.23.69-.29.26-.06.51-.1.77-.1.33,0,.63.03.91.08.28.06.52.15.73.29.21.14.38.32.51.56s.2.53.22.88h-.95c-.02-.19-.06-.34-.15-.46s-.19-.22-.31-.3c-.13-.07-.27-.13-.42-.16s-.31-.05-.46-.05c-.14,0-.29.01-.43.03s-.28.06-.4.12c-.12.06-.22.13-.29.22s-.11.21-.11.36c0,.16.06.3.17.41.12.11.26.2.44.27.18.07.38.13.6.18s.45.1.67.15c.24.05.47.12.7.19.23.07.43.17.6.3.17.12.32.28.42.46.11.19.16.42.16.69,0,.35-.07.64-.22.87-.15.23-.34.42-.57.56s-.5.24-.79.3c-.29.06-.59.08-.88.08-.32,0-.63-.03-.92-.1-.29-.07-.55-.18-.77-.33s-.4-.35-.54-.6-.21-.55-.22-.91h.95c0,.21.06.39.15.53Z"/>
    <path class="cls-20" d="m75.09,97.53v.84h-1.15v3.59c0,.11,0,.2.03.27.02.07.05.12.11.16.05.04.12.06.22.07.09.01.21.02.36.02h.44v.84h-.73c-.25,0-.46-.02-.63-.05-.18-.03-.32-.1-.43-.18s-.19-.22-.24-.38c-.05-.16-.08-.38-.08-.65v-3.68h-.98v-.84h.98v-1.73h.95v1.73h1.15Z"/>
    <path class="cls-20" d="m77.1,95.33v3.05h.02c.07-.18.18-.33.31-.45s.29-.22.45-.3c.17-.08.34-.14.53-.17.18-.04.36-.06.53-.06.38,0,.7.05.95.16.25.1.46.25.62.44.16.19.27.41.33.67.06.26.09.54.09.86v3.8h-.95v-3.92c0-.36-.1-.64-.31-.85s-.5-.31-.86-.31c-.29,0-.54.04-.76.13-.21.09-.39.22-.53.38s-.25.36-.32.58c-.07.22-.11.46-.11.72v3.27h-.95v-7.99h.95Z"/>
    <path class="cls-20" d="m86.46,102.94c-.43.33-.98.49-1.63.49-.46,0-.86-.07-1.2-.22-.34-.15-.62-.36-.86-.63-.23-.27-.4-.59-.52-.96-.12-.37-.18-.78-.2-1.22,0-.44.07-.84.2-1.21.13-.37.32-.68.56-.95s.53-.48.86-.63c.33-.15.7-.22,1.09-.22.51,0,.94.11,1.28.32s.61.48.82.81.35.69.43,1.07c.08.39.11.76.1,1.11h-4.33c0,.25.02.49.09.72.07.23.18.43.32.6.15.18.34.31.57.42.23.1.5.16.82.16.4,0,.73-.09.99-.28.26-.19.43-.47.51-.85h.94c-.13.65-.41,1.14-.84,1.47Zm-.23-3.71c-.09-.2-.2-.37-.35-.52s-.32-.26-.51-.35c-.2-.09-.42-.13-.65-.13s-.47.04-.67.13c-.2.09-.37.2-.51.35-.14.15-.25.32-.34.52-.08.2-.13.41-.15.63h3.32c-.02-.22-.07-.44-.15-.64Z"/>
    <path class="cls-2" d="m53.05,115.79c0,.87-.24,1.52-.73,1.95-.49.43-1.19.64-2.11.64-.29,0-.58-.03-.88-.09-.29-.06-.56-.16-.81-.3-.24-.14-.45-.33-.61-.56s-.26-.51-.29-.85h1.28c.04.18.1.32.19.44.09.11.2.2.32.26.12.06.26.1.41.12.15.02.31.03.47.03.51,0,.89-.13,1.13-.38.24-.25.36-.62.36-1.1v-.88h-.02c-.18.32-.42.57-.73.75-.31.18-.64.27-1,.27-.46,0-.86-.08-1.18-.24-.32-.16-.59-.38-.81-.66-.21-.28-.37-.6-.46-.97-.1-.37-.15-.76-.15-1.17,0-.39.06-.76.18-1.11.12-.35.29-.66.51-.92s.5-.48.82-.63.69-.23,1.1-.23c.37,0,.7.08,1.01.23.31.15.54.39.71.72h.02v-.79h1.27v5.48Zm-2.83-.7c.28,0,.52-.06.72-.17.2-.12.36-.27.48-.46.12-.19.21-.41.27-.65.06-.24.08-.49.08-.73s-.03-.48-.09-.72c-.06-.23-.15-.44-.27-.62-.12-.18-.28-.32-.48-.42-.2-.1-.43-.16-.71-.16s-.52.06-.72.18c-.19.12-.35.27-.47.46-.12.19-.21.41-.26.65s-.08.48-.08.72.03.47.09.7c.06.23.15.43.27.61s.28.32.47.44c.19.11.42.17.69.17Z"/>
    <path class="cls-2" d="m56.99,116.25c-.46,0-.87-.08-1.24-.23-.36-.15-.67-.36-.92-.63s-.44-.59-.57-.96c-.13-.37-.2-.78-.2-1.23s.06-.85.2-1.22c.13-.37.32-.69.57-.96s.56-.48.92-.63c.36-.15.77-.23,1.24-.23s.87.08,1.24.23c.36.15.67.36.92.63s.44.59.57.96c.13.37.2.78.2,1.22s-.06.86-.2,1.23c-.13.37-.32.69-.57.96s-.56.48-.92.63c-.36.15-.77.23-1.24.23Zm0-1.01c.28,0,.53-.06.74-.18.21-.12.38-.28.51-.47s.23-.41.3-.65.1-.49.1-.74-.03-.49-.1-.74-.16-.46-.3-.65c-.13-.19-.31-.34-.51-.46-.21-.12-.46-.18-.74-.18s-.53.06-.74.18c-.21.12-.38.27-.51.46-.13.19-.23.41-.3.65s-.1.49-.1.74.03.5.1.74.16.46.3.65.31.35.51.47c.21.12.45.18.74.18Z"/>
    <path class="cls-2" d="m65.82,114.81c0,.16.02.27.06.34.04.07.12.1.24.1h.13c.05,0,.11,0,.18-.02v.88s-.1.03-.17.05-.14.04-.22.05c-.07.02-.15.03-.22.03-.07,0-.14.01-.19.01-.26,0-.48-.05-.65-.16s-.28-.29-.34-.55c-.25.25-.56.43-.93.54s-.73.17-1.07.17c-.26,0-.51-.04-.75-.11s-.45-.18-.63-.31c-.18-.14-.33-.31-.44-.53-.11-.21-.16-.46-.16-.74,0-.36.07-.65.2-.87.13-.22.3-.4.51-.53s.45-.22.72-.27c.26-.06.53-.1.8-.13.23-.04.45-.08.66-.1.21-.02.39-.05.55-.09.16-.04.29-.11.38-.21.09-.09.14-.23.14-.42,0-.16-.04-.3-.12-.4-.08-.1-.18-.18-.29-.24-.12-.06-.24-.09-.39-.11-.14-.02-.28-.03-.4-.03-.36,0-.65.07-.88.22-.23.15-.36.38-.39.69h-1.28c.02-.37.11-.68.27-.93s.36-.44.6-.59c.24-.15.52-.25.82-.31.31-.06.62-.09.94-.09.28,0,.56.03.84.09.28.06.52.16.74.29.22.13.4.31.53.52.13.21.2.47.2.78v2.98Zm-1.27-1.61c-.19.13-.43.2-.72.23-.28.03-.57.07-.85.12-.13.02-.26.05-.39.09-.13.04-.24.1-.34.17-.1.07-.17.16-.23.28-.06.12-.08.26-.08.42,0,.14.04.26.12.36.08.1.18.17.3.23.12.06.24.09.38.12.14.02.26.03.37.03.14,0,.29-.02.46-.06.16-.04.32-.1.46-.19s.27-.2.36-.34c.1-.14.15-.31.15-.51v-.95Z"/>
    <path class="cls-2" d="m67.23,108.11h1.28v7.99h-1.28v-7.99Z"/>
    <path class="cls-20" d="m69.99,109.54c.12-.33.28-.61.5-.86.22-.24.48-.43.79-.56.31-.13.66-.2,1.05-.2.35,0,.67.05.96.15.29.1.54.25.74.44.21.19.37.42.49.7.12.28.17.59.17.95,0,.23-.03.44-.08.62-.06.18-.13.35-.22.5-.09.15-.19.29-.31.41s-.23.25-.35.37c-.12.11-.24.23-.35.34s-.22.24-.31.37c-.09.13-.17.27-.22.43-.06.15-.08.33-.08.52v.44h-.95v-.53c.01-.31.07-.58.17-.8.1-.22.22-.42.37-.59.15-.17.3-.33.46-.48.16-.15.31-.3.45-.46.14-.16.25-.34.33-.53.08-.19.12-.43.1-.7-.03-.41-.16-.73-.4-.96-.23-.23-.55-.35-.96-.35-.27,0-.5.05-.69.15-.19.1-.36.23-.49.39-.13.16-.23.36-.29.58-.06.22-.09.47-.09.73h-.95c0-.38.05-.73.16-1.06Zm2.9,5.31v1.24h-1.24v-1.24h1.24Z"/>
  </g>
  <text class="cls-21" transform="translate(133.81 103.31)"><tspan class="cls-26" x="0" y="0">Balance</tspan><tspan class="cls-27" x="40.39" y="0"> </tspan><tspan class="cls-1" x="43.5" y="0">demand</tspan><tspan class="cls-7" x="85.76" y="0"> </tspan><tspan class="cls-26" x="16.25" y="12.78">and </tspan><tspan class="cls-7" x="38.22" y="12.78">supply</tspan></text>
  <rect class="cls-19" x="139.29" y="151.6" width="76.94" height="24.15" rx="3" ry="3"/>
  <text class="cls-9" transform="translate(158.13 166.46)"><tspan x="0" y="0">Demand</tspan></text>
  <rect class="cls-19" x="139.29" y="188.55" width="76.94" height="24.15" rx="3" ry="3"/>
  <text class="cls-9" transform="translate(161.6 203.41)"><tspan x="0" y="0">Supply</tspan></text>
  <path class="cls-23" d="m143.96,162.89c-2.88.08-5.67.52-8.44,1.29-1.2.33-.92,2.08.18,2.32,1.23.26,2.43.37,3.62.33-4.06,4.35-6.17,10.24-5.96,16.3.21,6.19,2.97,16.14,9.83,17.95.66.17.85-.75.34-1.05-5.52-3.35-7.92-11.39-7.91-17.5,0-5.48,2.06-10.74,5.89-14.54-.2.85-.36,1.7-.47,2.58-.17,1.49,2.01,1.94,2.31.44.43-2.21.94-4.29,1.79-6.39.35-.86-.24-1.75-1.18-1.72Z"/>
  <path class="cls-23" d="m211.46,201.1c2.88-.08,5.67-.52,8.44-1.29,1.2-.33.92-2.08-.18-2.32-1.23-.26-2.43-.37-3.62-.33,4.06-4.35,6.17-10.24,5.96-16.3-.21-6.19-2.97-16.14-9.83-17.95-.66-.17-.85.75-.34,1.05,5.52,3.35,7.92,11.39,7.91,17.5,0,5.48-2.06,10.74-5.89,14.54.2-.85.36-1.7.47-2.58.17-1.49-2.01-1.94-2.31-.44-.43,2.21-.94,4.29-1.79,6.39-.35.86.24,1.75,1.18,1.72Z"/>
  <path class="cls-22" d="m362.58,32.26l-18.95,28.64c-.22.33-.73.17-.73-.22v-4.27c0-.22-.18-.4-.4-.4h-104.32c-.32,0-.51-.36-.33-.62l15.59-23.13c.09-.13.09-.31,0-.44l-15.59-23.13c-.18-.26.01-.62.33-.62h104.32c.22,0,.4-.18.4-.4V3.4c0-.39.51-.55.73-.22l18.95,28.64c.09.13.09.31,0,.44Z"/>
  <text class="cls-21" transform="translate(248.8 100.31)"><tspan class="cls-26"><tspan x="0" y="0">Make assumptions</tspan></tspan><tspan class="cls-26" x="7.46" y="12.78">about</tspan><tspan class="cls-27" x="36.26" y="12.78"> </tspan><tspan class="cls-7" x="39.37" y="12.78">flexibilit</tspan><tspan class="cls-8" x="79.16" y="12.78">y</tspan><tspan class="cls-7" x="83.93" y="12.78">,</tspan><tspan class="cls-7"><tspan x="21.34" y="25.57">emissions</tspan></tspan><tspan class="cls-26" x="22.17" y="38.35">and </tspan><tspan class="cls-7" x="44.14" y="38.35">costs</tspan></text>
  <path class="cls-23" d="m479.64,32.26l-18.95,28.64c-.22.33-.73.17-.73-.22v-4.27c0-.22-.18-.4-.4-.4h-104.32c-.32,0-.51-.36-.33-.62l15.59-23.13c.09-.13.09-.31,0-.44l-15.59-23.13c-.18-.26.01-.62.33-.62h104.32c.22,0,.4-.18.4-.4V3.4c0-.39.51-.55.73-.22l18.95,28.64c.09.13.09.31,0,.44Z"/>
  <text class="cls-21" transform="translate(387.62 103.18)"><tspan class="cls-26"><tspan x="0" y="0">Check the</tspan></tspan><tspan class="cls-7"><tspan class="cls-24" x="8.28" y="12.78">r</tspan><tspan x="12.02" y="12.78">esults</tspan></tspan><tspan class="cls-7"><tspan x="2.7" y="25.57">and data</tspan></tspan></text>
  <path class="cls-23" d="m597,32.26l-18.95,28.64c-.22.33-.73.17-.73-.22v-4.27c0-.22-.18-.4-.4-.4h-104.32c-.32,0-.51-.36-.33-.62l15.59-23.13c.09-.13.09-.31,0-.44l-15.59-23.13c-.18-.26.01-.62.33-.62h104.32c.22,0,.4-.18.4-.4V3.4c0-.39.51-.55.73-.22l18.95,28.64c.09.13.09.31,0,.44Z"/>
  <text class="cls-21" transform="translate(485.51 103.3)"><tspan class="cls-7" x="0" y="0">Save </tspan><tspan class="cls-26" x="28.6" y="0">the scenario</tspan><tspan class="cls-26" x="15.22" y="12.78">and </tspan><tspan class="cls-7" x="37.19" y="12.78">sha</tspan><tspan class="cls-11" x="55.63" y="12.78">r</tspan><tspan class="cls-7" x="59.37" y="12.78">e </tspan><tspan class="cls-25" x="68.7" y="12.78">it</tspan><tspan class="cls-26"><tspan x="17.31" y="25.57">with others</tspan></tspan></text>
  <g>
    <path class="cls-20" d="m548.01,172.26l-10.71-8.92c-.38-.32-.94-.26-1.26.12-.13.16-.21.36-.21.57v4.63c-8.96,2.02-14.28,7.59-14.28,15,0,.49.4.89.89.89.38,0,.72-.25.85-.61,1.51-4.55,7.51-6.33,12.54-6.51v4.45c0,.49.4.89.89.89.21,0,.41-.07.57-.21l10.71-8.92c.38-.32.43-.88.11-1.26-.03-.04-.07-.08-.11-.11h0Z"/>
    <path class="cls-20" d="m544.76,184.55c-.99,0-1.78.8-1.78,1.78h0v5.36h-26.77v-23.2h7.14c.99,0,1.78-.8,1.78-1.78s-.8-1.78-1.78-1.78h-8.92c-.99,0-1.78.8-1.78,1.78h0v26.78c0,.99.8,1.78,1.78,1.78h30.35c.99,0,1.78-.8,1.78-1.78h0v-7.14c0-.99-.8-1.78-1.78-1.78h0Z"/>
  </g>
  <rect class="cls-19" x="257.58" y="151.45" width="76.94" height="24.15" rx="3" ry="3"/>
  <text class="cls-9" transform="translate(274.52 166.31)"><tspan x="0" y="0">Flexibility</tspan></text>
  <rect class="cls-19" x="373.77" y="167.05" width="77.41" height="24.3" rx="3" ry="3"/>
  <text class="cls-5" transform="translate(395.26 182)"><tspan x="0" y="0">Results</tspan></text>
  <rect class="cls-19" x="257.58" y="205.19" width="76.94" height="24.15" rx="3" ry="3"/>
  <text class="cls-9" transform="translate(282.49 220.06)"><tspan x="0" y="0">Costs</tspan></text>
  <rect class="cls-19" x="257.58" y="178.32" width="76.94" height="24.15" rx="3" ry="3"/>
  <text class="cls-9" transform="translate(272.49 193.18)"><tspan x="0" y="0">Emissions</tspan></text>
  <text class="cls-12" transform="translate(172.48 37.61)"><tspan x="0" y="0">2</tspan></text>
  <text class="cls-15" transform="translate(271.7 34.33)"><tspan x="0" y="0">OPTIONAL</tspan></text>
  <text class="cls-12" transform="translate(407.34 37.61)"><tspan x="0" y="0">3</tspan></text>
  <text class="cls-12" transform="translate(524.7 37.61)"><tspan x="0" y="0">4</tspan></text>
  <path class="cls-17" d="m62.1,64.59l3.16,5.48c.39.67-.1,1.51-.87,1.51h-6.33c-.77,0-1.26-.84-.87-1.51l3.16-5.48c.39-.67,1.35-.67,1.74,0Z"/>
  <path class="cls-17" d="m179.12,64.59l3.16,5.48c.39.67-.1,1.51-.87,1.51h-6.33c-.77,0-1.26-.84-.87-1.51l3.16-5.48c.39-.67,1.35-.67,1.74,0Z"/>
  <path class="cls-16" d="m296.92,64.59l3.16,5.48c.39.67-.1,1.51-.87,1.51h-6.33c-.77,0-1.26-.84-.87-1.51l3.16-5.48c.39-.67,1.35-.67,1.74,0Z"/>
  <path class="cls-17" d="m413.98,64.59l3.16,5.48c.39.67-.1,1.51-.87,1.51h-6.33c-.77,0-1.26-.84-.87-1.51l3.16-5.48c.39-.67,1.35-.67,1.74,0Z"/>
  <path class="cls-17" d="m531.35,64.59l3.16,5.48c.39.67-.1,1.51-.87,1.51h-6.33c-.77,0-1.26-.84-.87-1.51l3.16-5.48c.39-.67,1.35-.67,1.74,0Z"/>
  <path class="cls-23" d="m247.92,162.76c-.71.51-2.35,2.54-2.77,3.34-.7,1.32.25,2.78,1.46,1.84,1.77-1.38,3.52-2.63,5.54-3.65.83-.42.96-1.48.24-2.07-2.23-1.83-4.62-3.32-7.23-4.55-1.13-.53-2.06.97-1.38,1.87.75,1,3.22,2.47,4.15,3.23"/>
  <line class="cls-13" x1="227.52" y1="162.89" x2="249.7" y2="162.89"/>
  <path class="cls-23" d="m230.85,199.99c.71-.51,2.35-2.54,2.77-3.34.7-1.32-.25-2.78-1.46-1.84-1.77,1.38-3.52,2.63-5.54,3.65-.83.42-.96,1.48-.24,2.07,2.23,1.83,4.62,3.32,7.23,4.55,1.13.53,2.06-.97,1.38-1.87-.75-1-3.22-2.47-4.15-3.23"/>
  <line class="cls-13" x1="251.25" y1="199.85" x2="229.06" y2="199.85"/>
  <path class="cls-23" d="m331.53,186.83c.2-.85.46-3.46.26-4.34-.34-1.46-2.02-1.93-2.31-.43-.43,2.21-.93,4.3-1.77,6.39-.35.86.25,1.75,1.18,1.72,2.88-.09,5.66-.54,8.44-1.32,1.2-.34.92-2.08-.19-2.31-1.23-.26-4.05.25-5.25.29"/>
  <path class="cls-10" d="m335.32,161.95s16.14,11.94-5.63,25.66"/>
  <path class="cls-23" d="m331.33,220.3c.2-.85.46-3.46.26-4.34-.34-1.46-2.02-1.93-2.31-.43-.43,2.21-.93,4.3-1.77,6.39-.35.86.25,1.75,1.18,1.72,2.88-.09,5.66-.54,8.44-1.32,1.2-.34.92-2.08-.19-2.31-1.23-.26-4.05.25-5.25.29"/>
  <path class="cls-10" d="m335.13,195.42s16.14,11.94-5.63,25.66"/>
</svg>