<?xml version="1.0" encoding="iso-8859-1"?>
<!-- Generator: Adobe Illustrator 19.0.0, SVG Export Plug-In . SVG Version: 6.00 Build 0)  -->
<svg version="1.1" id="Layer_1" xmlns="http://www.w3.org/2000/svg" xmlns:xlink="http://www.w3.org/1999/xlink" x="0px" y="0px"
	 viewBox="0 0 512.001 512.001" style="enable-background:new 0 0 512.001 512.001;" xml:space="preserve">
<rect x="378.004" y="294.582" style="fill:#30A987;" width="46.925" height="162.672"/>
<rect x="284.155" y="236.531" style="fill:#F4A026;" width="46.925" height="220.723"/>
<rect x="190.306" y="322.038" style="fill:#E46A53;" width="46.925" height="135.216"/>
<rect x="96.456" y="122.525" style="fill:#61ACD2;" width="46.925" height="334.729"/>
<g>
	<path style="fill:#231F20;" d="M508.401,449.374l-39.104-33.89c-4.354-3.772-10.938-3.301-14.709,1.051
		c-3.772,4.351-3.301,10.938,1.051,14.709l17.979,15.582h-38.262V294.582c0-5.759-4.668-10.428-10.428-10.428h-46.925
		c-5.759,0-10.428,4.668-10.428,10.428v152.244h-26.069V236.535c0-5.759-4.668-10.428-10.428-10.428h-46.925
		c-5.759,0-10.428,4.668-10.428,10.428v210.291h-26.069V322.042c0-5.759-4.668-10.428-10.428-10.428h-46.925
		c-5.759,0-10.428,4.668-10.428,10.428v124.784h-26.069V122.525c0-5.759-4.668-10.428-10.428-10.428H96.456
		c-5.759,0-10.428,4.668-10.428,10.428v324.301H59.959V46.723l15.582,17.98c2.063,2.38,4.965,3.599,7.884,3.599
		c2.42,0,4.852-0.838,6.825-2.547c4.351-3.772,4.823-10.358,1.05-14.709l-33.89-39.104c-0.079-0.092-0.155-0.172-0.233-0.254
		c-0.03-0.032-0.059-0.066-0.09-0.098c-0.124-0.129-0.244-0.248-0.362-0.356c-1.002-0.957-2.199-1.727-3.552-2.232
		c-4.078-1.521-8.672-0.349-11.525,2.941L7.76,51.046c-3.771,4.349-3.3,10.936,1.052,14.708c4.353,3.773,10.938,3.301,14.709-1.051
		l15.582-17.979v400.102H10.428C4.668,446.826,0,451.495,0,457.254c0,5.759,4.668,10.428,10.428,10.428h28.676v25.548
		c0,5.759,4.668,10.428,10.428,10.428s10.428-4.668,10.428-10.428v-25.548h413.66l-17.979,15.582
		c-4.351,3.772-4.823,10.358-1.05,14.709c2.063,2.38,4.965,3.599,7.884,3.599c2.42,0,4.852-0.838,6.825-2.547l39.104-33.89
		c0.053-0.046,0.094-0.089,0.143-0.133c1.222-1.1,2.197-2.491,2.798-4.101C512.865,456.82,511.691,452.226,508.401,449.374z
		 M106.884,446.826V132.953h26.069v313.874H106.884z M200.733,446.826V332.47h26.069v114.356H200.733z M294.582,446.826V246.963
		h26.069v199.864H294.582z M388.432,446.826V305.01h26.069v141.817H388.432z"/>
	<path style="fill:#231F20;" d="M201.623,52.036l228.327,181.29l-24.33,2.618c-5.726,0.616-9.869,5.757-9.253,11.483
		c0.576,5.347,5.096,9.313,10.355,9.313c0.372,0,0.75-0.02,1.128-0.062l49.615-5.339c4.207-0.453,7.723-3.403,8.9-7.466
		c0.377-1.305,0.488-2.641,0.357-3.942c-0.002-0.026-0.002-0.048-0.005-0.075l-5.339-49.615c-0.615-5.726-5.757-9.863-11.483-9.252
		c-5.726,0.616-9.869,5.757-9.252,11.483l2.673,24.835L214.592,35.703c-4.509-3.581-11.069-2.828-14.651,1.682
		C196.36,41.895,197.113,48.455,201.623,52.036z"/>
</g>
<g>
</g>
<g>
</g>
<g>
</g>
<g>
</g>
<g>
</g>
<g>
</g>
<g>
</g>
<g>
</g>
<g>
</g>
<g>
</g>
<g>
</g>
<g>
</g>
<g>
</g>
<g>
</g>
<g>
</g>
</svg>
