<svg fill="#333" height="192" viewBox="0 0 256 256" width="192" xmlns="http://www.w3.org/2000/svg"><path d="m0 0h256v256h-256z" fill="none"/><path d="m94.05887 184.56854c-11.3137 33.94113-56.56854 33.94113-56.56854 33.94113s0-45.25484 33.94113-56.56854z" opacity=".2"/><path d="m184.56854 116.68629v64.56854a8 8 0 0 1 -2.34314 5.65686l-32.34176 32.34176a8 8 0 0 1 -13.5015-4.08793l-8.38214-41.91069z" opacity=".2"/><path d="m139.31371 71.43146h-64.56854a8 8 0 0 0 -5.65686 2.34314l-32.34176 32.34176a8 8 0 0 0 4.08793 13.5015l41.91069 8.38214z" opacity=".2"/><g fill="none" stroke="#333" stroke-linecap="round" stroke-linejoin="round" stroke-width="16"><path d="m94.05887 184.56854c-11.3137 33.94113-56.56854 33.94113-56.56854 33.94113s0-45.25484 33.94113-56.56854"/><path d="m195.88225 105.37258-67.88225 67.88225-45.25483-45.25483 67.88225-67.88225c25.70415-25.70415 51.40829-25.45342 62.37042-23.81787a7.96343 7.96343 0 0 1 6.70228 6.70228c1.63555 10.96213 1.88628 36.66627-23.81787 62.37042z"/><path d="m184.56854 116.68629v64.56854a8 8 0 0 1 -2.34314 5.65686l-32.34176 32.34176a8 8 0 0 1 -13.5015-4.08793l-8.38214-41.91069"/><path d="m139.31371 71.43146h-64.56854a8 8 0 0 0 -5.65686 2.34314l-32.34176 32.34176a8 8 0 0 0 4.08793 13.5015l41.91069 8.38214"/></g></svg>