<svg fill="#333" height="192" viewBox="0 0 256 256" width="192" xmlns="http://www.w3.org/2000/svg"><path d="m0 0h256v256h-256z" fill="none"/><path d="m128 56c-80 0-112 72.00781-112 72.00781s32 71.99219 112 71.99219 112-71.99219 112-71.99219-32-72.00781-112-72.00781zm0 112.0083a40 40 0 1 1 40-40 40.0001 40.0001 0 0 1 -40 40z" opacity=".2"/><g fill="none" stroke="#333" stroke-linecap="round" stroke-linejoin="round" stroke-width="16"><path d="m48 40 160 176"/><path d="m154.9071 157.59781a40.00028 40.00028 0 0 1 -53.8142-59.19562"/><path d="m73.99446 68.59357c-40.76927 20.64555-57.99446 59.40643-57.99446 59.40643s32 71.99219 112 71.99219a118.0238 118.0238 0 0 0 53.99756-12.59461"/><path d="m208.60953 169.09937c21.80179-19.52717 31.39047-41.09937 31.39047-41.09937s-32-72.00781-112-72.00781a125.31923 125.31923 0 0 0 -20.68221 1.68414"/><path d="m135.52737 88.70779a40.02413 40.02413 0 0 1 32.29785 35.52875"/></g></svg>