<svg fill="#333" height="192" viewBox="0 0 256 256" width="192" xmlns="http://www.w3.org/2000/svg"><path d="m0 0h256v256h-256z" fill="none"/><path d="m195.88226 60.11768a96.00006 96.00006 0 1 0 0 135.76464 96.00019 96.00019 0 0 0 0-135.76464zm-31.20514 74.57812-24.13733 28.41553h-.00006l-36.67706-6.6958-.00006-.00049-12.53967-35.11084 24.13733-28.41553h.00006l36.67706 6.6958z" opacity=".2"/><g fill="none" stroke="#333" stroke-linecap="round" stroke-linejoin="round" stroke-width="16"><circle cx="128" cy="128" r="96"/><path d="m128 32 36.6771 102.69588"/><path d="m44.86156 80 107.27579 19.58464"/><path d="m44.86156 176 70.59869-83.11124"/><path d="m128 224-36.6771-102.69588"/><path d="m211.13844 176-107.27579-19.58464"/><path d="m211.13844 80-70.59869 83.11124"/></g></svg>