<svg fill="#333" height="192" viewBox="0 0 256 256" width="192" xmlns="http://www.w3.org/2000/svg"><path d="m0 0h256v256h-256z" fill="none"/><path d="m80.00049 144.00048v40a8 8 0 0 0 8 8h96.41709l39.58291 32v-128a8 8 0 0 0 -8-8h-40v48a8 8 0 0 1 -8 8z" opacity=".2"/><g fill="none" stroke="#333" stroke-linecap="round" stroke-linejoin="round" stroke-width="16"><path d="m71.5834 144.00049-39.58291 32v-128a8 8 0 0 1 8-8h128a8 8 0 0 1 8 8v88a8 8 0 0 1 -8 8z"/><path d="m80.00049 144.00048v40a8 8 0 0 0 8 8h96.41709l39.58291 32v-128a8 8 0 0 0 -8-8h-40"/></g></svg>