<svg fill="#333" height="192" viewBox="0 0 256 256" width="192" xmlns="http://www.w3.org/2000/svg"><path d="m0 0h256v256h-256z" fill="none"/><path d="m176.00244 32v96l-32.00732-24-31.99268 24v-96h-40.00244a23.99994 23.99994 0 0 0 -24 24v168a23.99994 23.99994 0 0 1 24-24h136v-168z" opacity=".2"/><g fill="none" stroke="#333" stroke-linecap="round" stroke-linejoin="round" stroke-width="16"><path d="m48 224a24 24 0 0 1 24-24h136v-168h-136a24 24 0 0 0 -24 24z"/><path d="m48 224v8h144"/><path d="m176.002 32v96l-32.007-24-31.993 24v-96"/></g></svg>