<svg viewBox="0 0 72 72" xmlns="http://www.w3.org/2000/svg"><circle cx="36.0001" cy="36" fill="#ffeb52" r="24"/><path d="m25.0424 21.2371 7.9861-1.2007-3.9047 7.0692 3.6097 7.2242-7.9298-1.5291-5.7552 5.6655-.9961-8.0142-7.1667-3.7228 7.3142-3.424 1.3259-7.9663z" fill="#f1b31c"/><path d="m46.8821 21.2371-7.9861-1.2007 3.9047 7.0692-3.6097 7.2242 7.9298-1.5291 5.7552 5.6655.9961-8.0142 7.1667-3.7228-7.3142-3.424-1.3259-7.9663z" fill="#f1b31c"/><path d="m49.7371 46.356c-1.79 4.27-6.35 7.23-13.7 7.23-7.41 0-12.03-3.03-13.8-7.36 2.03.46 14.98 3.1699 27.5.13z" fill="#ea5a47"/><path d="m50.6071 41.866c0 1.6-.29 3.11-.87 4.49-12.52 3.04-25.47.33-27.5-.13-.55-1.35-.83-2.82-.83-4.36h.11s14.81 3.59 28.89.07z" fill="#fff"/><g fill="none" stroke="#000" stroke-linejoin="round" stroke-miterlimit="10" stroke-width="2"><path d="m50.6071 41.866c0 1.6-.29 3.11-.87 4.49-12.52 3.04-25.47.33-27.5-.13-.55-1.35-.83-2.82-.83-4.36h.11s14.81 3.59 28.89.07z" stroke-linecap="round"/><path d="m49.7371 46.356c-1.79 4.27-6.35 7.23-13.7 7.23-7.41 0-12.03-3.03-13.8-7.36 2.03.46 14.98 3.1699 27.5.13z"/><path d="m50.2271 46.236c-.16.04-.33.08-.49.12"/><path d="m22.2371 46.226c-.19-.05-.28-.07-.28-.07"/><path d="m46.5542 15.5591c-3.161-1.6354-6.7497-2.5591-10.5542-2.5591-3.9546 0-7.676.9979-10.9261 2.7556-.0502.0271-.1002.0544-.1501.0819" stroke-linecap="round"/><path d="m13.1945 32.9954c-.1283.9833-.1944 1.9862-.1944 3.0046 0 12.7022 10.2969 23 23 23 12.7022 0 23-10.2978 23-23 0-1.0073-.0648-1.9995-.1903-2.9726" stroke-linecap="round"/><path d="m25.1179 21.2371 7.9861-1.2007-3.9047 7.0692 3.6097 7.2242-7.9298-1.5291-5.7552 5.6655-.9961-8.0142-7.1667-3.7228 7.3142-3.424 1.3259-7.9663z" stroke-linecap="round"/><path d="m46.8821 21.2371-7.9861-1.2007 3.9047 7.0692-3.6097 7.2242 7.9298-1.5291 5.7552 5.6655.9961-8.0142 7.1667-3.7228-7.3142-3.424-1.3259-7.9663z" stroke-linecap="round"/></g></svg>