<svg viewBox="0 0 72 72" xmlns="http://www.w3.org/2000/svg"><path d="m36 13c-12.6823 0-23 10.3177-23 23 0 12.6822 10.3177 23 23 23 12.6822 0 23-10.3178 23-23 0-12.6823-10.3178-23-23-23z" fill="#ffeb52"/><circle cx="36" cy="36" fill="none" r="23" stroke="#000" stroke-miterlimit="10" stroke-width="2"/><path d="m30 32.9252c0 1.6567-1.3448 3-3 3-1.6553 0-3-1.3433-3-3 0-1.6553 1.3447-3 3-3 1.6552 0 3 1.3448 3 3"/><path d="m48 32.9252c0 1.6567-1.3447 3-3 3s-3-1.3433-3-3c0-1.6553 1.3447-3 3-3s3 1.3448 3 3"/><g style="fill:none;stroke:#000;stroke-miterlimit:10;stroke-width:2;stroke-linecap:round;stroke-linejoin:round"><path d="m23 24 7 4"/><path d="m49 24-7 4"/><path d="m29.5 43c1.2841-.6376 3.9847-1.0308 6.8421-.9981 2.6235.03 4.9897.4146 6.1579.9981"/></g></svg>