<svg fill="#333" height="192" viewBox="0 0 256 256" width="192" xmlns="http://www.w3.org/2000/svg"><path d="m0 0h256v256h-256z" fill="none"/><path d="m158.63434 93.34742a20 20 0 1 1 34.641-20l20 34.641a80 80 0 1 1 -138.56406 80l-38-65.81793a20 20 0 0 1 34.641-20l-20-34.641a20 20 0 1 1 34.641-20l8 13.8564a20 20 0 0 1 34.641-20z" opacity=".2"/><g fill="none" stroke="#333" stroke-linecap="round" stroke-linejoin="round" stroke-width="16"><path d="m119.99332 106.41921-26-45.03332a20 20 0 0 1 34.641-20l40 69.282"/><path d="m89.35231 133.34742-38-65.81793a20 20 0 1 1 34.641-20l34 58.88972"/><path d="m153.99332 165.30894a40 40 0 0 1 14.641-54.641l-10-17.32051a20 20 0 1 1 34.641-20l20 34.641a80 80 0 1 1 -138.56406 80l-38-65.81793a20 20 0 0 1 34.641-20l18 31.17692"/><path d="m81.09415 240.0027a111.54975 111.54975 0 0 1 -33.09415-36.01205"/><path d="m176 31a51.97065 51.97065 0 0 1 45.0258 26.00434"/></g></svg>