<svg enable-background="new 0 0 512 512" viewBox="0 0 512 512" xmlns="http://www.w3.org/2000/svg"><g fill="#86857b"><path d="m255.985 59.99c-8.284 0-15 6.716-15 15s6.716 15 15 15c49.634 0 90.015 40.374 90.015 90 0 8.284 6.716 15 15 15s15-6.716 15-15c0-66.168-53.838-120-120.015-120z"/><path d="m217.335 4.03c-67.77 14.161-122.72 68.585-137.179 136.776-12.209 57.582 2.836 115.392 41.277 158.607 18.791 21.123 29.567 49.006 29.567 76.577v30c0 19.96 13.067 36.917 31.093 42.79 5.928 35.025 36.328 63.209 73.907 63.209 37.569 0 67.977-28.175 73.907-63.209 18.026-5.873 31.093-22.83 31.093-42.791v-30c0-27.625 10.812-55.173 30.442-77.569 28.734-32.78 44.558-74.84 44.558-118.43 0-113.565-103.949-199.926-218.665-175.96zm38.665 477.96c-19.282 0-36.188-13.268-42.431-31.1h84.861c-6.242 17.832-23.148 31.1-42.43 31.1zm75-76c0 8.271-6.729 15-15 15h-120c-8.271 0-15-6.729-15-15v-15h150zm37.882-127.343c-20.92 23.867-33.791 52.647-37.057 82.343h-151.647c-3.262-29.712-16.1-58.775-36.328-81.516-32.038-36.016-44.557-84.291-34.346-132.445 11.919-56.214 57.719-101.879 113.968-113.632 96.024-20.067 182.528 52.045 182.528 146.593 0 36.312-13.182 71.349-37.118 98.657z"/><path d="m45 179.99h-30c-8.284 0-15 6.716-15 15s6.716 15 15 15h30c8.284 0 15-6.716 15-15s-6.716-15-15-15z"/><path d="m51.213 104.99-21.213-21.213c-5.857-5.858-15.355-5.858-21.213 0s-5.858 15.355 0 21.213l21.213 21.213c5.857 5.858 15.355 5.859 21.213 0 5.858-5.858 5.858-15.355 0-21.213z"/><path d="m51.213 263.777c-5.858-5.858-15.356-5.858-21.213 0l-21.213 21.213c-5.858 5.858-5.858 15.355 0 21.213 5.857 5.858 15.355 5.859 21.213 0l21.213-21.213c5.858-5.858 5.858-15.355 0-21.213z"/><path d="m497 179.99h-30c-8.284 0-15 6.716-15 15s6.716 15 15 15h30c8.284 0 15-6.716 15-15s-6.716-15-15-15z"/><path d="m503.213 83.777c-5.857-5.858-15.355-5.858-21.213 0l-21.213 21.213c-5.858 5.858-5.858 15.355 0 21.213 5.857 5.857 15.355 5.858 21.213 0l21.213-21.213c5.858-5.858 5.858-15.355 0-21.213z"/><path d="m503.213 284.99-21.213-21.213c-5.857-5.858-15.355-5.858-21.213 0s-5.858 15.355 0 21.213l21.213 21.213c5.857 5.857 15.355 5.858 21.213 0s5.858-15.355 0-21.213z"/></g></svg>
