<svg enable-background="new 0 0 330 330" viewBox="0 0 330 330" xmlns="http://www.w3.org/2000/svg"><g fill="#bdad63"><path d="m165 0c-90.981 0-165 74.02-165 165.001s74.019 164.999 165 164.999 165-74.018 165-164.999-74.019-165.001-165-165.001zm0 300c-74.44 0-135-60.56-135-134.999s60.56-135.001 135-135.001 135 60.562 135 135.001-60.561 134.999-135 134.999z"/><path d="m164.998 70c-11.026 0-19.996 8.976-19.996 20.009 0 11.023 8.97 19.991 19.996 19.991s19.996-8.968 19.996-19.991c0-11.033-8.97-20.009-19.996-20.009z"/><path d="m165 140c-8.284 0-15 6.716-15 15v90c0 8.284 6.716 15 15 15s15-6.716 15-15v-90c0-8.284-6.716-15-15-15z"/></g></svg>